<?xml version="1.0" encoding="UTF-8"?>
<svg xmlns="http://www.w3.org/2000/svg" viewBox="0 0 2549.57 1307.61">
  <defs>
    <style>
      .cls-1 {
        fill: #000;
      }

      .cls-1, .cls-2 {
        stroke-width: 0px;
      }

      .cls-2, .cls-3 {
        fill: #fff;
      }

      .cls-3 {
        stroke: #fff;
        stroke-miterlimit: 10;
      }
    </style>
  </defs>
  <g id="Ebene_1" data-name="Ebene 1">
    <g>
      <path class="cls-2" d="M1944.72,368.49v939.12H.69V0c648.01,0,1296.02,0,1944.02,0v23.16c-11.39-9.79-23.55-18.52-39.22-19.19-17.67-.76-35.39-.39-53.09-.66-5.76-.09-8.79,2.07-7.93,8.07,1.19,8.33-3.17,10.26-10.58,9.92-8.89-.41-17.81-.1-27.63-.1,1.6,11.37,2.81,19.89,4.01,28.42-1.49.32-2.97.63-4.46.95-2.81-9.82-5.52-19.67-8.48-29.44-1.87-6.18.42-8.39,6.64-8.23,8.49.22,17.01.29,25.48-.21,2.2-.13,4.26-2.62,6.39-4.03-1.82-1.7-3.62-4.85-5.48-4.88-20.74-.35-41.49-.22-64.04-.22,1.53,6.72,2.39,11.76,3.87,16.61,1.94,6.4.81,10.07-6.84,10.4-12.02.52-24.01,1.71-36.03,2.13-2.62.09-5.32-1.87-7.99-2.89.18-.99.37-1.99.55-2.98,13.74-1.58,27.47-3.16,41.07-4.72-1.03-17.98-1.84-18.9-17.82-18.69-8.11.11-16.22,1.25-24.32,1.18-33.57-.26-67.14-1.02-100.71-1.19-40.72-.2-81.44-.11-122.16.3-3.59.04-10.4,3.81-10.22,5.09,2.13,15.27-7.52,13.48-17.04,12.48-3.51-.37-7.11-.03-10.6-.47-9.33-1.18-12.4,1.96-9.38,11.28,1.81,5.59,2.01,11.69,2.94,17.57-1.57.27-3.15.55-4.72.82-2.91-9.58-5.74-19.17-8.74-28.72-2.11-6.73.65-8.96,7.25-8.71,7.42.27,14.91.47,22.28-.18,3.21-.28,6.23-2.78,9.33-4.27-2.91-1.68-5.72-4.55-8.75-4.81-8.08-.69-16.27-.28-24.41-.28-13.33,0-26.66,0-41.78,0,1.65,7.27,2.51,12.69,4.15,17.88,2.07,6.59-.3,8.98-6.89,9.25-12.38.51-24.73,1.58-37.11,2.06-2.48.1-5.03-1.39-7.55-2.15.09-1.17.19-2.34.28-3.51,11-1.27,21.97-2.92,33.01-3.69,7.58-.53,10.02-3.18,7.86-10.67-1.8-6.27-4.69-9.49-11.78-9.29-20.51.59-41.04.96-61.56.91-46.37-.12-92.74-.58-139.11-.82-17.7-.09-35.42-.25-53.11.31-3.13.1-8.96,3.92-8.78,5.47,1.5,12.86-6.65,12.47-15.27,12.08-3.18-.14-6.37.02-9.56.04-14.64.11-14.52.08-11.66,13.99.95,4.63,1.07,9.42,1.57,14.14-1.45.26-2.89.52-4.34.78-2.73-9.15-5.13-18.4-8.28-27.4-2.66-7.61-.34-10.43,7.55-10.16,8.13.27,16.31.33,24.41-.21,2.09-.14,4-2.86,6-4.39-1.64-1.47-3.26-4.21-4.92-4.23-20.74-.29-41.5-.19-63.64-.19,1.81,9.4,3.29,17.06,4.73,24.59-18.05,5.65-48.56,5.3-52.86-1.91,11.15-1.07,21.56-2.13,31.98-3.04,10.94-.96,12.96-3.22,8.44-12.92-1.53-3.29-7.24-6.53-11.09-6.59-20.41-.34-40.84.66-61.27.62-63.36-.13-126.73-.46-190.09-.92-7.54-.05-12.65,1.05-11.23,10.26,1.12,7.31-2.91,9.14-9.53,8.4-5.97-.67-12.01-.63-18.01-1.1-8.03-.63-12.63,1.09-9.03,10.54,1.73,4.54,2.5,9.52,3.04,14.38.19,1.69-1.65,3.59-2.57,5.4-.91-.07-1.83-.13-2.74-.2-3.55-12.13-7.1-24.26-11.3-38.61,11.72,0,21.19.39,30.59-.2,3.58-.22,7.02-2.7,10.53-4.15-3.34-1.53-6.64-4.27-10.03-4.38-14.86-.5-29.74-.24-44.61-.25-6.13,0-12.26,0-19.72,0,1.82,7.48,2.75,12.63,4.35,17.56,2.03,6.28.22,9.33-6.56,9.67-12.73.64-25.44,1.65-38.17,2.12-2.42.09-4.91-1.59-7.36-2.45.11-1.16.23-2.31.34-3.47,10.63-1.33,21.25-2.68,31.88-3.98,10.58-1.29,11.64-3.5,8.21-13.39-2.43-7.01-7.82-6-12.99-6-50.56.02-101.11.11-151.67.17-32.57.04-65.15-.03-97.72.15-4.48.02-11.87-1.81-10.93,5.88,1.52,12.5-5.81,12.08-14.22,11.59-3.88-.23-7.79-.1-11.68-.03-12.86.23-13.25.88-10.74,13.36,1.04,5.16,1.36,10.46,2.01,15.69l-4.46.75c-2.43-7.84-5.1-15.61-7.24-23.53-4.08-15.12-3.96-15.04,11.61-15.11,8.5-.03,17-.52,25.49-.79.18-1.49.36-2.98.54-4.47-3.11-1.13-6.21-3.17-9.34-3.23-16.99-.33-33.99-.02-50.98-.26-7.66-.11-9.2,3.46-7.47,9.96,1.31,4.91,2.41,9.87,3.91,16.1-15.95,1.16-30.31,2.43-44.71,3.07-2.78.12-5.68-2.25-8.52-3.47,2.83-1.39,5.54-3.6,8.5-4.01,10.76-1.47,21.61-2.34,32.24-3.42.6-15.73-1.39-18.06-15.14-18.11-22.85-.08-45.7-.03-68.55-.02-60.2.02-120.39.11-180.59-.02-6.89-.01-11.21,1.64-10.14,9.37,1.15,8.29-3.61,9.19-10.25,8.88-8.06-.37-16.16-.09-28.24-.09,4.72,5.47,7.06,9.91,10.75,12.18,70.64,43.5,141.48,86.66,212.13,130.13,8.07,4.96,15.46,9.87,25.11,1.73,1.07,4.31,1.03,7.83,2.71,10.12,2.89,3.96,6.33,8.37,10.57,10.15,2.15.9,7.37-2.85,9.84-5.66,9.05-10.32,17.53-21.12,26.21-31.76,3.68-4.51,5.23-8.92-.92-13.79-5.41,6.41-10.49,12.41-16.8,19.88-9.13-16.32-19.09-30.15-24.54-46.22,1.37-.84,2.73-1.68,4.1-2.52,6.96,10.7,13.92,21.41,21.74,33.43,6.68-8.33,12.27-15.31,19.09-23.82,3.05,6.51,5.31,11.34,8.53,18.21,6.73-7.96,12.61-14.71,18.27-21.63,15.77-19.31,15.6-19.2-1.6-36.73-4.04-4.12-7.13-4.63-11.79-1.38-4.58,3.2-9.67,5.7-14.53,8.5-.95-1.26-1.9-2.52-2.85-3.77,6.08-5.09,12.33-10,18.18-15.34,4.86-4.44,8.49-3.45,12.41,1.17,6.26,7.38,12.82,14.52,20.11,22.73,21.42-26.08,41.77-50.86,63.42-77.23,12.18,18.97,23.22,35.98,34.07,53.1,22.97,36.22,45.95,72.43,68.65,108.8,4.16,6.67,7.58,7.68,12.47,1.11,2.31-3.1,4.69-6.26,7.6-8.76,1.77-1.52,4.6-1.83,6.96-2.69-.24,2.43.3,5.35-.88,7.19-2.63,4.12-5.72,8.13-9.33,11.41-5.91,5.37-5.19,10.2-1.15,16.43,14.75,22.71,29.02,45.72,43.56,68.56,2.32,3.64,5.06,7.02,8.98,12.4,3.52-7.14,5.83-12.06,8.33-16.88,13.26-25.49,44.14-31.13,64.94-11.21,7,6.71,12.01,15.46,17.95,23.26,3.82,5.02,7.07,10.65,11.64,14.88,8.06,7.48,14.9,6.56,21.25-2.47,4.64-6.6,8.53-13.71,12.69-20.64,17.11-28.55,45.18-38.32,76.6-26.83,25.28,9.25,36.61,30.9,47.34,52.73,6.68,13.58,2.09,24.97-10.13,33.83-4.97,3.6-8.58,9.4-11.91,14.74-2.36,3.79-3.4,8.44-4.73,12.8-1.99,6.53-5.26,6.81-9.81,2.34-7.54-7.42-15.18-14.73-22.54-22.32-1.59-1.64-2.19-4.23-3.24-6.38.99-.85,1.99-1.7,2.98-2.55,8.5,7.46,16.99,14.91,26.06,22.87,4.88-9.76,10.88-17.63-2.68-23.64-3.26-1.45-4.96-6.54-7.18-10.09-4.65-7.44-8.44-15.53-13.9-22.33-8.47-10.56-19.7-9.45-26.76,1.82-3.17,5.06-5.89,10.42-9.18,15.4-11.81,17.87-26.55,30.91-48.93,35.63-8.82,1.86-16.3,10.63-23.89,16.85-1.29,1.06-.46,5.3.17,7.88,1.99,8.18,4.21,16.31,6.59,24.39,1.85,6.29-.1,9.33-6.87,9.59-4.65.18-9.28,1.01-15.96,1.78,15.01,22.71,23.8,47.08,49.26,58.46,8.96,4,16.93,10.15,25.4,15.25,4.66,2.8,9.4,5.46,16,9.28v-57.56c21.43,12.81,41.06,24.55,62.97,37.65-18.04,9.92-33.18,18.24-49.78,27.37,4.26,3.1,6.35,4.84,8.65,6.26,20.15,12.4,40.52,24.44,60.4,37.25,7.63,4.92,12.94,6.08,17.55-3.18,2.91-5.84,7.29-6.41,11.47-1.05,4.75,6.09,9.2,12.43,14.59,19.77,11.43-12.54,19.21-21.07,26.99-29.6,1.13.69,2.26,1.37,3.38,2.06-.81,2.85-1.02,6.09-2.56,8.47-2.46,3.8-5.84,7.02-8.79,10.52-14.98,17.71-14.86,17.59-32.25,1.96-2.12-1.9-6.24-1.61-9.44-2.34,1.66,2.91,2.6,6.93,5.11,8.54,16.03,10.29,32.41,20.06,48.67,30,14.38,8.79,28.76,17.59,43.6,26.66,3.52-4.09,6.4-7.43,9.99-11.59-15.71-8.2-30.44-15.88-47.8-24.94,20.86-13.1,38.96-24.46,59.33-37.26,2.28,20.74,4.2,38.26,6.08,55.39,30.04,3.25,39.4,15.85,36.49,49.32,7.45-.45,14.65-1.1,21.86-1.29,16.14-.43,32.38-1.83,48.39-.53,11.1.91,21.71,8.16,33.28,1.77.26-.14,1.08.71,2.22,1.5-1.45,2.8-2.93,5.67-4.13,8,21.71,22.64,44.59,42.01,78.18,29.05,18.44-7.11,32.74-20.02,40.6-38.69,2.75.46,7.86,3.05,10.95,1.55,22.04-10.68,44.77-11.75,68.38-7.3,3.08.58,6.72-1.71,10.1-2.68,3.09-.89,7-3.35,9.04-2.28,2.22,1.16,2.65,5.61,3.96,8.58,1.27,2.89,2,6.41,4.14,8.46,7.13,6.84,15,10.48,24.23,2.91,1.27-1.04,3.79-.59,5.74-.83,1.22,1.43,2.44,2.85,3.66,4.28-5.49,2.22-10.98,4.44-16.76,6.79,18.88,16.14,36.86,22.45,56.44,16.05,10.89-3.56,21.81-10.32,29.93-18.39,41.39-41.11,103.46-41.41,143.79.51,1.99,2.07,4,7.32,2.97,8.52-7.47,8.63-15.72,16.6-23.52,24.57-2.45-1.63-3.5-2.06-4.16-2.82-27.11-31.19-70.45-26.13-93.92-.12-35.34,39.16-95.19,39.14-134.34,3.36-31.65-28.93-62.56-28.38-93.1,1.66-38,37.37-96.97,38.11-135.86,1.77-4.36-4.07-8.76-8.34-13.83-11.39-24.23-14.57-53.15-9.77-74.27,11.98-3.98,4.1-7.57,9.43-13.64,2.76-3.28-3.59-6.43-5.4-10.49-.85-4,4.49-5.82,8.58-.35,13.41,4.49,3.96,8.5,8.44,12.73,12.68q10.79,10.84,21.95.26c25.32-24.01,58.48-23.86,83.21.53,17.26,17.02,37.88,26.58,62.2,28.5,4.87.38,9.94,1.15,14.4,2.99,8.56,3.53,17.44,12.09,24.89,10.86,7.9-1.3,14.29-11.56,21.33-17.92,1.31-1.18,2.57-2.41,3.86-3.61,6.75-6.33,13.51-12.67,22.37-20.98,5.34,23.64,10,44.27,15.32,67.82-18.92-6.39-34.08-11.5-49.24-16.62,1.64,4.3,4.4,6.61,7.43,8.49,8.99,5.58,17.91,11.32,27.2,16.38,7.04,3.83,7.31,7.56,3.03,14.09-46.26,70.57-92.25,141.32-138.27,212.04-1.55,2.38-2.71,5.01-4.05,7.52.59.59,1.18,1.19,1.77,1.78,29.62-13.19,59.23-26.38,88.85-39.56.54.64,1.07,1.29,1.61,1.93-13.61,21.32-27.22,42.64-40.83,63.96l2.36,2.29c3.1-1.22,6.27-2.3,9.29-3.68,85.87-39.01,171.71-78.08,257.59-117.06,79.1-35.91,158.28-71.65,237.37-107.6,42.74-19.43,85.31-39.22,128.05-58.65,6.63-3.01,9.19-6.29,5.94-13.72-23.41-53.69-46.38-107.56-69.86-161.22-3.41-7.8-4.83-14.12,2.42-20.4,6.11-5.29,10.12-11.18,1.62-18.18-.98-.81-.27-3.64-.34-5.53,1.91.21,4.8-.29,5.56.75,6.33,8.61,10.62,4.02,15.7-1.51,19.27-21.01,38.82-41.76,58.22-62.65,4.98-5.36,7.15-11.13,6.26-19.03-1.66-14.71-1.61-29.6-2.39-47.13,11.24,6.86,19.73,11.74,27.88,17.14,5.42,3.59,9.61,3.41,13.67-1.85,12.89-16.67,33.23-28.04,37.5-50.27,5.83-1.75,10.89-4.31,15.13-7.83,6.38-5.3,12.2-11.28,18.26-16.97ZM5.51,209.34c-.7.12-1.39.25-2.09.37,0,3.43,0,6.85,0,10.28-.02,211.6-.04,423.2-.05,634.8,0,137.21.2,274.41-.31,411.62-.05,12.38,5.12,18.63,15.57,21.09,11.61,2.73,23.62,5.26,35.47,5.28,218.11.39,436.21.39,654.32.42,3.25,0,6.51-.68,12.21-1.32-7.36-11.26-13.13-20.74-19.59-29.73-4.2-5.84-2.99-9.16,3.07-12.32,22.52-11.77,41.1-28.3,58.08-46.94,60.52-66.43,75.37-174.9,34.46-254.18-1.41-2.73-3.53-5.11-5.32-7.65-.91,7.88.21,14.71,1.27,21.55,8.42,54,2.08,105.8-25.61,153.66-38.58,66.69-96.49,105.63-174.23,111.29-95.71,6.97-172.62-47.86-212.99-128.64-10.78-21.56-10.4-22.03,7.06-39.72,11.52-11.68,23.7-22.71,32.33-30.94,18.73,16.7,37.84,33.36,56.45,50.56,5.27,4.88,8.63,5.8,13.89.16,15.12-16.23,30.95-31.81,45.97-48.12,5.86-6.36,9.62-7.08,15.88-.28,15.25,16.56,31.5,32.21,46.9,48.65,4.61,4.92,7.76,4.92,12.07.27,5.02-5.42,9.99-10.97,15.63-15.72,4.55-3.83,7.23-7.65,1.81-11.85-5.09-3.93-8.56-14.97-17.64-7.23-5.99,5.1-8.88,2.81-12.99-1.47-15.13-15.76-30.73-31.09-45.52-47.14-6.54-7.09-10.56-6.41-16.79.42-14.71,16.11-30.55,31.22-45.29,47.31-5.71,6.24-9.15,5.35-14.33-.18-14.21-15.16-28.84-29.93-43.3-44.87-10.22-10.56-9.9-10.24-20.2-.44-17.33,16.49-35.11,32.52-53.36,49.35-.41-.38-3.03-2.62-5.43-5.08-15.25-15.64-30.64-31.15-45.57-47.08-5.44-5.8-9.43-5.88-14.67,0-7.02,7.88-14.45,15.41-21.96,22.85-10.41,10.32-21.04,20.41-32.03,31.03-2.4-2.25-4.76-4.29-6.93-6.52-15.23-15.65-30.61-31.16-45.52-47.1-5.55-5.93-9.44-6.71-15.32-.24-12.32,13.54-25.03,26.76-38.18,39.5-17.06,16.52-10.9,18.77-31.36.37-10.24-9.21-9.78-11.02.07-21.13,23.11-23.71,46.44-47.22,69.18-71.28,6.38-6.75,10.42-6.01,16.23.24,14.87,15.99,30.3,31.46,45.28,47.35,5.16,5.47,8.84,6.14,14.51,0,15.03-16.31,30.98-31.78,46.19-47.93,5.42-5.76,9.24-5.79,14.67.03,14.16,15.2,28.81,29.95,43.33,44.82,1.96,2.01,4.33,3.64,7.26,6.07,1.04-3.04,1.75-4.3,1.87-5.61,4.91-52.91,23.42-100.02,59.74-139.81,1.94-2.12,2.01-8,.46-10.78-5.27-9.48-11.6-18.38-17.6-27.46-67.91-102.64-135.85-205.27-203.74-307.93-2.21-3.34-3.95-6.99-5.91-10.5.49-.86.97-1.72,1.46-2.57,91.95,20.15,183.85,40.56,275.87,60.39,91.79,19.78,183.36,40.71,276.32,57.81-10.13-19.27-21.14-36.65-32.78-53.62-1.61-2.35-6.17-3.08-9.53-3.83-39.71-8.82-79.45-17.55-119.19-26.22-134.11-29.23-268.21-58.5-402.35-87.59-30.07-6.52-60.29-12.34-90.43-18.51-10.88-2.22-11.58-4.03-4.71-12.68,6.13-7.71,12.14-15.56,18.79-22.81,5.75-6.27,5.78-11.83,1.08-18.73-13.24-19.48-26.03-39.27-39.03-58.92-20.94-31.64-41.91-63.27-62.87-94.9ZM443.6,262.3c-1.34-.06-2.67-.13-4.01-.19-2.35,5.22-5.53,10.23-6.92,15.69-7.06,27.88-7.07,56.27-3.97,84.56.96,8.79,4.66,17.63,8.72,25.65,4.49,8.88,6.17,17.28.86,25.86-4,6.47-1.3,10.45,3.69,14.2,9.07,6.82,20.96,7.02,29.56.53,9.14-6.9,13.74-20.12,8.22-29.99-14.17-25.32-13.9-52.61-11.62-79.85,2.02-24.09-12.8-39.3-24.51-56.48ZM640.47,374.19c4.3,6.46,7.31,11.16,10.5,15.73,5.32,7.65,12.85,4.01,19.28,2.63,1.19-.25,1.54-7.77.99-11.75-.76-5.5-2.39-10.96-4.28-16.22-2.58-7.17-1.84-11.87,6.71-14.07,4.29-1.1,8.03-4.26,14.8-8.04-28.7-6.12-45.49-22.69-58.75-44.74-12.01,33.45-18.24,67.91-51.36,89.34,25.58,11.48,45.06,7.58,62.11-12.88ZM466.65,216.77c20.91,19.1,32.06,42.16,43.65,64.94,10.16,19.95,22.58,38.16,42.38,49.91,3.13,1.86,10.96,2.1,11.7.64,2.57-5.05,5.82-12.65,3.72-16.67-11.16-21.4-22.81-42.71-36.42-62.63-8.7-12.73-20.08-24.22-32.18-33.91-8.21-6.58-19.79-8.37-32.86-2.28ZM967.25,591.44c1-.65,2-1.3,3-1.95-1.33-12.47-2.67-24.95-4.28-40.02-12.81,8-23.22,14.5-35.87,22.41,14.04,7.4,25.6,13.48,37.15,19.57ZM797.88,466.38c-13.58-8.19-24.42-14.73-37.19-22.43v42.18c12.75-6.77,23.61-12.54,37.19-19.75ZM1231.5,767.56c9.38,3.38,20.97,7.56,35.61,12.84-3.79-15.78-6.73-27.99-9.87-41.09-9.18,10.08-17.07,18.73-25.74,28.25ZM1845.89,444.86c-1,.5-2,1.01-3,1.51v26.27c1.09.49,2.18.98,3.26,1.47,4.73-6.03,10.38-11.66,13.42-18.44.6-1.33-8.86-7.1-13.68-10.82Z"/>
      <path class="cls-1" d="M1944.72,368.49c-6.06,5.69-11.87,11.67-18.26,16.97-4.24,3.52-9.29,6.08-15.13,7.83-4.27,22.23-24.62,33.59-37.5,50.27-4.06,5.26-8.25,5.44-13.67,1.85-8.15-5.4-16.65-10.27-27.88-17.14.78,17.52.73,32.42,2.39,47.13.89,7.9-1.28,13.67-6.26,19.03-19.4,20.89-38.95,41.64-58.22,62.65-5.08,5.53-9.37,10.13-15.7,1.51-.76-1.04-3.66-.54-5.56-.75.07,1.89-.64,4.73.34,5.53,8.5,7,4.49,12.89-1.62,18.18-7.25,6.28-5.83,12.6-2.42,20.4,23.48,53.66,46.45,107.53,69.86,161.22,3.24,7.44.68,10.71-5.94,13.72-42.74,19.43-85.31,39.22-128.05,58.65-79.08,35.95-158.26,71.69-237.37,107.6-85.88,38.98-171.72,78.06-257.59,117.06-3.03,1.38-6.19,2.46-9.29,3.68l-2.36-2.29c13.61-21.32,27.22-42.64,40.83-63.96-.54-.64-1.07-1.29-1.61-1.93-29.62,13.19-59.23,26.38-88.85,39.56-.59-.59-1.18-1.19-1.77-1.78,1.34-2.51,2.5-5.14,4.05-7.52,46.03-70.72,92.02-141.47,138.27-212.04,4.28-6.53,4.01-10.26-3.03-14.09-9.29-5.06-18.21-10.79-27.2-16.38-3.03-1.88-5.78-4.18-7.43-8.49,15.16,5.12,30.31,10.23,49.24,16.62-5.32-23.54-9.98-44.17-15.32-67.82-8.86,8.31-15.62,14.65-22.37,20.98-1.28,1.21-2.55,2.43-3.86,3.61-7.04,6.36-13.44,16.61-21.33,17.92-7.45,1.23-16.33-7.33-24.89-10.86-4.46-1.84-9.53-2.6-14.4-2.99-24.32-1.91-44.94-11.47-62.2-28.5-24.73-24.39-57.89-24.54-83.21-.53q-11.16,10.58-21.95-.26c-4.23-4.25-8.24-8.73-12.73-12.68-5.47-4.83-3.66-8.91.35-13.41,4.06-4.55,7.21-2.75,10.49.85,6.08,6.67,9.66,1.34,13.64-2.76,21.13-21.75,50.05-26.55,74.27-11.98,5.07,3.05,9.47,7.32,13.83,11.39,38.89,36.33,97.86,35.6,135.86-1.77,30.53-30.03,61.45-30.58,93.1-1.66,39.15,35.78,99,35.8,134.34-3.36,23.47-26,66.81-31.06,93.92.12.66.76,1.71,1.18,4.16,2.82,7.8-7.97,16.05-15.94,23.52-24.57,1.03-1.19-.98-6.45-2.97-8.52-40.33-41.92-102.4-41.62-143.79-.51-8.12,8.07-19.04,14.83-29.93,18.39-19.58,6.4-37.56.09-56.44-16.05,5.78-2.34,11.27-4.56,16.76-6.79-1.22-1.43-2.44-2.85-3.66-4.28-1.94.24-4.47-.22-5.74.83-9.23,7.57-17.09,3.94-24.23-2.91-2.14-2.05-2.87-5.57-4.14-8.46-1.31-2.97-1.74-7.42-3.96-8.58-2.04-1.07-5.95,1.39-9.04,2.28-3.38.97-7.01,3.26-10.1,2.68-23.61-4.45-46.34-3.38-68.38,7.3-3.09,1.5-8.2-1.09-10.95-1.55-7.86,18.67-22.15,31.57-40.6,38.69-33.59,12.95-56.47-6.41-78.18-29.05,1.2-2.33,2.68-5.2,4.13-8-1.14-.79-1.96-1.64-2.22-1.5-11.58,6.39-22.19-.86-33.28-1.77-16.01-1.31-32.25.1-48.39.53-7.21.19-14.4.83-21.86,1.29,2.91-33.47-6.45-46.07-36.49-49.32-1.88-17.14-3.81-34.65-6.08-55.39-20.37,12.79-38.47,24.16-59.33,37.26,17.37,9.06,32.09,16.75,47.8,24.94-3.58,4.16-6.46,7.5-9.99,11.59-14.84-9.08-29.22-17.87-43.6-26.66-16.26-9.94-32.64-19.7-48.67-30-2.51-1.61-3.44-5.64-5.11-8.54,3.2.73,7.32.44,9.44,2.34,17.39,15.63,17.27,15.75,32.25-1.96,2.96-3.49,6.33-6.71,8.79-10.52,1.55-2.38,1.75-5.62,2.56-8.47-1.13-.69-2.26-1.37-3.38-2.06-7.78,8.53-15.56,17.06-26.99,29.6-5.4-7.34-9.84-13.67-14.59-19.77-4.18-5.36-8.56-4.79-11.47,1.05-4.61,9.26-9.92,8.1-17.55,3.18-19.88-12.81-40.26-24.85-60.4-37.25-2.3-1.42-4.39-3.16-8.65-6.26,16.61-9.13,31.74-17.45,49.78-27.37-21.91-13.1-41.54-24.83-62.97-37.65v57.56c-6.6-3.82-11.35-6.47-16-9.28-8.47-5.1-16.44-11.25-25.4-15.25-25.45-11.38-34.25-35.75-49.26-58.46,6.67-.77,11.3-1.6,15.96-1.78,6.76-.26,8.72-3.3,6.87-9.59-2.38-8.08-4.6-16.21-6.59-24.39-.63-2.58-1.46-6.82-.17-7.88,7.58-6.23,15.07-15,23.89-16.85,22.38-4.72,37.12-17.76,48.93-35.63,3.29-4.98,6.01-10.33,9.18-15.4,7.06-11.27,18.29-12.37,26.76-1.82,5.45,6.8,9.25,14.89,13.9,22.33,2.21,3.54,3.91,8.64,7.18,10.09,13.56,6.02,7.56,13.89,2.68,23.64-9.06-7.95-17.56-15.41-26.06-22.87-.99.85-1.99,1.7-2.98,2.55,1.05,2.15,1.65,4.74,3.24,6.38,7.36,7.58,15,14.9,22.54,22.32,4.55,4.47,7.82,4.19,9.81-2.34,1.33-4.36,2.37-9.01,4.73-12.8,3.34-5.34,6.94-11.14,11.91-14.74,12.22-8.86,16.8-20.24,10.13-33.83-10.73-21.84-22.06-43.49-47.34-52.73-31.42-11.49-59.49-1.72-76.6,26.83-4.15,6.93-8.05,14.05-12.69,20.64-6.35,9.02-13.2,9.94-21.25,2.47-4.56-4.24-7.82-9.86-11.64-14.88-5.94-7.8-10.95-16.55-17.95-23.26-20.8-19.92-51.68-14.28-64.94,11.21-2.51,4.82-4.82,9.74-8.33,16.88-3.92-5.39-6.66-8.76-8.98-12.4-14.54-22.84-28.81-45.85-43.56-68.56-4.04-6.23-4.76-11.05,1.15-16.43,3.61-3.29,6.71-7.29,9.33-11.41,1.18-1.84.64-4.76.88-7.19-2.36.85-5.19,1.16-6.96,2.69-2.91,2.5-5.29,5.66-7.6,8.76-4.89,6.57-8.31,5.56-12.47-1.11-22.71-36.38-45.69-72.59-68.65-108.8-10.86-17.12-21.89-34.13-34.07-53.1-21.65,26.37-42.01,51.15-63.42,77.23-7.29-8.21-13.85-15.35-20.11-22.73-3.92-4.62-7.55-5.61-12.41-1.17-5.85,5.34-12.1,10.24-18.18,15.34.95,1.26,1.9,2.52,2.85,3.77,4.86-2.8,9.95-5.3,14.53-8.5,4.65-3.25,7.74-2.74,11.79,1.38,17.19,17.53,17.37,17.42,1.6,36.73-5.66,6.93-11.54,13.67-18.27,21.63-3.22-6.87-5.48-11.7-8.53-18.21-6.82,8.51-12.41,15.49-19.09,23.82-7.82-12.02-14.78-22.73-21.74-33.43-1.37.84-2.73,1.68-4.1,2.52,5.45,16.08,15.41,29.91,24.54,46.22,6.32-7.47,11.39-13.48,16.8-19.88,6.14,4.87,4.6,9.29.92,13.79-8.68,10.63-17.16,21.44-26.21,31.76-2.47,2.82-7.69,6.57-9.84,5.66-4.25-1.78-7.68-6.19-10.57-10.15-1.68-2.29-1.64-5.82-2.71-10.12-9.65,8.14-17.04,3.23-25.11-1.73C152.22,120.96,81.38,77.79,10.75,34.3c-3.69-2.27-6.02-6.71-10.75-12.18,12.09,0,20.18-.28,28.24.09,6.64.3,11.4-.59,10.25-8.88-1.07-7.73,3.26-9.39,10.14-9.37,60.2.13,120.39.04,180.59.02,22.85,0,45.7-.06,68.55.02,13.75.05,15.74,2.38,15.14,18.11-10.63,1.08-21.48,1.95-32.24,3.42-2.96.41-5.67,2.62-8.5,4.01,2.84,1.22,5.74,3.59,8.52,3.47,14.4-.63,28.77-1.91,44.71-3.07-1.5-6.22-2.61-11.19-3.91-16.1-1.73-6.5-.18-10.07,7.47-9.96,16.99.24,33.99-.08,50.98.26,3.13.06,6.23,2.11,9.34,3.23-.18,1.49-.36,2.98-.54,4.47-8.5.28-17,.76-25.49.79-15.57.06-15.69-.01-11.61,15.11,2.14,7.92,4.81,15.69,7.24,23.53l4.46-.75c-.65-5.23-.97-10.53-2.01-15.69-2.51-12.48-2.12-13.13,10.74-13.36,3.89-.07,7.8-.2,11.68.03,8.4.49,15.74.91,14.22-11.59-.94-7.69,6.46-5.85,10.93-5.88,32.57-.18,65.15-.12,97.72-.15,50.56-.05,101.11-.14,151.67-.17,5.17,0,10.55-1.01,12.99,6,3.43,9.89,2.37,12.1-8.21,13.39-10.63,1.3-21.25,2.65-31.88,3.98-.11,1.16-.23,2.31-.34,3.47,2.46.86,4.94,2.54,7.36,2.45,12.73-.47,25.44-1.48,38.17-2.12,6.78-.34,8.58-3.39,6.56-9.67-1.59-4.93-2.53-10.08-4.35-17.56,7.45,0,13.58,0,19.72,0,14.87.01,29.75-.25,44.61.25,3.39.11,6.69,2.85,10.03,4.38-3.5,1.45-6.94,3.93-10.53,4.15-9.41.59-18.87.2-30.59.2,4.2,14.35,7.75,26.48,11.3,38.61.91.07,1.83.13,2.74.2.91-1.81,2.75-3.71,2.57-5.4-.54-4.86-1.31-9.84-3.04-14.38-3.6-9.46,1-11.17,9.03-10.54,6,.47,12.04.43,18.01,1.1,6.62.74,10.65-1.09,9.53-8.4-1.41-9.21,3.69-10.32,11.23-10.26,63.36.45,126.73.78,190.09.92,20.42.04,40.85-.95,61.27-.62,3.85.06,9.55,3.3,11.09,6.59,4.52,9.7,2.5,11.96-8.44,12.92-10.42.91-20.84,1.98-31.98,3.04,4.3,7.21,34.81,7.55,52.86,1.91-1.45-7.53-2.93-15.19-4.73-24.59,22.14,0,42.89-.1,63.64.19,1.66.02,3.28,2.76,4.92,4.23-1.99,1.53-3.91,4.25-6,4.39-8.11.54-16.28.48-24.41.21-7.89-.27-10.21,2.55-7.55,10.16,3.15,9,5.56,18.26,8.28,27.4,1.45-.26,2.89-.52,4.34-.78-.5-4.72-.62-9.51-1.57-14.14-2.86-13.91-2.98-13.88,11.66-13.99,3.19-.02,6.38-.18,9.56-.04,8.63.38,16.77.78,15.27-12.08-.18-1.55,5.65-5.37,8.78-5.47,17.69-.56,35.4-.4,53.11-.31,46.37.24,92.74.7,139.11.82,20.52.05,41.05-.32,61.56-.91,7.09-.2,9.97,3.02,11.78,9.29,2.16,7.5-.28,10.15-7.86,10.67-11.03.77-22.01,2.42-33.01,3.69-.09,1.17-.19,2.34-.28,3.51,2.52.76,5.07,2.24,7.55,2.15,12.38-.48,24.73-1.54,37.11-2.06,6.59-.27,8.96-2.66,6.89-9.25-1.63-5.19-2.5-10.62-4.15-17.88,15.13,0,28.46,0,41.78,0,8.14,0,16.33-.41,24.41.28,3.03.26,5.84,3.13,8.75,4.81-3.1,1.49-6.12,3.98-9.33,4.27-7.38.65-14.86.45-22.28.18-6.61-.24-9.37,1.98-7.25,8.71,3,9.55,5.83,19.15,8.74,28.72,1.57-.27,3.15-.55,4.72-.82-.93-5.87-1.13-11.97-2.94-17.57-3.01-9.32.05-12.46,9.38-11.28,3.5.44,7.09.1,10.6.47,9.52,1,19.17,2.78,17.04-12.48-.18-1.28,6.63-5.06,10.22-5.09,40.72-.41,81.44-.49,122.16-.3,33.57.16,67.14.92,100.71,1.19,8.1.06,16.21-1.07,24.32-1.18,15.98-.22,16.8.71,17.82,18.69-13.6,1.56-27.33,3.14-41.07,4.72-.18.99-.37,1.99-.55,2.98,2.66,1.02,5.36,2.98,7.99,2.89,12.02-.42,24.01-1.62,36.03-2.13,7.65-.33,8.78-3.99,6.84-10.4-1.47-4.86-2.33-9.9-3.87-16.61,22.55,0,43.3-.13,64.04.22,1.85.03,3.65,3.18,5.48,4.88-2.13,1.41-4.19,3.9-6.39,4.03-8.47.5-16.99.42-25.48.21-6.22-.16-8.51,2.05-6.64,8.23,2.96,9.77,5.66,19.62,8.48,29.44,1.49-.32,2.97-.63,4.46-.95-1.2-8.53-2.41-17.06-4.01-28.42,9.82,0,18.74-.31,27.63.1,7.41.34,11.77-1.6,10.58-9.92-.86-6,2.18-8.16,7.93-8.07,17.7.27,35.42-.1,53.09.66,15.66.68,27.83,9.4,39.22,19.19v212.67c-3.16-13.61-6.13-27.26-9.6-40.79-.98-3.83-3.41-10.41-5.19-10.42-9.31-.04-18.62,1.63-27.94,2.71.15,1.77.29,3.55.44,5.32,4.92,0,9.88.44,14.74-.11,6.76-.76,10.42.83,11.61,8.36,1.86,11.76,5.24,23.27,7.46,34.98.99,5.22,3.08,7.59,8.48,6.25v126.34ZM814.34,95.82c-22.42-13.38-42.31-25.25-62.19-37.11l-3.08,1.61c1.06,21.89,2.12,43.79,3.33,68.73,21.68-11.62,40.34-21.63,61.94-33.22ZM852.65,345.96c22.38,7.8,43.01,15,66.48,23.18-6.09-25.54-11.27-47.24-16.92-70.96-17.38,16.76-32.49,31.33-49.55,47.78ZM972.68,164.86c-20.7,13-38.92,24.45-59.6,37.44,23.56,12,43.68,22.25,66.93,34.09-2.58-25.18-4.81-46.98-7.32-71.53ZM1476.23,128.49c21.15-11.39,39.68-21.38,60.71-32.71-22.09-13.18-41.86-24.97-64.3-38.35,1.28,25.39,2.36,46.75,3.59,71.07ZM1003.83,274.43c-.97-.13-1.93-.26-2.9-.39-.72.65-1.91,1.2-2.1,1.98-1.91,7.81-3.75,15.64-5.44,23.5-4.41,20.48-4.39,20.67-25.42,19.44-6.34-.37-9.28,1.4-9.06,7.99.27,8.13.06,16.27.06,27.3-10.6-10.25-18.64-18.03-26.68-25.8-.86.8-1.71,1.6-2.57,2.41.08,1.31-.36,3.03.32,3.85,9.82,11.91,19.71,23.77,29.82,35.44,1.04,1.2,4.14,2.04,5.33,1.37,1.38-.78,2.33-3.38,2.38-5.22.25-8.75.57-17.53.02-26.25-.57-8.98,1.88-13.65,11.88-11.04,1.68.44,3.57.09,5.26.51,8.95,2.22,12.04-2.26,13.06-10.29,1.37-10.76,3.49-21.42,5.07-32.15.62-4.17.66-8.42.96-12.64ZM548.93,202.39c23.54,11.93,43.65,22.11,66.48,33.68-2.56-25.29-4.77-47.07-7.22-71.23-20.91,13.25-38.81,24.59-59.26,37.55ZM1172.61,466.54c-22.39-13.38-41.94-25.07-64.27-38.41,1.15,25.26,2.14,47.1,3.25,71.41,21.57-11.67,39.7-21.47,61.02-33ZM1895.96,95.8c-22.23-13.16-41.83-24.77-64.09-37.96,1.33,24.9,2.48,46.29,3.77,70.43,20.79-11.19,38.92-20.95,60.32-32.47ZM1172.46,95.74c-22.24-13.18-41.96-24.87-64.31-38.12,1.34,25.31,2.47,46.87,3.75,71.04,21.4-11.63,39.67-21.57,60.56-32.92ZM1331.74,165.04c-20.59,12.99-38.71,24.43-59.1,37.29,23.11,11.7,43.18,21.85,65.97,33.39-2.44-25.12-4.54-46.72-6.86-70.68ZM1257.09,306.07c-17.71,16.71-32.81,30.96-49.89,47.08,22.74,7.95,42.96,15.02,66.15,23.13-5.63-24.29-10.53-45.46-16.26-70.21ZM1217.96,642.21c-22.01-13.11-41.59-24.78-61.44-36.6,0,21.87-.14,41.92.38,61.95.03,1.09,6.41,3.76,8.33,2.79,16.88-8.52,33.43-17.71,52.73-28.13ZM1272.63,572.86c23.1,11.72,43.12,21.88,66.08,33.53-2.57-25.22-4.75-46.73-7.16-70.32-20.32,12.68-38.11,23.79-58.93,36.79ZM1700.16,234.27c.93-.77,1.85-1.55,2.78-2.32-2.33-21.5-4.65-42.99-7.22-66.75-20.46,13.08-38.14,24.39-58.03,37.11,22.82,11.67,42.65,21.81,62.48,31.95ZM1291.79,331.9c-1.26,1.37-2.53,2.74-3.79,4.11,11.43,13.5,22.85,27,34.28,40.49,1.1-.49,2.21-.97,3.31-1.46,0-8.63.31-17.27-.06-25.88-.93-21.32.63-20.42,18.38-16.97,7.23,1.4,11.4-.74,12.45-8.56,1.78-13.19,4.21-26.29,6.12-39.46.32-2.19-.56-4.54-.89-6.82-1.12-.05-2.25-.1-3.37-.14-1.94,8.68-3.84,17.37-5.83,26.03-4.63,20.09-4.67,20.36-24.87,18.93-7.03-.49-9.81,1.59-9.57,8.52.27,7.78.06,15.57.06,23.36-1.06.21-2.13.43-3.19.64-7.68-7.6-15.35-15.2-23.03-22.8ZM1686.36,373.17c1.52-.57,3.04-1.13,4.55-1.7,0-11.36.31-22.73-.11-34.07-.28-7.54,2.8-10.19,10.06-9.13,3.83.56,7.88,1.53,11.54.84,2.74-.52,6.78-3.06,7.23-5.31,3.07-15.07,5.41-30.28,7.76-45.49.18-1.18-1.35-2.62-2.13-4.02-1.23.81-2.19,1.1-2.31,1.58-2.24,9.14-4.35,18.32-6.55,27.47-4.28,17.79-4.32,18.09-22.89,16.09-7.86-.85-11.19,1.25-10.71,9.37.46,7.68.1,15.4.1,23.1-1,.21-1.99.42-2.99.64-7.94-7.86-15.87-15.71-23.81-23.57-1.34,1.31-2.68,2.62-4.03,3.92,11.43,13.42,22.85,26.85,34.28,40.27ZM1625.48,299.01c-12.53,11.55-23.26,21.4-33.95,31.3-7.85,7.27-5.8,18.49,4.29,22.25,8.9,3.32,17.98,6.18,27.02,9.09,8.33,2.68,16.29-2.92,14.66-11.25-3.2-16.35-7.52-32.49-12.02-51.39ZM745.37,375.26c.68,8.12,1.12,14.23,1.73,20.32.58,5.87,1.34,11.72,2.16,18.83,23-16.78,36.8-31.27,36.52-40.55-10,8.05-18.77,15.11-29.54,23.77-1.14-13.22-1.99-23.11-2.97-34.49-5.54,2.05-9.84,3.24-13.76,5.18-9.82,4.86-19.49,10.29-27.65-2.51-.1-.16-1.23.32-2.9.77.66,2.84,1.49,5.72,2,8.66,1.63,9.4,5.99,12.66,15.27,7.69,5.19-2.78,10.98-4.46,19.14-7.67ZM1086.94,280.05c10.66-4,19.69-7.4,30.12-11.31,1.43,13.48,2.69,25.36,4,37.69,15.04-7.78,36.92-30.29,35.9-38.58-9.49,7.66-18.2,14.68-28.83,23.26-1.2-12.79-2.16-22.95-3.26-34.63-4.99,1.95-8.49,3.25-11.94,4.67-5.22,2.15-10.42,6.11-15.61,6.07-4.82-.04-9.6-4.31-16.69-7.87,2.32,7.62,4.21,13.81,6.31,20.7ZM913.18,80.56c.98-1.09,1.96-2.18,2.94-3.28-2.02-2.5-3.76-5.3-6.1-7.46-6.73-6.19-14.3-11.58-20.41-18.3-7.11-7.83-14.37-8.36-23.58-4.51-7.59,3.17-15.71,5.07-24.33,7.77-2.6-14.56,3.71-27.85-.86-41.03-2.2.99-3.32,1.21-3.36,1.57-1.89,15.18-3.82,30.36-5.22,45.59-.09.97,3.94,3.24,6.07,3.26,2.65.04,5.51-1.29,7.95-2.62,22.4-12.28,41.09-7.98,56.85,11.75,2.48,3.1,6.66,4.87,10.06,7.25ZM927.39,462.07c1.17-1.17,2.33-2.34,3.5-3.51-2.11-2.74-3.86-5.86-6.38-8.15-7.82-7.1-16.19-13.62-23.82-20.91-4.78-4.57-9.15-5.14-15.26-2.81-9.37,3.57-19.15,6.12-30.15,9.54.72-14.68,1.36-27.65,2-40.62-8.38,6.25-11.76,41.24-7.52,50.53,5.84-1.87,12.28-2.92,17.71-5.83,18.14-9.73,32.5-5.33,45.25,9.66,4.04,4.75,9.74,8.1,14.68,12.1ZM982.86,476.45c-1.78.99-3.57,1.98-5.35,2.97,6.74,15.92,16.23,30.39,25.93,46.87,6.6-8.24,11.47-14.31,16.96-21.16,8.34,11.61,7.51,26.25,18.91,34.74-2.88-17.86-7.7-34.98-15.59-53.27-7.14,8.52-13,15.51-19.69,23.49-7.67-12.2-14.42-22.92-21.17-33.65ZM1492.23,291.48c-.62-8.44-1.01-13.6-1.37-18.77-1.15-16.57-1.21-16.71-16.56-10.35-9.18,3.81-18.37,10.18-25.6-2.8-.09-.16-1.22.24-3.64.76,2.09,6.44,4.11,12.7,6.42,19.85,7.12-2.86,12.6-5.06,18.1-7.26,12.54-5.02,13.04-4.69,13.88,9.19.49,8.04.96,16.08,1.44,24.11,1.01.24,2.02.49,3.02.73,11.57-12.04,25.74-21.61,35.89-35-1-1.11-2.01-2.22-3.01-3.32-8.75,7-17.5,14-28.58,22.87ZM1883.26,273.45c-.93-1.53-1.85-3.06-2.78-4.59-9.11,6.89-18.22,13.79-28.88,21.86-1.26-12.38-2.3-22.52-3.48-34.08-5.14,2.06-8.6,3.55-12.14,4.85-10.06,3.68-20.54,14.02-29.36-4.63-.7,1.2-1.39,2.4-2.09,3.6,2.08,6.42,4.15,12.85,6.3,19.49,10.5-4.08,19.25-7.47,30.14-11.7,1.19,13.74,2.22,25.67,3.5,40.56,14.34-13.07,26.56-24.21,38.78-35.35ZM722.8,223.49c14.35-4.48,25.98-7.42,37.03-11.8,7.53-2.98,12.5-1.33,17.86,3.94,6.77,6.66,14.03,12.85,21.43,18.83,1.69,1.37,4.78,1.04,7.22,1.49-.79-2.34-.88-5.4-2.48-6.9-7.68-7.25-16.09-13.75-23.6-21.16-5.94-5.86-11.48-7.92-19.75-4.39-8.74,3.73-18.21,5.79-28.86,9.04,1.11-15.07,2.03-27.61,2.95-40.15-1.67-.16-3.34-.33-5.01-.49-5.52,15.84-3.41,32.85-6.8,51.6ZM188.51,80.86c1.24-.93,2.49-1.87,3.73-2.8-1.81-2.75-3.18-5.95-5.52-8.15-6.93-6.5-14.71-12.15-21.26-18.97-6.64-6.91-13.42-7.58-21.92-4.22-8,3.17-16.38,5.38-25.58,8.32-2.57-14.58,3.86-27.9-.26-40.52-1.67-.07-3.33-.14-5-.2-1.44,16.42-2.88,32.84-4.53,51.72,13.94-4.42,25.35-7.68,36.48-11.7,6.76-2.44,11.82-1.79,17.19,3.35,8.49,8.13,17.73,15.49,26.66,23.17ZM886.13,176.62c-1.66.96-3.31,1.93-4.97,2.89-4.89-6.42-9.59-13.01-14.75-19.21-3.2-3.86-6.66-4.74-10.05.53-7.58,11.8-15.62,23.31-23.18,35.12-1.07,1.68-.54,4.37-.74,6.59,1.1.45,2.21.89,3.31,1.34,8.59-11.46,17.19-22.93,26.28-35.05,8.5,7.65,15.69,14.13,23.85,21.48,8.59-10.18,16.66-19.37,24.19-28.97,1.41-1.79.72-5.21.99-7.88-2.34.88-5.36,1.12-6.9,2.74-6.26,6.58-12.07,13.58-18.04,20.43ZM489.47,62.63c.89-10.26,1.96-17.8,2.06-25.35.06-5.05-1.25-10.11-1.95-15.17-1.64,4.81-4.12,9.5-4.76,14.44-1.51,11.49-2.14,23.08-3.3,36.65,13.32-4.3,24.04-7.44,34.51-11.26,7.65-2.79,13.91-2.82,20.03,3.65,6,6.35,12.95,11.85,19.73,17.42,2.3,1.89,5.37,2.84,8.08,4.23l2.04-2.48c-1.72-2.23-3.17-4.75-5.22-6.63-7.75-7.13-16-13.76-23.47-21.15-5.18-5.13-10.35-6.33-17.15-3.95-9.19,3.22-18.58,5.87-30.57,9.6ZM1024.49,114.97c-7.75,9.5-13.58,16.65-20.14,24.69-7.83-12.01-14.87-22.8-22.97-35.21-2.46,9.98,14.74,42.52,23.73,48.58,4.86-6.01,9.76-12.08,16.05-19.86,5.39,13.84,9.94,25.52,14.49,37.2,1.78-.65,3.56-1.31,5.34-1.96-5.22-16.89-10.44-33.79-16.51-53.45ZM656.56,133.04c5.54,13.94,10.16,25.58,15.39,38.75,4.53-8.54-2.99-36.9-13.24-55.21-6.14,7.58-11.87,14.65-18.61,22.96-4.46-6.59-8.12-11.99-11.76-17.4-3.45-5.14-6.88-10.3-10.31-15.44-3.16,9.31,14.25,40.72,22.92,46.18,4.66-5.92,9.36-11.89,15.61-19.83ZM1008.18,230.31c12.18-3.82,23.72-6.84,34.77-11.13,7.07-2.74,11.88-1.38,17.03,3.58,7.08,6.83,14.59,13.25,22.25,19.43,1.61,1.3,4.68.83,7.07,1.17-.81-2.03-1.07-4.66-2.53-6.01-8.26-7.64-17.15-14.64-25.14-22.54-5.18-5.12-9.86-6.55-16.9-3.78-9.33,3.67-19.17,6.1-30.33,9.53.97-14.79,1.81-27.61,2.78-42.38-7.49,6.02-11.77,35.67-9,52.12ZM1205.06,72.63c7.95-2.31,14.33-3.13,19.67-5.91,17.96-9.33,33.27-8.23,46.09,8.75,2.68,3.55,6.75,6.16,10.48,8.78,1.88,1.32,4.43,1.71,6.68,2.52.52-.78,1.03-1.57,1.55-2.35-1.88-2.27-3.52-4.81-5.7-6.77-7.84-7.05-16.16-13.6-23.71-20.93-5.3-5.15-10.46-5.84-17.2-3.34-9.12,3.38-18.54,5.96-29.05,9.26,0-5.78-.26-9.87.06-13.92.54-6.97,1.7-13.91,1.99-20.89.07-1.73-2.16-3.55-3.33-5.33-1.11,1.12-3.08,2.16-3.21,3.38-1.53,14.84-2.8,29.71-4.33,46.74ZM1595.76,303.16c-.33-1.4-.66-2.79-.99-4.19-3.27.23-6.61.15-9.81.75-7.97,1.49-15.82,3.89-23.85,4.82-10.46,1.2-16.32,6.15-18.91,16.39-2.18,8.61-5.93,16.84-9.6,26.93-11.01-10.22-20.37-18.92-29.74-27.62-1.34,1.43-2.67,2.86-4.01,4.29,11.52,11.41,23.04,22.81,36.19,35.83,2.96-7.75,4.8-12.22,6.39-16.78q10.65-30.49,42.36-36.66c4.08-.8,7.98-2.49,11.97-3.76ZM1341.72,106.56c-1.53.84-3.05,1.68-4.58,2.52,6.37,15.7,16.33,29.53,25.43,46.05,6.43-8.04,11.44-14.31,17.66-22.08,5.5,13.76,10.12,25.34,14.75,36.92l4.36-1.61c-3.26-17.51-9.81-34.09-16.36-53-7.06,9-12.73,16.23-19.45,24.8-7.96-12.26-14.88-22.93-21.81-33.59ZM1635.29,80.46c1.15-.82,2.3-1.64,3.45-2.46-1.56-2.49-2.68-5.46-4.76-7.4-7.47-6.96-15.54-13.3-22.86-20.4-5.85-5.66-11.59-6.46-19.14-3.47-8.57,3.4-17.67,5.5-27.6,8.48V15.22l-4.27-.13c-1.45,16.13-2.89,32.27-4.53,50.51,13.08-4.16,23.66-6.82,33.64-10.9,8.79-3.59,15.23-2.16,21.84,4.39,7.63,7.57,16.12,14.28,24.23,21.36ZM1759.17,540.5c1.83-.71,3.66-1.41,5.48-2.12-5.34-16.52-10.68-33.04-16.8-51.96-7.64,9.3-13.45,16.37-20.06,24.42-7.92-12.21-14.8-22.83-21.69-33.45-1.7,1.08-3.39,2.15-5.09,3.23,8.4,14.53,16.79,29.06,25.91,44.84,6.63-8.08,11.58-14.12,17.87-21.79,5.33,13.67,9.85,25.25,14.37,36.83ZM1395.01,540.2c1.66-.62,3.32-1.25,4.98-1.87-5.15-16.5-10.31-33-16.24-51.98-7.59,8.99-13.51,15.99-20.24,23.96-7.92-11.66-15.1-22.23-22.28-32.8-1.57.98-3.14,1.97-4.71,2.95,8.41,14.6,16.82,29.2,25.98,45.1,6.47-7.91,11.43-13.97,17.65-21.57,5.49,13.38,10.18,24.79,14.86,36.2ZM1729.73,230.03c5.22-1.21,8.22-1.25,10.51-2.54,25.15-14.18,46.2-9.52,63.85,12.9,1.72,2.19,5.11,3.08,7.72,4.58.74-.88,1.48-1.77,2.22-2.65-2.02-2.4-3.8-5.07-6.1-7.17-7.29-6.6-15.09-12.68-22.1-19.55-5.66-5.55-10.9-7.31-18.76-4.01-9.06,3.8-18.85,5.88-28.95,8.89-.97-14.96,4.27-27.77,1.34-40.42-1.56-.1-3.12-.2-4.67-.29-1.62,16.11-3.24,32.22-5.05,50.28ZM1447.04,222.22c6.96-1.8,11.67-2.16,15.51-4.17,21.07-10.99,39.13-9.08,54.13,10.61,2.82,3.71,7.53,6,11.37,8.95.91-.91,1.81-1.82,2.72-2.74-1.78-2.49-3.19-5.35-5.39-7.38-6.98-6.43-14.72-12.11-21.28-18.92-6.21-6.45-12.13-8.04-20.64-4.51-8.74,3.62-18.15,5.63-27.88,8.53-1.63-14.92,4.77-27.71.71-40.23l-4.3-.27c-1.56,15.84-3.13,31.68-4.95,50.13ZM1082.48,421.64c1.63-.4,3.27-.8,4.9-1.19-1.1-6.36-1.88-12.79-3.38-19.05-1.53-6.36.27-9.38,7.11-9.24,7.06.15,14.13-.12,21.18.02,6.02.12,9.41-1.86,8.8-8.54-1.05-11.5-1.69-23.03-2.78-34.53-.21-2.28-1.63-4.45-2.49-6.67-1.08.17-2.15.34-3.23.51,0,9.27-.63,18.59.17,27.78.9,10.42-3.42,13.8-13.36,12.9-6.66-.6-13.45-.55-20.1.07-2.36.22-6.63,3.52-6.38,4.54,2.77,11.23,6.25,22.29,9.54,33.4ZM1213.31,390.95c-2.04-.14-4.08-.27-6.12-.41-1.45,16.11-2.9,32.22-4.58,50.87,13.86-4.45,25.22-7.76,36.32-11.78,6.75-2.44,11.99-1.84,17.23,3.39,6.45,6.44,13.46,12.36,20.49,18.19,2.23,1.85,5.3,2.72,7.98,4.04.62-.86,1.25-1.71,1.87-2.57-2.37-2.74-4.5-5.73-7.14-8.17-6.71-6.2-13.97-11.84-20.41-18.29-6.05-6.05-12.22-7.03-20.1-3.96-8.66,3.36-17.69,5.76-28.18,9.09.97-14.86,1.8-27.64,2.64-40.41ZM1178.66,286.66c-1.44.04-2.89.09-4.33.13-.58,2.75-1.96,5.62-1.58,8.23.97,6.56,2.49,13.07,4.26,19.46,1.64,5.91.18,9.21-6.17,10.71-7.72,1.82-20.25,2.7-21.71,6.99-2.21,6.51,3.11,15.68,5.61,23.6,2.64,8.39,5.72,16.64,8.61,24.95,1.54-.45,3.08-.89,4.63-1.34-1.66-7.25-3.06-14.57-5.02-21.73-5.64-20.66-5.67-20.44,14.55-26,3.38-.93,8.86-4.78,8.6-6.64-1.78-12.88-4.83-25.6-7.47-38.36ZM1237.44,186.67c-6.53-6.19-12.14-11.38-17.6-16.72-4.24-4.14-7.66-5.61-11.61.72-6.68,10.7-14.11,20.93-20.96,31.53-1.38,2.13-1.6,5-2.35,7.53,1.08.55,2.16,1.1,3.25,1.66,8.6-11.47,17.2-22.95,26.22-34.98,8.34,7.51,15.56,14.01,23.85,21.47,8.65-10.15,16.66-19.32,24.33-28.76,1.21-1.5.87-4.23,1.25-6.39-2.35.64-5.47.54-6.91,2.04-6.48,6.75-12.48,13.94-19.46,21.91ZM162.1,109.24c-.73.94-1.46,1.89-2.19,2.83.61,1.48.79,3.64,1.9,4.34,12.21,7.69,24.45,15.36,37.05,22.4,1.41.79,6.5-1.73,7.39-3.77,3.05-7.03,5.59-14.4,7.21-21.88,1.92-8.89,6.28-12.55,15.51-10.48,3.26.73,6.83.12,10.26.12.18-1.3.35-2.61.53-3.91-6.8-2.07-13.5-4.85-20.46-5.87-2.85-.42-7.79,2.19-9.12,4.77-2.85,5.51-3.84,11.95-5.82,17.93-4.43,13.37-4.46,13.3-16.73,6.76-8.46-4.51-17.01-8.83-25.53-13.24ZM923.44,128.71c-13.88-7.17-26.01-13.44-40.21-20.78.74,4.75.42,7.21,1.31,7.77,12.77,8.09,25.61,16.08,38.74,23.56,1.08.62,5.66-2.11,6.44-4.12,3.31-8.46,5.96-17.19,8.54-25.91,1.66-5.62,4.6-7.99,10.81-6.89,4.41.78,9.07.15,13.62.15.19-1.17.37-2.34.56-3.5-6.45-1.96-13.02-3.65-19.33-5.98-6.06-2.24-9.12-.58-10.87,5.59-2.73,9.67-6.09,19.17-9.63,30.11ZM1759.09,169.98c1.78-.65,3.56-1.29,5.34-1.94-5.25-16.7-10.5-33.4-16.45-52.31-7.88,9.37-13.76,16.35-20.3,24.13-7.95-12.2-14.78-22.69-21.61-33.17-1.59.98-3.19,1.95-4.78,2.93,8.2,14.61,16.41,29.22,25.36,45.16,6.51-7.84,11.54-13.89,18.11-21.81,5.31,13.71,9.82,25.36,14.33,37.01ZM1456.22,371.9c6.58,6.3,12.28,11.41,17.55,16.92,3.89,4.07,7.09,5.08,11.35.43,7.36-8.03,15.16-15.66,22.57-23.65,1.51-1.62,2.08-4.1,3.47-6.98-3,0-4.42-.44-4.99.07-5.25,4.67-10.41,9.43-15.47,14.29-11.16,10.72-11.08,10.69-21.87.2-4.21-4.09-8.72-7.89-14.11-12.73-10.87,14.9-21.14,28.68-29.24,43.78,1.37.96,2.74,1.91,4.11,2.87,8.44-11.16,16.89-22.32,26.63-35.19ZM1184.46,571.53c1.58,1.22,3.15,2.45,4.73,3.67,8.48-11.41,16.97-22.83,26.35-35.44,6.46,6.06,12.2,11.06,17.45,16.51,4.25,4.42,7.65,5.19,12.17.22,7.08-7.78,14.81-14.97,21.97-22.69,1.63-1.75,2.06-4.6,3.04-6.95-1.01-.7-2.03-1.4-3.04-2.11-6.97,6.63-14.26,12.96-20.8,19.99-4.93,5.3-8.72,5.79-13.84.36-5.42-5.75-11.55-10.84-18.55-17.31-10.36,15.38-19.92,29.57-29.47,43.75ZM1057.01,348.71c-.6-1.38-1.2-2.76-1.8-4.14-6.44,2.18-12.86,4.43-19.32,6.53-5.35,1.74-7.5,4.89-5.33,10.4.77,1.95,1.2,4.04,1.72,6.08q6.47,24.95-18.97,27.77c-5.81.66-11.56,1.89-17.34,2.85,1.47,3.71,2.63,5.11,3.74,5.07,14.48-.51,28.98-.95,43.39-2.27,1.65-.15,4.34-5.79,3.91-8.48-1.19-7.58-3.37-15.08-5.89-22.36-2.65-7.67-1.21-12.77,6.84-15.81,3.26-1.23,6.04-3.72,9.04-5.63ZM1841.3,343.2c-1.64.07-3.28.13-4.93.2,0,10.16-.28,20.33.1,30.47.27,7.24-2.6,10.24-9.9,9.93-7.75-.33-15.55-.48-23.28.09-2.37.18-6.71,3.48-6.47,4.51,2.61,11.25,5.95,22.33,9.09,33.46,1.43-.28,2.87-.57,4.3-.85-.56-5.21-.77-10.49-1.74-15.62-2.5-13.27-2.62-13.26,11.18-13.46q25.55-.37,23.59-25.89c-.59-7.62-1.3-15.23-1.96-22.85ZM1900.21,287c-1.31.37-2.62.74-3.93,1.11.49,4.49.74,9.03,1.53,13.47,3.84,21.63,3.98,22.05-17.16,26.04-9.34,1.76-10.59,5.4-7.36,13.53,3.88,9.73,6.55,19.93,9.97,29.85,1.14,3.29,3,6.33,4.52,9.48,1.09-.34,2.17-.67,3.26-1.01-.39-3.1-.43-6.29-1.23-9.29-2.27-8.45-4.64-16.88-7.37-25.18-2.09-6.34-.7-9.6,6.35-11.2,22.01-4.98,21.95-5.19,17.45-27.71-.82-4.12-1.32-8.32-2.46-12.34-.68-2.39-2.35-4.5-3.57-6.73ZM1609.25,189.67c9.11-10.74,17.32-20.24,25.23-29.97.92-1.13.2-3.57.24-5.41-1.85.21-3.93-.01-5.5.77-1.45.72-2.32,2.56-3.52,3.84-5.48,5.85-10.52,15.64-16.62,16.34-5.54.64-12.59-8.24-18.32-13.62-4.92-4.61-7.98-4.31-11.58,1.27-6.83,10.6-14.15,20.89-21.03,31.45-1.22,1.87-1.33,4.44-1.95,6.69,1.1.59,2.2,1.18,3.31,1.77,8.54-11.37,17.07-22.74,26.08-34.73,8.35,7.62,15.29,13.96,23.67,21.61ZM1355.42,397.56c.08,1.17.15,2.34.23,3.51.8.6,1.62,1.74,2.4,1.72,14.46-.4,28.93-.78,43.38-1.54,6.15-.32,6.07-4.48,4.73-9.15-2.31-8.08-4.08-16.33-6.71-24.3-2.04-6.17-.7-9.81,5.48-12.42,4.03-1.7,7.47-4.77,11.17-7.22-.57-1.06-1.14-2.12-1.71-3.18-4.49,1.36-8.93,2.93-13.48,4.04-10.16,2.47-14.49,7.47-9.57,18.03,2.04,4.37,2.16,9.59,3.88,14.15,3.39,9,.82,12.79-9.1,13.14-10.26.36-20.47,2.08-30.7,3.21ZM1717.71,398.98c3.62,2.64,4.46,3.79,5.27,3.77,14.47-.44,28.96-.75,43.38-1.96,1.63-.14,4.38-5.76,3.92-8.37-1.51-8.6-4.23-16.99-6.55-25.45-1.51-5.51-.41-9.27,5.66-11.52,4.05-1.5,7.49-4.61,11.2-6.99-.66-1.29-1.33-2.58-1.99-3.88-6.35,2.33-12.62,4.93-19.09,6.89-5.86,1.78-6.64,5.06-4.92,10.38,2.15,6.66,3.32,13.64,5.52,20.29,2.61,7.91.96,12.04-8.22,12.03-5.28,0-10.57.87-15.82,1.61-5.22.73-10.4,1.79-18.35,3.19ZM1609.17,109.52c-1.01,1.51-2.02,3.02-3.03,4.53,14.39,8.91,28.78,17.83,44.91,27.82,3.7-11.58,7.22-21,9.65-30.68,1.91-7.61,5.64-10.53,13.51-8.99,3.69.73,7.65.12,11.49.12.18-1,.37-2,.55-3-4.1-1.46-8.12-3.25-12.33-4.33-14.5-3.75-14.5-3.65-18.99,10.28-2.43,7.53-4.98,15.02-7.92,23.87-13.48-6.99-25.66-13.31-37.84-19.62ZM871.74,277.86c1.53.83,3.07,1.66,4.6,2.48,8.08-10.02,6.47-24.84,14.51-36.03,12.27,6.18,24.25,12.22,36.23,18.25.97-1.76,1.94-3.52,2.92-5.27-14.65-9.07-29.3-18.14-45.94-28.44-4.47,17.76-8.39,33.38-12.32,49.01ZM508.79,140.9c.86,1,1.72,1.99,2.58,2.99,2.74-1.59,5.68-2.92,8.2-4.8,7.31-5.45,14.61-10.95,21.63-16.77,4.86-4.03,9.3-4.92,15.36-2.03,9.18,4.39,18.82,7.87,28.41,11.33,1.86.67,4.41-.52,6.64-.85-.64-1.75-.83-4.59-2-5.07-13.32-5.48-26.5-13.3-40.33-14.73-7.43-.77-16.1,9.49-24.08,14.95-4.05,2.77-7.97,5.78-11.67,8.99-1.89,1.64-3.17,3.96-4.72,5.97ZM1089.16,583.35c-5.02-1.21-7.77-2.81-9.65-2.12-3.18,1.17-6.21,3.43-8.61,5.89-6.1,6.24-10.67,4.26-15.57-1.59-6.96-8.32-14.17-16.46-21.73-24.25-1.95-2.01-5.6-2.41-8.47-3.55.97,2.95,1.23,6.47,3.05,8.76,6.11,7.65,12.79,14.86,19.25,22.23q14.02,15.99,31.41,3.15c2.72-2.02,5.24-4.31,10.31-8.52ZM1243.38,229.51c-4.44,17.78-8.34,33.42-12.25,49.07,1.8.55,3.6,1.09,5.4,1.64,3.9-12.13,7.81-24.26,11.81-36.68,14.42,3.27,24.03,15.93,38.18,17.6.71-1.27,1.43-2.55,2.14-3.82-14.29-8.78-28.58-17.55-45.28-27.81ZM1082.38,474.12c-1.51-2.04-2.63-3.78-3.97-5.34-6.42-7.47-12.91-14.88-19.37-22.32-15.99-18.38-16.85-18.5-34.9-1.66-1.81,1.69-1.98,5.11-2.91,7.73,2.48-.26,5.1-.13,7.4-.9,1.92-.64,3.63-2.18,5.16-3.61,7-6.53,12.35-5.47,18.13,2.21,6.53,8.69,14.2,16.55,21.65,24.52,1.4,1.5,4.08,2.03,6.28,2.46.57.11,1.55-1.84,2.54-3.09ZM1475.69,487.08c1.19,0,2.39.02,3.58.03,9.98-12.28-.69-28.4,6.09-41.36,6.17,2.39,11.73,4.54,17.3,6.7.7-1.56,1.4-3.12,2.1-4.67-9.69-5.79-19.37-11.58-29.06-17.37-.92.76-1.84,1.51-2.76,2.27.92,18.14,1.83,36.27,2.75,54.41ZM1187.16,254.5c.98-1.36,1.96-2.72,2.93-4.07-12.03-10.35-23.97-20.82-36.24-30.88-1.38-1.13-4.86-.46-7.09.24-12.1,3.77-24.15,7.69-36.1,11.88-1.7.6-2.79,2.91-4.17,4.44,3.71,1.82,6.35,1.8,8.76,1.06,8.74-2.69,17.48-5.39,26.06-8.53,6.61-2.42,11.98-2.01,17.27,3.24,6.46,6.41,13.54,12.23,20.56,18.06,2.33,1.93,5.32,3.07,8.01,4.57ZM1595.82,278.33c1.43.44,2.85.89,4.28,1.33,1.14-2.22,2.61-4.33,3.37-6.67,2.38-7.34,4.76-14.7,6.62-22.18,1.69-6.8,5.03-7.51,10.69-4.21,7.32,4.26,14.77,8.29,22.32,12.15,2.36,1.2,5.18,1.51,7.79,2.23.66-1.41,1.33-2.82,1.99-4.22-14.51-8.66-29.03-17.32-45.25-27-4.35,17.88-8.07,33.22-11.8,48.56ZM1232.72,140.93c.87.92,1.74,1.83,2.62,2.75,2.54-1.52,5.25-2.83,7.6-4.61,7.31-5.52,14.64-11.04,21.67-16.91,4.86-4.06,9.36-5.03,15.42-2.17,8.6,4.06,17.61,7.34,26.61,10.47,2.51.87,5.63.04,8.47,0-1.81-2-3.23-4.87-5.49-5.88-40.44-17.99-40.91-17.9-72.35,10.56-1.8,1.63-3.05,3.84-4.55,5.79ZM1021.39,84c5.16-3.2,8.94-5.02,12.07-7.59,7.23-5.95,12.63-5.25,18.39,2.47,6.29,8.43,13.64,16.11,20.91,23.76,2,2.11,5.35,2.96,8.08,4.39.79-1.11,1.57-2.21,2.36-3.32-11.87-13.69-23.72-27.4-35.68-41.02-.84-.95-2.39-1.65-3.68-1.79-5.02-.53-21.07,14.69-22.45,23.11ZM1830.41,234.44c.6,1.59,1.19,3.18,1.79,4.77,6.39-2.12,13.07-3.64,19.12-6.48,15.71-7.39,29.38-6.96,40.92,7.65,3.43,4.35,8.04,7.86,12.47,11.31,1.68,1.31,4.34,1.38,6.55,2.01,1.4-1.78,2.79-3.56,4.19-5.34-4.21-2.42-9.73-3.86-12.41-7.41-17.4-23.08-38.38-24.54-62.34-11.49-3.34,1.82-6.85,3.33-10.29,4.99ZM1744.6,456.22c6.56-4.37,10.64-6.51,14.01-9.46,6.07-5.31,10.61-4.81,15.7,1.6,6.95,8.76,14.54,17.04,22.24,25.16,1.69,1.79,5,2.08,7.56,3.06-.66-2.4-.63-5.36-2.09-7.11-9.41-11.29-19-22.44-28.88-33.33-1.79-1.97-6.25-4.29-7.62-3.45-7.15,4.35-13.85,9.5-20.33,14.81-1.08.88-.35,3.94-.59,8.71ZM1027.79,309.76c1.61.77,3.22,1.55,4.83,2.32,3.12-6.16,6.52-12.21,9.29-18.53,2.51-5.72,5.48-7.44,11.24-3.76,6.49,4.15,13.27,7.92,20.19,11.34,1.97.97,4.85.14,7.31.13-1.01-1.94-1.5-4.69-3.11-5.7-11.49-7.26-23.2-14.18-36.61-22.27-4.68,12.98-8.91,24.72-13.14,36.47ZM1803.94,107.01c.85-1.03,1.7-2.06,2.55-3.08-9.63-11.27-19.22-22.58-28.9-33.81-9.47-11-9.59-11.08-21.13-2.03-4.4,3.45-8.33,7.48-12.48,11.25.89,1.04,1.79,2.09,2.68,3.13,3.74-2.21,7.86-3.97,11.14-6.72,6.55-5.46,11.38-4.69,16.67,1.98,6.72,8.49,14.17,16.43,21.61,24.33,2.05,2.18,5.21,3.33,7.86,4.95ZM1804.38,304.97c-2.92-9.87-25.28-25.08-40.62-29.87-4.12,11.79-8.25,23.63-12.38,35.47,1.57.63,3.14,1.26,4.71,1.89,2.89-6.06,6.03-12.01,8.61-18.2,2.72-6.52,6.01-8.65,12.75-4.32,7.82,5.02,16.24,9.12,26.93,15.03ZM1406.69,596.97c-4.79-3.16-9.21-5.16-12.38-8.37-7.16-7.26-13.46-15.35-20.63-22.6-2.46-2.48-6.47-3.46-9.78-5.12,1.3,3.18,1.93,6.91,4.03,9.44,8.06,9.76,16.58,19.14,24.96,28.65,7.28,8.26,9.16,7.88,13.8-1.99ZM698.52,89.42c1.25-.65,2.51-1.3,3.76-1.95-2.12-3.66-3.7-7.79-6.45-10.91-17.07-19.32-19.93-19.32-37.93-.64-1.25,1.29-1.35,3.68-2.6,7.39,9.59-4.12,17.68-10.8,24.21-9.54,7.09,1.36,12.73,10.12,19.01,15.65ZM900.58,465.49c-1.61-.35-3.22-.7-4.83-1.05-3.46,8.98-7.02,17.92-10.24,26.99-.45,1.28.45,4.35,1.21,4.53,9.76,2.29,19.61,4.21,29.43,6.22.46-1.75.91-3.5,1.37-5.25-4.55-1.62-9.04-3.46-13.67-4.81-6.14-1.79-8.9-4.68-6.39-11.49,1.76-4.78,2.13-10.07,3.13-15.14ZM964.36,405.08c-.62-1.5-1.25-3-1.87-4.5-9.37,2.78-18.77,5.44-28.05,8.48-1.1.36-2.54,3.17-2.13,4.1,4.05,9.07,8.46,17.98,12.77,26.93,1.47-.58,2.94-1.16,4.41-1.74-1.14-4.42-1.81-9.03-3.54-13.21-3.05-7.39-1.38-11.67,6.66-13.97,4.16-1.19,7.84-4.01,11.74-6.09ZM1422.82,89.16c1.27-1.24,2.54-2.47,3.81-3.71-7.27-7.94-14.41-16.01-22.01-23.63-.83-.84-4.61.37-6.44,1.52-3.86,2.44-7.5,5.29-10.94,8.31-2.88,2.53-5.34,5.54-7.98,8.34.92.95,1.84,1.89,2.77,2.84,2.85-1.72,6.05-3.05,8.49-5.23,7.53-6.71,14-6.42,20.64,1.43,3.28,3.88,7.74,6.78,11.66,10.12ZM240.38,34.12c-.5-1.32-1-2.65-1.5-3.97-9.39,2.67-18.8,5.26-28.13,8.12-.94.29-1.76,2.13-1.97,3.37-.78,4.45,11.22,23.95,17.41,26.55-1.44-4.87-2.27-8.76-3.73-12.41-3.12-7.78-2.4-13.24,7.08-15.68,3.88-1,7.25-3.92,10.85-5.97ZM585.09,70.38c-.85-5.46-.94-8.08-1.68-10.5-4.55-14.77-4.56-14.66,8.74-21.43,2.62-1.33,4.74-3.64,7.09-5.5-.49-.88-.98-1.75-1.47-2.63-5.26,1.3-10.52,2.56-15.76,3.92q-16.28,4.2-9.51,19.07c1.74,3.81,3.22,7.76,5.34,11.35,1,1.68,3.23,2.64,7.25,5.73ZM806.33,125.24c.53.81,1.07,1.63,1.6,2.44,7.48-2.33,15.27-7.12,22.37-6.27,6.61.8,12.49,7.6,19.28,12.16-1.08-19.4-11.94-26.61-27.29-19.28-4.14,1.98-8.37,3.83-12.27,6.19-1.61.97-2.48,3.14-3.69,4.76ZM963.68,34.36c-.61-1.41-1.22-2.82-1.83-4.23-8.68,2.46-17.42,4.71-25.96,7.56-1.63.55-3.89,4.13-3.4,5.24,3.96,8.89,8.5,17.51,12.87,26.22,1.3-.55,2.6-1.11,3.89-1.66-1.22-4.44-2.03-9.05-3.74-13.3-2.77-6.87-1.66-11.19,6.1-13.55,4.27-1.3,8.06-4.14,12.07-6.28ZM1093.84,561.68c1.49-.67,2.98-1.33,4.47-2-1.11-3.82-1.71-7.88-3.42-11.41-3.91-8.09-2.27-13.03,6.83-15.62,3.79-1.08,7.11-3.8,10.64-5.78-.59-1.35-1.17-2.69-1.76-4.04-9.99,2.89-19.98,5.78-31.49,9.11,5.56,11.24,10.14,20.49,14.72,29.75ZM1322.46,34c-.49-1.17-.99-2.33-1.48-3.5-6.66,1.75-13.26,3.84-20.01,5.16-9.84,1.93-11.02,6.69-6.18,14.69,2.52,4.17,3.88,9.02,6.24,13.31,1.08,1.95,3.32,3.26,5.03,4.86.83-.53,1.65-1.06,2.48-1.59-1.22-4.15-2-8.48-3.75-12.4-3.32-7.44-1.31-11.74,6.46-14.35,3.98-1.34,7.49-4.07,11.21-6.18ZM1304.35,439.63c1.38-.52,2.76-1.04,4.14-1.56-1.22-4.31-1.9-8.87-3.77-12.88-3.5-7.51-1.57-11.72,6.37-14.21,4.04-1.27,7.66-3.89,11.47-5.89-.64-1.37-1.28-2.75-1.91-4.12-9.81,2.9-19.63,5.79-31.1,9.18,5.53,11.02,10.17,20.25,14.81,29.48ZM1408.1,248.18c.37-1.43.73-2.86,1.1-4.28-4.01-1.58-7.89-3.83-12.05-4.6-8.23-1.54-9.26-5.91-6.9-12.9,1.46-4.32,1.99-8.96,2.93-13.45-1.42-.46-2.84-.93-4.27-1.39-3.89,9.78-7.79,19.57-12.47,31.34,12.03,2.01,21.84,3.65,31.65,5.3ZM848.19,504.88c1.57-7.56-6.7-23.56-12.01-24.56-4.61-.86-25.69,10.76-30.16,18.05,5.74-1.59,9.98-2.27,13.78-3.92,9.38-4.08,17.47-5,22.8,6.04.87,1.8,3.47,2.78,5.6,4.39ZM1241.65,497.12c.8-.58,1.6-1.15,2.4-1.73-3.07-5.53-5.92-11.2-9.33-16.52-1.38-2.15-4.72-5.43-5.92-4.97-10.01,3.82-19.72,8.38-29.52,12.72.54,1.29,1.08,2.59,1.63,3.88,3.82-.91,7.93-1.23,11.42-2.85,9.79-4.54,18.12-5.31,23.89,5.95.85,1.66,3.58,2.37,5.43,3.51ZM1912.94,41.23c-2.34,11.86-4.35,22.04-6.36,32.23,1.1.42,2.2.84,3.3,1.26,1.52-3.32,3.53-6.5,4.46-9.97,2.26-8.45,6.02-12.91,15.59-8.54,3.36,1.54,7.54,1.32,11.35,1.9.36-1.14.72-2.28,1.07-3.43-9.13-4.18-18.27-8.36-29.42-13.46ZM1371.28,451.22c.59,1.37,1.19,2.73,1.78,4.1,4.44-1.3,9.17-2.03,13.25-4.03,8.96-4.4,15.89-3.59,21.21,5.54,1.22,2.1,4.06,3.27,6.15,4.86.91-.78,1.81-1.57,2.72-2.35-4.01-6.65-7.95-13.35-12.13-19.89-.59-.93-2.73-1.86-3.58-1.49-9.86,4.28-19.62,8.8-29.4,13.26ZM1572.45,132.24c.88-.67,1.75-1.34,2.63-2.01-5.27-6.8-10.49-19.15-15.82-19.2-9.64-.09-19.34,7.17-29.02,11.36.57,1.51,1.14,3.01,1.71,4.52,7.19-2.23,14.7-6.89,21.47-6,6.73.88,12.71,7.33,19.02,11.34ZM1825.16,162.38c-1.36-4.11-1.76-6.35-2.78-8.27q-9.78-18.45-28.44-9.69c-4.48,2.12-8.72,4.73-13.07,7.12.64,1.27,1.27,2.53,1.91,3.8,7.12-2.39,14.61-7.36,21.27-6.44,6.7.93,12.58,7.72,21.12,13.49ZM1164.95,122.66c.58,1.5,1.15,3,1.73,4.51,7.34-2.14,14.95-6.6,21.93-5.77,6.79.81,12.92,7.02,19.34,10.86-1.49-7.02-4.74-13.22-8.41-19.18-.97-1.57-3.77-3.72-4.79-3.31-10.05,4.02-19.9,8.52-29.8,12.88ZM1099.64,161.63c.88-.69,1.76-1.37,2.64-2.06-3.24-5.5-6.3-11.11-9.79-16.44-1.43-2.19-4.58-5.74-5.61-5.34-10.3,4.05-20.32,8.79-30.42,13.34.46,1.16.92,2.32,1.38,3.48,2.2-.19,4.7.23,6.56-.66,12.19-5.81,23.69-9.37,31.51,6.31.43.85,2.44.93,3.72,1.37ZM1686.37,34.72c-.41-1.42-.83-2.84-1.24-4.25-8.92,2.56-17.88,5.01-26.71,7.83-1.11.36-2.6,3.14-2.2,4.05,3.95,8.89,8.27,17.61,12.48,26.38,1.28-.54,2.55-1.07,3.83-1.61-1.26-4.42-2.13-8.99-3.87-13.21-2.84-6.86-1.91-11.19,6.08-13.35,4.11-1.11,7.77-3.84,11.63-5.84ZM1931.14,131.74c.65-.35,1.3-.7,1.95-1.05-2.81-4.97-5.35-10.11-8.52-14.84-1.63-2.43-5.21-6.3-6.51-5.82-9.76,3.63-19.18,8.18-28.7,12.44.57,1.45,1.14,2.9,1.71,4.35,7.11-2.12,14.49-6.52,21.25-5.72,6.61.78,12.58,6.87,18.82,10.63ZM669.83,212.89c-1.6-.51-3.2-1.02-4.8-1.53-3.73,9.86-7.46,19.71-11.49,30.38,11.78,1.52,21.43,2.76,31.09,4-3.04-3.81-6.65-5.78-10.5-6.52-7.79-1.49-9.85-5.36-7.25-12.69,1.54-4.35,2.01-9.08,2.96-13.64ZM1441.22,525.03c13.5,3.56,13.59,3.25,11.87-7.88-.61-3.97.83-8.24,1.23-12.39.29-3.09.4-6.2.59-9.31-1.25-.26-2.5-.51-3.75-.77-3.22,9.85-6.45,19.7-9.93,30.35ZM969.56,275c-2.46-1.89-3.59-3.18-3.96-2.99-8.91,4.49-17.79,9.05-26.49,13.9-.67.37-.68,3.58.12,4.41.92.96,3.57,1.53,4.63.89,8.44-5.07,16.68-10.46,25.7-16.22ZM1327.89,275.93c-10.42-3.57-27.23,6.55-28.2,16.83,9.4-5.61,18.8-11.22,28.2-16.83ZM1691.9,275.84c-6.81-3.12-27.75,6.62-29.16,10.69-.37,1.08-.12,2.96.63,3.66.79.74,2.87,1.1,3.76.58,8.33-4.85,16.53-9.93,24.76-14.94ZM455.42,28.38l-5.75-.97c-1.82,10.06-3.64,20.11-5.46,30.17,2.09.35,4.17.71,6.26,1.06,1.65-10.08,3.3-20.17,4.94-30.25ZM1174.29,58.17c1.45-9.86,2.89-19.72,4.34-29.58-8.88,6.14-11.32,22.49-4.34,29.58ZM1179.25,397.06c-10.48,7.48-13.03,27.88-5.12,32.61,1.65-10.52,3.21-20.42,5.12-32.61ZM1942.05,338.78c-1.6-.27-3.19-.53-4.79-.8-2.79,9.47-6.52,18.82-4.21,28.98l4.2.64c1.6-9.61,3.2-19.22,4.8-28.83ZM727.57,108.87c-1.25-.34-2.49-.69-3.74-1.03-6.64,6.53-9.8,20.41-4.42,30.23,3.19-11.4,5.67-20.3,8.16-29.2ZM816.69,402.67c-2-.53-4-1.07-6-1.6-2.23,8.01-4.55,16-6.58,24.07-.22.87.99,2.7,1.95,3.08.99.4,3.42-.15,3.6-.77,2.51-8.21,4.73-16.51,7.03-24.78ZM987.01,426.93c-3.45,5.66-6.85,8.83-6.74,11.88.08,2.25,4.9,6.16,7.34,5.97,2.49-.2,6.25-4.37,6.48-7.05.22-2.57-3.37-5.46-7.08-10.79ZM812.48,32.76c-5.17-3.42-8.59-7.29-10.64-6.67-3.09.93-6.67,4.74-7.21,7.82-.34,1.95,4.53,6.82,6.92,6.72,3.01-.13,5.86-3.97,10.94-7.87ZM766.55,177.5c2.03.54,4.05,1.09,6.08,1.63,2.34-7.79,4.82-15.54,6.88-23.4.3-1.12-1.09-3.09-2.23-3.99-.57-.45-3.26.35-3.48,1.06-2.58,8.19-4.88,16.46-7.25,24.71ZM161.91,20.75c-4.48-3.4-7.79-7.62-9.88-7.09-3.06.77-6.58,4.64-7.28,7.77-.39,1.74,4.47,6.41,7.12,6.54,2.67.12,5.52-3.75,10.05-7.21ZM1438.01,332.03c1.68.6,3.35,1.19,5.03,1.79,2.7-8.86,5.39-17.72,8.09-26.57-1.44-.46-2.88-.91-4.33-1.37-6.25,7.56-7.01,17.04-8.8,26.16ZM1870.15,49.38c2.07.39,4.14.79,6.21,1.18,1.46-9.76,2.92-19.51,4.37-29.27-1.85-.28-3.69-.56-5.54-.84-1.68,9.64-3.36,19.29-5.05,28.93ZM1686.34,400.95c-6.82,1.82-11.86,3.15-16.88,4.5-1.35.37-3.01.45-3.95,1.29-1.41,1.26-2.93,2.99-3.19,4.7-.16,1.1,1.62,3.19,2.96,3.66,3.31,1.16,18.74-8.5,21.07-14.15ZM78.12,44.34c3.44-5.34,7-8.42,6.73-11.14-.26-2.68-4.38-4.99-6.81-7.46-2.35,2.58-6.27,4.99-6.58,7.79-.29,2.61,3.27,5.64,6.66,10.81ZM625.51,75.87c-4.61-3.42-7.57-7.31-10.14-7.07-2.67.25-6.79,4.43-6.89,7.01-.09,2.45,4.07,6.91,6.61,7.1,2.68.2,5.67-3.61,10.42-7.04ZM885.32,20.83c-4.39-3.45-7.62-7.67-9.59-7.15-3.07.8-6.58,4.48-7.38,7.58-.43,1.68,4.25,6.44,6.83,6.59,2.63.16,5.51-3.61,10.14-7.02ZM816.43,148.45c-3.03,5.21-6.32,8.33-5.99,11.01.33,2.72,4.24,5,6.57,7.48,2.51-2.75,6.51-5.26,7.03-8.34.38-2.28-3.77-5.31-7.61-10.15ZM1121.02,592.28c-3.61,4.75-7.4,7.55-7.27,10.16.14,2.69,4.08,5.2,6.36,7.79,2.56-2.35,6.76-4.44,7.21-7.13.42-2.53-3.13-5.71-6.3-10.81ZM1140.83,559.12c1.2.29,2.39.59,3.59.88,7.43-8.56,9.98-21.3,3.8-28.02-2.68,9.83-5.04,18.48-7.39,27.14ZM1492.92,177.83c1.12.31,2.25.63,3.37.94,2.38-8.69,4.75-17.37,7.82-28.58-9.52,5.83-13.35,17.97-11.19,27.64ZM1181.42,159.61c-4.67-3.61-7.54-7.52-9.95-7.25-2.74.3-6.96,4.29-7.03,6.76-.06,2.47,3.95,6.65,6.68,7.1,2.39.4,5.49-3.32,10.3-6.62ZM1126.2,177.11c1.05.26,2.11.53,3.16.79,7.66-7.96,10.14-22.26,3.41-27.35-2.29,9.25-4.43,17.9-6.58,26.56ZM1939.25,299c-4.39-3.65-7.07-7.5-9.1-7.19-2.95.45-5.43,3.9-8.1,6.07,2.11,2.47,4.05,6.72,6.39,6.95,2.74.27,5.84-2.95,10.81-5.84ZM1098.24,189.17c-5.35-3.08-8.77-6.58-11.04-5.96-2.66.73-5.61,4.92-5.91,7.87-.19,1.81,4.48,5.9,6.7,5.73,2.8-.22,5.34-3.75,10.25-7.64ZM707.87,196.46c-5.05-3.18-8.27-6.78-10.65-6.3-2.72.55-6.54,4.8-6.46,7.33.08,2.41,4.45,6.33,7.16,6.52,2.47.18,5.24-3.75,9.95-7.55ZM1349.12,76.28c-4.76-3.62-7.4-7.15-10.23-7.3-2.27-.12-6.84,4-6.68,5.95.22,2.87,3.42,7.26,5.95,7.72,2.52.46,5.78-3.15,10.97-6.37ZM1450.96,109.25c-2.05-.56-4.11-1.12-6.16-1.67-2.3,8.74-4.61,17.48-6.91,26.23,1.81.51,3.61,1.02,5.42,1.52,2.55-8.69,5.11-17.38,7.66-26.08ZM1306.01,499.47c-4.85-3.35-7.62-6.7-10.47-6.78-2.21-.06-6.58,4.3-6.3,6.15.44,2.93,3.69,7.19,6.25,7.57,2.47.37,5.58-3.47,10.52-6.94ZM1524.01,43.97c3.88-4.97,7.73-7.75,7.63-10.38-.1-2.64-4.16-5.12-6.48-7.68-2.32,2.16-6.3,4.17-6.53,6.53-.28,2.85,2.62,6.02,5.38,11.53ZM1450.99,450.47c-4.27-3.53-6.95-7.38-9.1-7.11-2.79.35-6.49,3.63-7.24,6.34-.5,1.8,3.5,6.82,5.47,6.82,3.01,0,6-3.13,10.87-6.04ZM1245.51,10.02c-3.53,5.15-6.85,7.9-6.92,10.72-.06,2.38,3.66,4.85,5.71,7.27,2.6-2.23,6.86-4.16,7.33-6.77.46-2.55-2.95-5.78-6.13-11.23ZM531.6,20.15c-4.71-3.11-7.89-6.82-10.29-6.38-2.65.49-6.39,4.84-6.31,7.42.07,2.47,4.39,6.66,6.91,6.7,2.6.05,5.28-3.98,9.7-7.74ZM1849.38,177.17c1.97.47,3.95.95,5.92,1.42,2.23-8.61,4.47-17.22,6.7-25.82-1.76-.46-3.53-.92-5.29-1.38-2.45,8.59-4.89,17.19-7.34,25.78ZM1895.08,148.96c-3.5,4.94-7.22,7.91-6.93,10.42.31,2.62,4.17,5.87,7.1,6.7,1.46.41,6.06-3.94,6.08-6.18.03-2.87-3.1-5.78-6.25-10.94ZM1403.51,301.63c-4.99-3.72-7.92-7.57-10.34-7.27-2.66.33-6,4.17-6.76,7.07-.41,1.57,3.82,6.05,6.13,6.19,2.77.16,5.72-2.92,10.97-5.98ZM1205.37,308.79c3.54-4.95,6.93-7.65,7.02-10.46.07-2.32-4.05-6.89-5.81-6.66-2.89.38-7.09,3.55-7.52,6.08-.43,2.54,3.07,5.74,6.31,11.04ZM1426.31,193.89c-3.14,5.15-6.67,8.37-6.27,11.01.39,2.56,4.6,5.83,7.52,6.27,1.71.26,5.95-4.44,5.87-6.79-.1-2.85-3.57-5.58-7.12-10.49ZM1599.55,10.27c-3.74,4.88-7.19,7.46-7.42,10.31-.19,2.31,3.48,4.92,5.44,7.4,2.75-2.15,7.1-3.9,7.77-6.56.61-2.4-2.82-5.8-5.79-11.15ZM1571.56,255.78c-5.2-3.17-8.11-6.33-10.92-6.24-2.31.08-6.62,4.44-6.26,6.12.6,2.84,3.99,6.75,6.58,7.05,2.52.29,5.51-3.39,10.6-6.93ZM1550.76,158.8c-5.08-3.22-8.37-6.89-10.68-6.35-2.52.58-5.44,4.94-5.68,7.86-.16,1.91,4.29,6,6.4,5.83,2.78-.22,5.3-3.67,9.96-7.33ZM1247.56,603.18c-4.72-3.66-7.28-7.13-10.06-7.32-2.14-.15-6.59,4.06-6.38,5.95.31,2.9,3.34,7.07,5.95,7.69,2.24.54,5.51-3.13,10.49-6.32ZM1810.73,179.87c-2.81,4.98-5.85,8-5.68,10.84.13,2.24,4.21,4.24,6.54,6.35,2.19-2.61,5.71-5.04,6.12-7.9.3-2.13-3.43-4.82-6.98-9.29ZM1720.96,437.88c-4.84-3.22-7.93-6.75-9.86-6.21-2.91.81-5,4.47-7.44,6.92,2.34,2.18,4.7,6.11,7.03,6.09,2.77-.02,5.51-3.43,10.27-6.8ZM1315.12,707c-.76-1.49-1.53-2.98-2.29-4.47-5.29,2.77-10.59,5.53-15.88,8.3.79,1.52,1.58,3.04,2.36,4.55,5.27-2.79,10.54-5.59,15.81-8.38Z"/>
      <path class="cls-2" d="M1944.72,242.15c-5.4,1.33-7.49-1.04-8.48-6.25-2.22-11.71-5.6-23.23-7.46-34.98-1.19-7.53-4.85-9.11-11.61-8.36-4.85.54-9.82.11-14.74.11-.15-1.77-.29-3.55-.44-5.32,9.31-1.08,18.63-2.75,27.94-2.71,1.79,0,4.21,6.58,5.19,10.42,3.47,13.53,6.44,27.18,9.6,40.79v6.32Z"/>
      <path class="cls-1" d="M5.51,209.34c20.96,31.63,41.93,63.26,62.87,94.9,13,19.65,25.79,39.43,39.03,58.92,4.69,6.9,4.66,12.46-1.08,18.73-6.65,7.26-12.66,15.1-18.79,22.81-6.88,8.65-6.17,10.46,4.71,12.68,30.15,6.17,60.37,11.99,90.43,18.51,134.14,29.09,268.24,58.35,402.35,87.59,39.75,8.66,79.48,17.39,119.19,26.22,3.36.75,7.92,1.48,9.53,3.83,11.63,16.97,22.65,34.35,32.78,53.62-92.97-17.1-184.53-38.03-276.32-57.81-92.02-19.83-183.92-40.24-275.87-60.39-.49.86-.97,1.72-1.46,2.57,1.96,3.51,3.7,7.16,5.91,10.5,67.89,102.66,135.82,205.29,203.74,307.93,6,9.07,12.33,17.98,17.6,27.46,1.54,2.78,1.47,8.66-.46,10.78-36.32,39.79-54.83,86.9-59.74,139.81-.12,1.31-.83,2.57-1.87,5.61-2.94-2.44-5.3-4.06-7.26-6.07-14.52-14.87-29.17-29.62-43.33-44.82-5.43-5.83-9.25-5.79-14.67-.03-15.21,16.15-31.16,31.62-46.19,47.93-5.66,6.15-9.35,5.48-14.51,0-14.99-15.88-30.41-31.36-45.28-47.35-5.81-6.25-9.85-6.99-16.23-.24-22.73,24.06-46.06,47.57-69.18,71.28-9.85,10.1-10.31,11.92-.07,21.13,20.46,18.4,14.31,16.15,31.36-.37,13.15-12.74,25.87-25.97,38.18-39.5,5.89-6.47,9.78-5.69,15.32.24,14.91,15.94,30.29,31.45,45.52,47.1,2.17,2.23,4.53,4.27,6.93,6.52,10.99-10.62,21.63-20.71,32.03-31.03,7.5-7.44,14.94-14.97,21.96-22.85,5.24-5.89,9.23-5.81,14.67,0,14.93,15.93,30.32,31.44,45.57,47.08,2.4,2.46,5.03,4.71,5.43,5.08,18.25-16.83,36.03-32.86,53.36-49.35,10.3-9.8,9.98-10.12,20.2.44,14.46,14.93,29.09,29.71,43.3,44.87,5.18,5.53,8.62,6.41,14.33.18,14.73-16.1,30.57-31.2,45.29-47.31,6.23-6.83,10.26-7.51,16.79-.42,14.79,16.06,30.39,31.38,45.52,47.14,4.11,4.28,7,6.57,12.99,1.47,9.08-7.74,12.55,3.3,17.64,7.23,5.42,4.19,2.74,8.01-1.81,11.85-5.63,4.75-10.61,10.3-15.63,15.72-4.3,4.65-7.46,4.65-12.07-.27-15.4-16.43-31.65-32.09-46.9-48.65-6.26-6.8-10.02-6.08-15.88.28-15.02,16.32-30.85,31.9-45.97,48.12-5.26,5.65-8.61,4.72-13.89-.16-18.6-17.2-37.71-33.86-56.45-50.56-8.63,8.22-20.81,19.26-32.33,30.94-17.46,17.69-17.84,18.16-7.06,39.72,40.38,80.77,117.28,135.6,212.99,128.64,77.75-5.66,135.66-44.6,174.23-111.29,27.68-47.86,34.03-99.66,25.61-153.66-1.07-6.84-2.18-13.67-1.27-21.55,1.79,2.54,3.91,4.92,5.32,7.65,40.91,79.28,26.06,187.75-34.46,254.18-16.98,18.63-35.56,35.17-58.08,46.94-6.05,3.16-7.27,6.48-3.07,12.32,6.46,8.99,12.23,18.46,19.59,29.73-5.7.64-8.96,1.32-12.21,1.32-218.11-.03-436.21-.03-654.32-.42-11.84-.02-23.86-2.55-35.47-5.28-10.45-2.46-15.61-8.71-15.57-21.09.51-137.2.31-274.41.31-411.62,0-211.6.03-423.2.05-634.8,0-3.43,0-6.85,0-10.28.7-.12,1.39-.25,2.09-.37ZM162.41,709.94c33.32.25,61.76-27.61,61.99-60.73.23-33.29-27.59-61.51-60.9-61.78-34.04-.27-60.35,25.01-60.71,58.34-.39,37.09,24.51,63.9,59.61,64.17Z"/>
      <path class="cls-1" d="M443.6,262.3c11.72,17.18,26.53,32.4,24.51,56.48-2.28,27.24-2.55,54.53,11.62,79.85,5.52,9.87.92,23.09-8.22,29.99-8.59,6.49-20.48,6.29-29.56-.53-4.99-3.75-7.69-7.74-3.69-14.2,5.31-8.58,3.63-16.98-.86-25.86-4.06-8.02-7.76-16.86-8.72-25.65-3.1-28.3-3.09-56.69,3.97-84.56,1.38-5.46,4.57-10.47,6.92-15.69,1.34.06,2.67.13,4.01.19Z"/>
      <path class="cls-1" d="M640.47,374.19c-17.05,20.46-36.53,24.36-62.11,12.88,33.12-21.43,39.35-55.89,51.36-89.34,13.27,22.06,30.05,38.62,58.75,44.74-6.77,3.78-10.52,6.94-14.8,8.04-8.56,2.19-9.29,6.89-6.71,14.07,1.89,5.25,3.52,10.72,4.28,16.22.55,3.99.2,11.5-.99,11.75-6.43,1.38-13.96,5.02-19.28-2.63-3.18-4.58-6.2-9.27-10.5-15.73Z"/>
      <path class="cls-1" d="M466.65,216.77c13.06-6.08,24.65-4.3,32.86,2.28,12.1,9.69,23.48,21.18,32.18,33.91,13.61,19.91,25.26,41.23,36.42,62.63,2.1,4.02-1.15,11.62-3.72,16.67-.74,1.46-8.57,1.22-11.7-.64-19.8-11.75-32.22-29.96-42.38-49.91-11.6-22.78-22.74-45.84-43.65-64.94Z"/>
      <path class="cls-1" d="M967.25,591.44c-11.55-6.08-23.1-12.17-37.15-19.57,12.65-7.9,23.06-14.4,35.87-22.41,1.61,15.08,2.95,27.55,4.28,40.02-1,.65-2,1.3-3,1.95Z"/>
      <path class="cls-1" d="M797.88,466.38c-13.58,7.21-24.43,12.98-37.19,19.75v-42.18c12.77,7.7,23.61,14.24,37.19,22.43Z"/>
      <path class="cls-1" d="M1231.5,767.56c8.67-9.51,16.56-18.17,25.74-28.25,3.15,13.1,6.08,25.31,9.87,41.09-14.64-5.28-26.23-9.46-35.61-12.84Z"/>
      <path class="cls-1" d="M1845.89,444.86c4.82,3.72,14.28,9.48,13.68,10.82-3.04,6.78-8.69,12.41-13.42,18.44-1.09-.49-2.18-.98-3.26-1.47v-26.27c1-.5,2-1.01,3-1.51Z"/>
      <path class="cls-2" d="M814.34,95.82c-21.61,11.59-40.27,21.6-61.94,33.22-1.21-24.94-2.27-46.83-3.33-68.73l3.08-1.61c19.89,11.87,39.77,23.73,62.19,37.11ZM796.23,95.33c-12.33-7.51-22.78-13.87-34.89-21.24v41.24c12.18-6.98,22.35-12.81,34.89-19.99Z"/>
      <path class="cls-2" d="M852.65,345.96c17.07-16.45,32.17-31.02,49.55-47.78,5.66,23.72,10.83,45.42,16.92,70.96-23.47-8.18-44.1-15.38-66.48-23.18ZM907.33,356.17c-3.61-15.2-6.44-27.12-9.33-39.27-9.27,9.03-17.51,17.06-26.95,26.25,11.23,4.03,22.22,7.97,36.28,13.02Z"/>
      <path class="cls-2" d="M972.68,164.86c2.51,24.56,4.75,46.36,7.32,71.53-23.25-11.84-43.37-22.09-66.93-34.09,20.68-12.99,38.9-24.44,59.6-37.44ZM932.6,199.46c.06,1.19.12,2.39.18,3.58,11.6,5.82,23.19,11.63,37.51,18.82-1.41-15.55-2.54-27.99-3.93-43.25-12.92,7.98-23.34,14.42-33.76,20.85Z"/>
      <path class="cls-2" d="M1476.23,128.49c-1.23-24.31-2.31-45.68-3.59-71.07,22.45,13.39,42.21,25.18,64.3,38.35-21.03,11.33-39.56,21.32-60.71,32.71ZM1521.03,95.38c-13.2-7.96-23.96-14.45-36.44-21.99v42.4c12.6-7.06,23.09-12.94,36.44-20.42Z"/>
      <path class="cls-2" d="M1003.83,274.43c-.3,4.22-.35,8.47-.96,12.64-1.59,10.73-3.7,21.4-5.07,32.15-1.03,8.02-4.11,12.5-13.06,10.29-1.69-.42-3.58-.07-5.26-.51-10-2.61-12.45,2.07-11.88,11.04.55,8.72.23,17.5-.02,26.25-.05,1.84-1,4.44-2.38,5.22-1.19.67-4.29-.17-5.33-1.37-10.11-11.67-20.01-23.52-29.82-35.44-.68-.82-.24-2.55-.32-3.85.86-.8,1.71-1.6,2.57-2.41,8.04,7.77,16.08,15.55,26.68,25.8,0-11.03.2-19.17-.06-27.3-.22-6.59,2.72-8.36,9.06-7.99,21.03,1.23,21.01,1.04,25.42-19.44,1.69-7.86,3.53-15.69,5.44-23.5.19-.78,1.38-1.32,2.1-1.98.97.13,1.93.26,2.9.39Z"/>
      <path class="cls-2" d="M548.93,202.39c20.45-12.96,38.35-24.3,59.26-37.55,2.45,24.16,4.65,45.94,7.22,71.23-22.83-11.56-42.94-21.75-66.48-33.68ZM605.89,222.12c-1.46-15.94-2.62-28.63-4.03-44.09-13.7,8.97-23.94,15.68-36.25,23.74,14.31,7.23,25.74,13,40.29,20.35Z"/>
      <path class="cls-2" d="M1172.61,466.54c-21.32,11.53-39.45,21.34-61.02,33-1.1-24.31-2.1-46.16-3.25-71.41,22.33,13.34,41.88,25.03,64.27,38.41ZM1154.56,467.81c-.09-1.16-.19-2.32-.28-3.47-11.15-6.35-22.3-12.7-35.12-20v41.83c12.99-6.74,24.2-12.55,35.4-18.36Z"/>
      <path class="cls-2" d="M1895.96,95.8c-21.4,11.52-39.53,21.28-60.32,32.47-1.29-24.14-2.44-45.52-3.77-70.43,22.26,13.18,41.86,24.79,64.09,37.96ZM1880.55,95.49c-13.51-8.01-24.47-14.52-37.06-21.99v42.11c12.8-6.95,23.6-12.82,37.06-20.13Z"/>
      <path class="cls-2" d="M1172.46,95.74c-20.89,11.36-39.16,21.29-60.56,32.92-1.28-24.17-2.41-45.73-3.75-71.04,22.35,13.25,42.08,24.94,64.31,38.12ZM1119.96,115.42c12.7-6.92,23.46-12.78,36.85-20.07-13.45-7.82-24.46-14.21-36.85-21.41v41.48Z"/>
      <path class="cls-2" d="M1331.74,165.04c2.33,23.96,4.42,45.56,6.86,70.68-22.79-11.54-42.85-21.69-65.97-33.39,20.39-12.87,38.51-24.3,59.1-37.29ZM1329.35,222.37c-1.1-14.34-1.76-25.69-3.08-36.96-.18-1.52-4.65-4.23-5.55-3.71-10.07,5.81-19.83,12.15-32.1,19.88,14.57,7.44,26.19,13.37,40.73,20.8Z"/>
      <path class="cls-2" d="M1257.09,306.07c5.73,24.75,10.63,45.92,16.26,70.21-23.19-8.11-43.41-15.18-66.15-23.13,17.08-16.12,32.19-30.37,49.89-47.08ZM1222.47,350.22c14.55,5.02,25.93,8.94,40.45,13.95-3.64-15.39-6.51-27.53-10.05-42.54-10.83,10.19-19.53,18.37-30.4,28.59Z"/>
      <path class="cls-2" d="M1217.96,642.21c-19.3,10.42-35.84,19.61-52.73,28.13-1.93.97-8.31-1.7-8.33-2.79-.52-20.03-.38-40.08-.38-61.95,19.85,11.82,39.42,23.49,61.44,36.6ZM1164.56,662.19c12.93-7.04,23.88-12.99,37.6-20.46-13.95-8.14-24.79-14.47-37.6-21.95v42.4Z"/>
      <path class="cls-2" d="M1272.63,572.86c20.82-13,38.61-24.1,58.93-36.79,2.4,23.6,4.59,45.1,7.16,70.32-22.97-11.65-42.98-21.81-66.08-33.53ZM1288.43,572.17c14.79,7.6,26.85,13.79,41.55,21.35-1.72-16.25-3.07-29.06-4.73-44.74-13.22,8.4-23.79,15.12-36.83,23.39Z"/>
      <path class="cls-2" d="M1700.16,234.27c-19.83-10.14-39.66-20.28-62.48-31.95,19.89-12.72,37.57-24.03,58.03-37.11,2.57,23.75,4.9,45.25,7.22,66.75-.92.77-1.85,1.55-2.78,2.32ZM1689.98,178.39c-12.24,7.43-22.1,13.22-31.62,19.52-.98.65-.74,5.8.32,6.37,10.93,5.95,22.15,11.39,35.73,18.2-1.56-15.58-2.83-28.16-4.43-44.09Z"/>
      <path class="cls-2" d="M1291.79,331.9c7.68,7.6,15.35,15.2,23.03,22.8,1.06-.21,2.13-.43,3.19-.64,0-7.79.21-15.58-.06-23.36-.24-6.92,2.54-9.01,9.57-8.52,20.21,1.42,20.25,1.15,24.87-18.93,2-8.67,3.89-17.35,5.83-26.03,1.12.05,2.25.1,3.37.14.33,2.28,1.21,4.63.89,6.82-1.92,13.17-4.34,26.27-6.12,39.46-1.05,7.82-5.22,9.97-12.45,8.56-17.75-3.45-19.31-4.34-18.38,16.97.38,8.61.06,17.25.06,25.88-1.1.49-2.21.97-3.31,1.46-11.43-13.5-22.85-27-34.28-40.49,1.26-1.37,2.53-2.74,3.79-4.11Z"/>
      <path class="cls-2" d="M1686.36,373.17c-11.43-13.42-22.85-26.85-34.28-40.27,1.34-1.31,2.68-2.62,4.03-3.92,7.94,7.86,15.87,15.71,23.81,23.57,1-.21,1.99-.42,2.99-.64,0-7.7.36-15.43-.1-23.1-.48-8.12,2.85-10.22,10.71-9.37,18.56,2,18.61,1.7,22.89-16.09,2.2-9.15,4.31-18.33,6.55-27.47.12-.49,1.08-.77,2.31-1.58.78,1.4,2.31,2.84,2.13,4.02-2.35,15.2-4.68,30.42-7.76,45.49-.46,2.24-4.49,4.78-7.23,5.31-3.66.7-7.7-.28-11.54-.84-7.25-1.05-10.34,1.6-10.06,9.13.42,11.34.11,22.71.11,34.07-1.52.57-3.04,1.13-4.55,1.7Z"/>
      <path class="cls-2" d="M1625.48,299.01c4.5,18.91,8.82,35.04,12.02,51.39,1.63,8.33-6.32,13.93-14.66,11.25-9.05-2.91-18.12-5.78-27.02-9.09-10.09-3.76-12.14-14.99-4.29-22.25,10.69-9.9,21.42-19.75,33.95-31.3ZM1621.58,313.54c-9.89,9.34-17.67,16.29-24.78,23.85-1.02,1.08.42,6.87,1.97,7.51,9.63,3.96,19.62,7.07,32.38,11.46-3.31-14.82-6.06-27.11-9.57-42.82Z"/>
      <path class="cls-2" d="M745.37,375.26c-8.16,3.21-13.95,4.89-19.14,7.67-9.28,4.97-13.64,1.71-15.27-7.69-.51-2.94-1.33-5.82-2-8.66,1.67-.46,2.8-.94,2.9-.77,8.15,12.8,17.82,7.37,27.65,2.51,3.92-1.94,8.22-3.13,13.76-5.18.98,11.39,1.83,21.28,2.97,34.49,10.77-8.67,19.53-15.72,29.54-23.77.27,9.27-13.52,23.77-36.52,40.55-.82-7.11-1.58-12.96-2.16-18.83-.61-6.09-1.05-12.19-1.73-20.32Z"/>
      <path class="cls-2" d="M1086.94,280.05c-2.1-6.89-3.99-13.09-6.31-20.7,7.09,3.56,11.88,7.83,16.69,7.87,5.18.04,10.39-3.92,15.61-6.07,3.45-1.42,6.96-2.73,11.94-4.67,1.1,11.68,2.06,21.84,3.26,34.63,10.63-8.58,19.34-15.6,28.83-23.26,1.02,8.29-20.86,30.81-35.9,38.58-1.31-12.33-2.57-24.21-4-37.69-10.43,3.92-19.47,7.31-30.12,11.31Z"/>
      <path class="cls-2" d="M913.18,80.56c-3.4-2.38-7.58-4.15-10.06-7.25-15.76-19.73-34.44-24.03-56.85-11.75-2.44,1.34-5.3,2.66-7.95,2.62-2.13-.03-6.16-2.29-6.07-3.26,1.4-15.23,3.32-30.41,5.22-45.59.04-.35,1.17-.57,3.36-1.57,4.57,13.17-1.73,26.47.86,41.03,8.62-2.69,16.75-4.6,24.33-7.77,9.22-3.85,16.48-3.32,23.58,4.51,6.1,6.72,13.68,12.11,20.41,18.3,2.34,2.16,4.08,4.95,6.1,7.46-.98,1.09-1.96,2.18-2.94,3.28Z"/>
      <path class="cls-2" d="M927.39,462.07c-4.94-3.99-10.64-7.35-14.68-12.1-12.75-15-27.11-19.4-45.25-9.66-5.42,2.91-11.86,3.97-17.71,5.83-4.24-9.3-.86-44.28,7.52-50.53-.64,12.97-1.27,25.94-2,40.62,11-3.42,20.77-5.97,30.15-9.54,6.11-2.33,10.48-1.76,15.26,2.81,7.63,7.29,16,13.8,23.82,20.91,2.52,2.29,4.28,5.41,6.38,8.15-1.17,1.17-2.33,2.34-3.5,3.51Z"/>
      <path class="cls-2" d="M982.86,476.45c6.75,10.72,13.49,21.45,21.17,33.65,6.69-7.98,12.55-14.97,19.69-23.49,7.89,18.3,12.71,35.41,15.59,53.27-11.41-8.49-10.57-23.13-18.91-34.74-5.48,6.84-10.35,12.92-16.96,21.16-9.7-16.49-19.19-30.96-25.93-46.87,1.78-.99,3.57-1.98,5.35-2.97Z"/>
      <path class="cls-2" d="M1492.23,291.48c11.08-8.87,19.83-15.87,28.58-22.87,1,1.11,2.01,2.22,3.01,3.32-10.15,13.39-24.32,22.96-35.89,35-1.01-.24-2.02-.49-3.02-.73-.48-8.04-.95-16.08-1.44-24.11-.84-13.87-1.34-14.2-13.88-9.19-5.49,2.2-10.98,4.41-18.1,7.26-2.31-7.15-4.34-13.4-6.42-19.85,2.42-.52,3.55-.92,3.64-.76,7.23,12.98,16.42,6.61,25.6,2.8,15.35-6.36,15.41-6.22,16.56,10.35.36,5.16.75,10.32,1.37,18.77Z"/>
      <path class="cls-2" d="M1883.26,273.45c-12.22,11.14-24.44,22.28-38.78,35.35-1.29-14.9-2.32-26.83-3.5-40.56-10.89,4.23-19.63,7.62-30.14,11.7-2.15-6.64-4.22-13.06-6.3-19.49.7-1.2,1.39-2.4,2.09-3.6,8.82,18.64,19.29,8.31,29.36,4.63,3.53-1.29,7-2.78,12.14-4.85,1.18,11.56,2.21,21.7,3.48,34.08,10.66-8.07,19.77-14.96,28.88-21.86.92,1.53,1.85,3.06,2.78,4.59Z"/>
      <path class="cls-2" d="M722.8,223.49c3.38-18.75,1.28-35.76,6.8-51.6,1.67.16,3.34.33,5.01.49-.92,12.54-1.84,25.09-2.95,40.15,10.65-3.25,20.12-5.31,28.86-9.04,8.27-3.53,13.81-1.47,19.75,4.39,7.5,7.41,15.92,13.91,23.6,21.16,1.59,1.5,1.69,4.56,2.48,6.9-2.44-.45-5.53-.12-7.22-1.49-7.39-5.98-14.66-12.17-21.43-18.83-5.36-5.27-10.34-6.92-17.86-3.94-11.05,4.38-22.68,7.32-37.03,11.8Z"/>
      <path class="cls-2" d="M188.51,80.86c-8.92-7.68-18.17-15.04-26.66-23.17-5.37-5.14-10.43-5.79-17.19-3.35-11.13,4.02-22.54,7.28-36.48,11.7,1.65-18.87,3.09-35.3,4.53-51.72,1.67.07,3.33.14,5,.2,4.12,12.62-2.31,25.94.26,40.52,9.19-2.94,17.58-5.15,25.58-8.32,8.5-3.36,15.28-2.69,21.92,4.22,6.56,6.82,14.34,12.47,21.26,18.97,2.34,2.19,3.71,5.4,5.52,8.15-1.24.93-2.49,1.87-3.73,2.8Z"/>
      <path class="cls-2" d="M886.13,176.62c5.97-6.85,11.78-13.85,18.04-20.43,1.54-1.62,4.56-1.86,6.9-2.74-.28,2.67.42,6.08-.99,7.88-7.54,9.6-15.6,18.8-24.19,28.97-8.16-7.35-15.35-13.83-23.85-21.48-9.09,12.13-17.68,23.59-26.28,35.05-1.1-.45-2.21-.89-3.31-1.34.21-2.22-.33-4.92.74-6.59,7.56-11.81,15.59-23.32,23.18-35.12,3.39-5.27,6.84-4.38,10.05-.53,5.16,6.21,9.86,12.79,14.75,19.21,1.66-.96,3.31-1.93,4.97-2.89Z"/>
      <path class="cls-2" d="M489.47,62.63c11.99-3.73,21.39-6.38,30.57-9.6,6.8-2.39,11.97-1.18,17.15,3.95,7.47,7.4,15.72,14.02,23.47,21.15,2.05,1.88,3.5,4.4,5.22,6.63l-2.04,2.48c-2.72-1.38-5.79-2.34-8.08-4.23-6.79-5.57-13.73-11.08-19.73-17.42-6.12-6.47-12.37-6.44-20.03-3.65-10.47,3.82-21.19,6.95-34.51,11.26,1.16-13.56,1.79-25.16,3.3-36.65.65-4.93,3.12-9.63,4.76-14.44.7,5.06,2.02,10.12,1.95,15.17-.1,7.55-1.16,15.09-2.06,25.35Z"/>
      <path class="cls-2" d="M1024.49,114.97c6.07,19.67,11.29,36.56,16.51,53.45-1.78.65-3.56,1.31-5.34,1.96-4.55-11.68-9.1-23.37-14.49-37.2-6.29,7.78-11.19,13.84-16.05,19.86-9-6.06-26.19-38.6-23.73-48.58,8.09,12.41,15.13,23.2,22.97,35.21,6.56-8.04,12.39-15.19,20.14-24.69Z"/>
      <path class="cls-2" d="M656.56,133.04c-6.25,7.94-10.95,13.91-15.61,19.83-8.68-5.46-26.08-36.87-22.92-46.18,3.44,5.15,6.86,10.31,10.31,15.44,3.64,5.41,7.3,10.81,11.76,17.4,6.74-8.31,12.47-15.38,18.61-22.96,10.25,18.32,17.77,46.67,13.24,55.21-5.23-13.17-9.86-24.82-15.39-38.75Z"/>
      <path class="cls-2" d="M1008.18,230.31c-2.77-16.44,1.51-46.1,9-52.12-.97,14.77-1.81,27.59-2.78,42.38,11.16-3.43,20.99-5.86,30.33-9.53,7.03-2.77,11.71-1.34,16.9,3.78,7.99,7.9,16.88,14.9,25.14,22.54,1.46,1.35,1.72,3.97,2.53,6.01-2.4-.34-5.46.13-7.07-1.17-7.66-6.19-15.17-12.61-22.25-19.43-5.15-4.97-9.96-6.33-17.03-3.58-11.04,4.29-22.59,7.31-34.77,11.13Z"/>
      <path class="cls-2" d="M1205.06,72.63c1.53-17.03,2.79-31.9,4.33-46.74.13-1.22,2.09-2.26,3.21-3.38,1.17,1.78,3.41,3.6,3.33,5.33-.3,6.98-1.45,13.92-1.99,20.89-.31,4.04-.06,8.13-.06,13.92,10.5-3.3,19.93-5.88,29.05-9.26,6.74-2.5,11.89-1.81,17.2,3.34,7.55,7.34,15.87,13.88,23.71,20.93,2.17,1.95,3.81,4.5,5.7,6.77-.52.78-1.03,1.57-1.55,2.35-2.25-.81-4.8-1.19-6.68-2.52-3.73-2.62-7.8-5.24-10.48-8.78-12.81-16.97-28.13-18.08-46.09-8.75-5.34,2.78-11.73,3.6-19.67,5.91Z"/>
      <path class="cls-2" d="M1595.76,303.16c-3.99,1.28-7.89,2.96-11.97,3.76q-31.72,6.22-42.36,36.66c-1.59,4.56-3.43,9.03-6.39,16.78-13.15-13.02-24.67-24.42-36.19-35.83,1.34-1.43,2.67-2.86,4.01-4.29,9.37,8.7,18.73,17.4,29.74,27.62,3.67-10.09,7.42-18.31,9.6-26.93,2.59-10.24,8.46-15.19,18.91-16.39,8.03-.92,15.87-3.32,23.85-4.82,3.2-.6,6.54-.52,9.81-.75.33,1.4.66,2.79.99,4.19Z"/>
      <path class="cls-2" d="M1341.72,106.56c6.93,10.67,13.85,21.33,21.81,33.59,6.72-8.57,12.4-15.8,19.45-24.8,6.55,18.91,13.1,35.49,16.36,53l-4.36,1.61c-4.63-11.58-9.26-23.16-14.75-36.92-6.22,7.77-11.23,14.05-17.66,22.08-9.1-16.52-19.05-30.35-25.43-46.05,1.53-.84,3.05-1.68,4.58-2.52Z"/>
      <path class="cls-2" d="M1635.29,80.46c-8.12-7.08-16.6-13.79-24.23-21.36-6.61-6.56-13.05-7.98-21.84-4.39-9.98,4.08-20.56,6.74-33.64,10.9,1.64-18.24,3.08-34.38,4.53-50.51l4.27.13v39.98c9.93-2.98,19.03-5.09,27.6-8.48,7.55-2.99,13.29-2.2,19.14,3.47,7.33,7.1,15.39,13.44,22.86,20.4,2.09,1.94,3.2,4.91,4.76,7.4-1.15.82-2.3,1.64-3.45,2.46Z"/>
      <path class="cls-2" d="M1759.17,540.5c-4.52-11.58-9.04-23.16-14.37-36.83-6.3,7.68-11.24,13.71-17.87,21.79-9.12-15.78-17.52-30.31-25.91-44.84,1.7-1.08,3.39-2.15,5.09-3.23,6.88,10.62,13.77,21.24,21.69,33.45,6.61-8.05,12.42-15.12,20.06-24.42,6.12,18.92,11.46,35.44,16.8,51.96-1.83.71-3.66,1.41-5.48,2.12Z"/>
      <path class="cls-2" d="M1395.01,540.2c-4.69-11.41-9.37-22.83-14.86-36.2-6.21,7.6-11.17,13.65-17.65,21.57-9.16-15.9-17.57-30.5-25.98-45.1,1.57-.98,3.14-1.97,4.71-2.95,7.18,10.57,14.36,21.13,22.28,32.8,6.73-7.97,12.65-14.98,20.24-23.96,5.93,18.98,11.08,35.48,16.24,51.98-1.66.62-3.32,1.25-4.98,1.87Z"/>
      <path class="cls-2" d="M1729.73,230.03c1.81-18.06,3.43-34.17,5.05-50.28,1.56.1,3.12.2,4.67.29,2.93,12.65-2.31,25.46-1.34,40.42,10.1-3.01,19.89-5.09,28.95-8.89,7.86-3.29,13.1-1.54,18.76,4.01,7.01,6.87,14.81,12.95,22.1,19.55,2.31,2.09,4.08,4.76,6.1,7.17-.74.88-1.48,1.77-2.22,2.65-2.61-1.49-6-2.39-7.72-4.58-17.65-22.42-38.7-27.08-63.85-12.9-2.29,1.29-5.29,1.33-10.51,2.54Z"/>
      <path class="cls-2" d="M1447.04,222.22c1.82-18.46,3.39-34.29,4.95-50.13l4.3.27c4.06,12.52-2.34,25.31-.71,40.23,9.73-2.9,19.14-4.9,27.88-8.53,8.51-3.53,14.43-1.94,20.64,4.51,6.55,6.81,14.3,12.49,21.28,18.92,2.2,2.03,3.62,4.9,5.39,7.38-.91.91-1.81,1.82-2.72,2.74-3.84-2.95-8.54-5.25-11.37-8.95-15-19.69-33.06-21.6-54.13-10.61-3.84,2-8.56,2.36-15.51,4.17Z"/>
      <path class="cls-2" d="M1082.48,421.64c-3.29-11.11-6.78-22.16-9.54-33.4-.25-1.01,4.02-4.32,6.38-4.54,6.65-.62,13.44-.67,20.1-.07,9.94.89,14.26-2.48,13.36-12.9-.8-9.2-.17-18.52-.17-27.78,1.08-.17,2.15-.34,3.23-.51.86,2.22,2.27,4.39,2.49,6.67,1.08,11.49,1.73,23.03,2.78,34.53.61,6.68-2.78,8.66-8.8,8.54-7.06-.14-14.13.12-21.18-.02-6.84-.14-8.63,2.88-7.11,9.24,1.5,6.26,2.28,12.69,3.38,19.05-1.63.4-3.27.8-4.9,1.19Z"/>
      <path class="cls-2" d="M1213.31,390.95c-.83,12.77-1.67,25.55-2.64,40.41,10.48-3.33,19.52-5.73,28.18-9.09,7.88-3.06,14.05-2.09,20.1,3.96,6.44,6.45,13.7,12.09,20.41,18.29,2.65,2.44,4.78,5.43,7.14,8.17-.62.86-1.25,1.71-1.87,2.57-2.68-1.32-5.75-2.19-7.98-4.04-7.03-5.84-14.03-11.76-20.49-18.19-5.24-5.22-10.47-5.83-17.23-3.39-11.1,4.02-22.46,7.33-36.32,11.78,1.68-18.65,3.13-34.76,4.58-50.87,2.04.14,4.08.27,6.12.41Z"/>
      <path class="cls-2" d="M1178.66,286.66c2.64,12.77,5.68,25.48,7.47,38.36.26,1.85-5.22,5.71-8.6,6.64-20.22,5.56-20.19,5.34-14.55,26,1.96,7.17,3.36,14.48,5.02,21.73-1.54.45-3.08.89-4.63,1.34-2.89-8.31-5.97-16.56-8.61-24.95-2.5-7.92-7.82-17.08-5.61-23.6,1.46-4.29,13.99-5.17,21.71-6.99,6.34-1.5,7.81-4.8,6.17-10.71-1.78-6.4-3.29-12.91-4.26-19.46-.39-2.61,1-5.48,1.58-8.23,1.44-.04,2.89-.09,4.33-.13Z"/>
      <path class="cls-2" d="M1237.44,186.67c6.99-7.96,12.99-15.16,19.46-21.91,1.44-1.5,4.56-1.4,6.91-2.04-.38,2.16-.04,4.9-1.25,6.39-7.67,9.45-15.68,18.62-24.33,28.76-8.29-7.46-15.51-13.96-23.85-21.47-9.02,12.03-17.62,23.5-26.22,34.98-1.08-.55-2.16-1.1-3.25-1.66.75-2.53.97-5.4,2.35-7.53,6.85-10.6,14.28-20.83,20.96-31.53,3.95-6.33,7.38-4.86,11.61-.72,5.46,5.34,11.07,10.53,17.6,16.72Z"/>
      <path class="cls-2" d="M162.1,109.24c8.51,4.41,17.07,8.73,25.53,13.24,12.27,6.54,12.3,6.61,16.73-6.76,1.98-5.98,2.97-12.42,5.82-17.93,1.33-2.58,6.27-5.19,9.12-4.77,6.96,1.02,13.66,3.8,20.46,5.87-.18,1.3-.35,2.61-.53,3.91-3.43,0-7,.61-10.26-.12-9.23-2.06-13.59,1.59-15.51,10.48-1.62,7.48-4.16,14.85-7.21,21.88-.89,2.05-5.98,4.56-7.39,3.77-12.59-7.04-24.84-14.71-37.05-22.4-1.11-.7-1.29-2.86-1.9-4.34.73-.94,1.46-1.89,2.19-2.83Z"/>
      <path class="cls-2" d="M923.44,128.71c3.54-10.94,6.89-20.44,9.63-30.11,1.74-6.17,4.8-7.83,10.87-5.59,6.32,2.33,12.88,4.01,19.33,5.98-.19,1.17-.37,2.34-.56,3.5-4.55,0-9.21.63-13.62-.15-6.21-1.1-9.15,1.27-10.81,6.89-2.58,8.72-5.23,17.45-8.54,25.91-.79,2.01-5.36,4.73-6.44,4.12-13.13-7.48-25.98-15.46-38.74-23.56-.9-.57-.58-3.02-1.31-7.77,14.2,7.34,26.33,13.61,40.21,20.78Z"/>
      <path class="cls-2" d="M1759.09,169.98c-4.51-11.65-9.02-23.3-14.33-37.01-6.57,7.92-11.6,13.97-18.11,21.81-8.95-15.94-17.16-30.55-25.36-45.16,1.59-.98,3.19-1.95,4.78-2.93,6.83,10.48,13.66,20.97,21.61,33.17,6.54-7.78,12.42-14.76,20.3-24.13,5.95,18.91,11.2,35.61,16.45,52.31-1.78.65-3.56,1.29-5.34,1.94Z"/>
      <path class="cls-2" d="M1456.22,371.9c-9.75,12.88-18.19,24.04-26.63,35.19-1.37-.96-2.74-1.91-4.11-2.87,8.1-15.1,18.37-28.88,29.24-43.78,5.39,4.84,9.9,8.63,14.11,12.73,10.79,10.49,10.71,10.51,21.87-.2,5.06-4.86,10.23-9.62,15.47-14.29.57-.5,1.99-.07,4.99-.07-1.39,2.89-1.97,5.36-3.47,6.98-7.41,7.99-15.21,15.62-22.57,23.65-4.26,4.65-7.46,3.64-11.35-.43-5.27-5.51-10.97-10.62-17.55-16.92Z"/>
      <path class="cls-2" d="M1184.46,571.53c9.56-14.19,19.11-28.37,29.47-43.75,7,6.47,13.13,11.57,18.55,17.31,5.13,5.43,8.91,4.94,13.84-.36,6.54-7.02,13.83-13.36,20.8-19.99,1.01.7,2.03,1.4,3.04,2.11-.98,2.35-1.41,5.2-3.04,6.95-7.16,7.71-14.89,14.91-21.97,22.69-4.53,4.97-7.92,4.2-12.17-.22-5.25-5.45-10.99-10.45-17.45-16.51-9.38,12.61-17.86,24.03-26.35,35.44-1.58-1.22-3.15-2.45-4.73-3.67Z"/>
      <path class="cls-2" d="M1057.01,348.71c-3,1.92-5.78,4.4-9.04,5.63-8.05,3.05-9.49,8.15-6.84,15.81,2.52,7.28,4.69,14.78,5.89,22.36.42,2.69-2.26,8.33-3.91,8.48-14.41,1.33-28.91,1.76-43.39,2.27-1.11.04-2.27-1.36-3.74-5.07,5.78-.97,11.53-2.2,17.34-2.85q25.43-2.88,18.97-27.77c-.53-2.04-.96-4.12-1.72-6.08-2.17-5.52-.01-8.66,5.33-10.4,6.47-2.1,12.88-4.35,19.32-6.53.6,1.38,1.2,2.76,1.8,4.14Z"/>
      <path class="cls-2" d="M1841.3,343.2c.66,7.61,1.37,15.23,1.96,22.85q1.98,25.52-23.59,25.89c-13.8.2-13.68.19-11.18,13.46.97,5.14,1.18,10.41,1.74,15.62-1.43.28-2.87.57-4.3.85-3.14-11.13-6.48-22.21-9.09-33.46-.24-1.03,4.1-4.34,6.47-4.51,7.72-.57,15.52-.42,23.28-.09,7.3.31,10.17-2.69,9.9-9.93-.38-10.14-.1-20.31-.1-30.47,1.64-.07,3.28-.13,4.93-.2Z"/>
      <path class="cls-2" d="M1900.21,287c1.22,2.24,2.89,4.35,3.57,6.73,1.15,4.02,1.64,8.22,2.46,12.34,4.5,22.52,4.56,22.73-17.45,27.71-7.06,1.6-8.44,4.86-6.35,11.2,2.73,8.31,5.1,16.74,7.37,25.18.8,2.99.84,6.19,1.23,9.29-1.09.34-2.17.67-3.26,1.01-1.53-3.15-3.39-6.19-4.52-9.48-3.43-9.92-6.1-20.11-9.97-29.85-3.24-8.12-1.99-11.76,7.36-13.53,21.14-3.99,21.01-4.41,17.16-26.04-.79-4.44-1.03-8.98-1.53-13.47,1.31-.37,2.62-.74,3.93-1.11Z"/>
      <path class="cls-2" d="M1609.25,189.67c-8.38-7.65-15.32-13.99-23.67-21.61-9.01,11.99-17.54,23.36-26.08,34.73-1.1-.59-2.2-1.18-3.31-1.77.62-2.25.74-4.82,1.95-6.69,6.89-10.56,14.2-20.86,21.03-31.45,3.6-5.58,6.66-5.88,11.58-1.27,5.73,5.38,12.79,14.26,18.32,13.62,6.1-.71,11.14-10.49,16.62-16.34,1.2-1.28,2.07-3.11,3.52-3.84,1.57-.78,3.64-.55,5.5-.77-.04,1.83.68,4.27-.24,5.41-7.91,9.73-16.12,19.23-25.23,29.97Z"/>
      <path class="cls-2" d="M1355.42,397.56c10.23-1.13,20.44-2.85,30.7-3.21,9.91-.35,12.48-4.14,9.1-13.14-1.72-4.56-1.84-9.78-3.88-14.15-4.92-10.56-.59-15.56,9.57-18.03,4.55-1.11,8.99-2.68,13.48-4.04.57,1.06,1.14,2.12,1.71,3.18-3.7,2.45-7.15,5.52-11.17,7.22-6.19,2.61-7.52,6.25-5.48,12.42,2.63,7.97,4.4,16.22,6.71,24.3,1.33,4.67,1.41,8.83-4.73,9.15-14.45.76-28.92,1.13-43.38,1.54-.78.02-1.6-1.12-2.4-1.72-.08-1.17-.15-2.34-.23-3.51Z"/>
      <path class="cls-2" d="M1717.71,398.98c7.95-1.4,13.12-2.46,18.35-3.19,5.25-.74,10.55-1.62,15.82-1.61,9.18,0,10.84-4.13,8.22-12.03-2.2-6.65-3.37-13.62-5.52-20.29-1.72-5.32-.94-8.6,4.92-10.38,6.47-1.97,12.73-4.57,19.09-6.89.66,1.29,1.33,2.58,1.99,3.88-3.71,2.39-7.15,5.49-11.2,6.99-6.07,2.25-7.17,6-5.66,11.52,2.32,8.46,5.04,16.85,6.55,25.45.46,2.61-2.29,8.23-3.92,8.37-14.41,1.21-28.9,1.51-43.38,1.96-.81.02-1.65-1.12-5.27-3.77Z"/>
      <path class="cls-2" d="M1609.17,109.52c12.18,6.32,24.37,12.64,37.84,19.62,2.94-8.85,5.5-16.34,7.92-23.87,4.49-13.93,4.48-14.03,18.99-10.28,4.2,1.09,8.22,2.87,12.33,4.33-.18,1-.37,2-.55,3-3.84,0-7.79.6-11.49-.12-7.87-1.55-11.6,1.38-13.51,8.99-2.43,9.68-5.95,19.1-9.65,30.68-16.13-9.99-30.52-18.91-44.91-27.82,1.01-1.51,2.02-3.02,3.03-4.53Z"/>
      <path class="cls-2" d="M871.74,277.86c3.93-15.62,7.85-31.24,12.32-49.01,16.64,10.3,31.29,19.37,45.94,28.44-.97,1.76-1.94,3.52-2.92,5.27-11.98-6.04-23.97-12.07-36.23-18.25-8.04,11.19-6.43,26.01-14.51,36.03-1.53-.83-3.07-1.66-4.6-2.48Z"/>
      <path class="cls-2" d="M508.79,140.9c1.56-2.01,2.84-4.34,4.72-5.97,3.7-3.21,7.62-6.22,11.67-8.99,7.99-5.46,16.65-15.72,24.08-14.95,13.83,1.43,27.01,9.25,40.33,14.73,1.17.48,1.35,3.32,2,5.07-2.23.33-4.78,1.52-6.64.85-9.59-3.46-19.23-6.94-28.41-11.33-6.06-2.9-10.5-2-15.36,2.03-7.02,5.82-14.31,11.32-21.63,16.77-2.52,1.88-5.45,3.22-8.2,4.8-.86-1-1.72-1.99-2.58-2.99Z"/>
      <path class="cls-2" d="M1089.16,583.35c-5.07,4.21-7.59,6.5-10.31,8.52q-17.37,12.86-31.41-3.15c-6.47-7.37-13.14-14.58-19.25-22.23-1.83-2.28-2.08-5.8-3.05-8.76,2.87,1.14,6.51,1.54,8.47,3.55,7.56,7.79,14.76,15.93,21.73,24.25,4.9,5.85,9.47,7.83,15.57,1.59,2.4-2.46,5.43-4.72,8.61-5.89,1.88-.69,4.63.91,9.65,2.12Z"/>
      <path class="cls-2" d="M1243.38,229.51c16.7,10.26,30.99,19.03,45.28,27.81-.71,1.27-1.43,2.55-2.14,3.82-14.15-1.67-23.76-14.33-38.18-17.6-4,12.42-7.9,24.55-11.81,36.68-1.8-.55-3.6-1.09-5.4-1.64,3.91-15.65,7.81-31.29,12.25-49.07Z"/>
      <path class="cls-2" d="M1082.38,474.12c-.99,1.25-1.97,3.2-2.54,3.09-2.2-.43-4.87-.96-6.28-2.46-7.45-7.96-15.12-15.83-21.65-24.52-5.78-7.68-11.13-8.74-18.13-2.21-1.53,1.43-3.24,2.97-5.16,3.61-2.31.77-4.92.64-7.4.9.93-2.62,1.1-6.04,2.91-7.73,18.05-16.85,18.91-16.73,34.9,1.66,6.47,7.43,12.95,14.85,19.37,22.32,1.34,1.56,2.47,3.3,3.97,5.34Z"/>
      <path class="cls-2" d="M1475.69,487.08c-.92-18.14-1.83-36.27-2.75-54.41.92-.76,1.84-1.51,2.76-2.27,9.69,5.79,19.37,11.58,29.06,17.37-.7,1.56-1.4,3.12-2.1,4.67-5.57-2.16-11.13-4.31-17.3-6.7-6.78,12.96,3.9,29.08-6.09,41.36-1.19,0-2.39-.02-3.58-.03Z"/>
      <path class="cls-2" d="M1187.16,254.5c-2.69-1.5-5.68-2.64-8.01-4.57-7.03-5.82-14.1-11.65-20.56-18.06-5.29-5.25-10.67-5.66-17.27-3.24-8.58,3.14-17.32,5.84-26.06,8.53-2.41.74-5.04.76-8.76-1.06,1.37-1.52,2.46-3.84,4.17-4.44,11.95-4.19,24.01-8.11,36.1-11.88,2.23-.7,5.71-1.37,7.09-.24,12.27,10.06,24.21,20.53,36.24,30.88-.98,1.36-1.96,2.72-2.93,4.07Z"/>
      <path class="cls-2" d="M1595.82,278.33c3.73-15.34,7.46-30.68,11.8-48.56,16.22,9.68,30.74,18.34,45.25,27-.66,1.41-1.33,2.82-1.99,4.22-2.61-.72-5.43-1.03-7.79-2.23-7.54-3.85-15-7.89-22.32-12.15-5.66-3.3-9-2.58-10.69,4.21-1.86,7.48-4.24,14.84-6.62,22.18-.76,2.34-2.23,4.45-3.37,6.67-1.43-.44-2.85-.89-4.28-1.33Z"/>
      <path class="cls-2" d="M1232.72,140.93c1.51-1.94,2.76-4.16,4.55-5.79,31.44-28.46,31.91-28.56,72.35-10.56,2.26,1.01,3.68,3.87,5.49,5.88-2.84.05-5.95.88-8.47,0-9-3.13-18.01-6.41-26.61-10.47-6.06-2.86-10.56-1.89-15.42,2.17-7.03,5.87-14.36,11.39-21.67,16.91-2.35,1.77-5.06,3.09-7.6,4.61-.87-.92-1.74-1.83-2.62-2.75Z"/>
      <path class="cls-2" d="M1021.39,84c1.39-8.42,17.44-23.63,22.45-23.11,1.29.14,2.85.83,3.68,1.79,11.95,13.62,23.8,27.33,35.68,41.02-.79,1.11-1.57,2.21-2.36,3.32-2.73-1.43-6.08-2.28-8.08-4.39-7.27-7.65-14.63-15.33-20.91-23.76-5.76-7.72-11.16-8.42-18.39-2.47-3.13,2.58-6.91,4.39-12.07,7.59Z"/>
      <path class="cls-2" d="M1830.41,234.44c3.43-1.65,6.95-3.17,10.29-4.99,23.96-13.04,44.93-11.59,62.34,11.49,2.68,3.55,8.2,4.99,12.41,7.41-1.4,1.78-2.79,3.56-4.19,5.34-2.21-.63-4.88-.7-6.55-2.01-4.42-3.45-9.03-6.96-12.47-11.31-11.54-14.61-25.21-15.04-40.92-7.65-6.05,2.84-12.73,4.36-19.12,6.48-.6-1.59-1.19-3.18-1.79-4.77Z"/>
      <path class="cls-2" d="M1744.6,456.22c.24-4.77-.49-7.83.59-8.71,6.49-5.31,13.18-10.46,20.33-14.81,1.37-.84,5.83,1.48,7.62,3.45,9.88,10.89,19.47,22.04,28.88,33.33,1.46,1.75,1.43,4.71,2.09,7.11-2.56-.98-5.86-1.27-7.56-3.06-7.7-8.13-15.29-16.41-22.24-25.16-5.09-6.41-9.63-6.91-15.7-1.6-3.37,2.95-7.45,5.09-14.01,9.46Z"/>
      <path class="cls-2" d="M1027.79,309.76c4.23-11.74,8.46-23.48,13.14-36.47,13.41,8.09,25.12,15,36.61,22.27,1.6,1.01,2.1,3.76,3.11,5.7-2.46,0-5.34.84-7.31-.13-6.92-3.42-13.69-7.19-20.19-11.34-5.76-3.68-8.74-1.96-11.24,3.76-2.77,6.32-6.17,12.36-9.29,18.53-1.61-.77-3.22-1.55-4.83-2.32Z"/>
      <path class="cls-2" d="M1803.94,107.01c-2.65-1.62-5.8-2.78-7.86-4.95-7.44-7.89-14.88-15.84-21.61-24.33-5.29-6.67-10.12-7.44-16.67-1.98-3.29,2.74-7.4,4.51-11.14,6.72-.89-1.04-1.79-2.09-2.68-3.13,4.15-3.77,8.08-7.8,12.48-11.25,11.54-9.05,11.66-8.98,21.13,2.03,9.67,11.24,19.27,22.54,28.9,33.81-.85,1.03-1.7,2.06-2.55,3.08Z"/>
      <path class="cls-2" d="M1804.38,304.97c-10.69-5.9-19.11-10.01-26.93-15.03-6.74-4.33-10.04-2.2-12.75,4.32-2.58,6.19-5.72,12.14-8.61,18.2-1.57-.63-3.14-1.26-4.71-1.89,4.13-11.84,8.27-23.67,12.38-35.47,15.34,4.79,37.7,20,40.62,29.87Z"/>
      <path class="cls-2" d="M1406.69,596.97c-4.64,9.88-6.52,10.25-13.8,1.99-8.38-9.5-16.9-18.89-24.96-28.65-2.1-2.54-2.73-6.26-4.03-9.44,3.3,1.66,7.32,2.64,9.78,5.12,7.17,7.25,13.47,15.34,20.63,22.6,3.17,3.21,7.6,5.21,12.38,8.37Z"/>
      <path class="cls-2" d="M698.52,89.42c-6.27-5.53-11.92-14.28-19.01-15.65-6.53-1.26-14.62,5.42-24.21,9.54,1.25-3.71,1.35-6.1,2.6-7.39,18-18.68,20.86-18.67,37.93.64,2.75,3.11,4.33,7.25,6.45,10.91-1.25.65-2.51,1.3-3.76,1.95Z"/>
      <path class="cls-2" d="M900.58,465.49c-.99,5.06-1.36,10.35-3.13,15.14-2.51,6.8.25,9.7,6.39,11.49,4.63,1.35,9.12,3.19,13.67,4.81-.46,1.75-.91,3.5-1.37,5.25-9.83-2.01-19.67-3.92-29.43-6.22-.77-.18-1.67-3.25-1.21-4.53,3.23-9.06,6.79-18,10.24-26.99,1.61.35,3.22.7,4.83,1.05Z"/>
      <path class="cls-2" d="M964.36,405.08c-3.9,2.08-7.58,4.9-11.74,6.09-8.04,2.3-9.71,6.58-6.66,13.97,1.73,4.18,2.39,8.79,3.54,13.21-1.47.58-2.94,1.16-4.41,1.74-4.31-8.95-8.72-17.86-12.77-26.93-.42-.93,1.02-3.74,2.13-4.1,9.28-3.03,18.68-5.7,28.05-8.48.62,1.5,1.25,3,1.87,4.5Z"/>
      <path class="cls-2" d="M1422.82,89.16c-3.92-3.34-8.38-6.25-11.66-10.12-6.64-7.85-13.11-8.14-20.64-1.43-2.44,2.17-5.64,3.51-8.49,5.23-.92-.95-1.84-1.89-2.77-2.84,2.64-2.8,5.1-5.81,7.98-8.34,3.43-3.02,7.07-5.87,10.94-8.31,1.83-1.16,5.61-2.36,6.44-1.52,7.6,7.62,14.74,15.69,22.01,23.63-1.27,1.24-2.54,2.47-3.81,3.71Z"/>
      <path class="cls-2" d="M240.38,34.12c-3.6,2.05-6.98,4.97-10.85,5.97-9.48,2.44-10.2,7.9-7.08,15.68,1.46,3.65,2.29,7.55,3.73,12.41-6.18-2.6-18.19-22.1-17.41-26.55.22-1.24,1.03-3.08,1.97-3.37,9.33-2.86,18.74-5.45,28.13-8.12.5,1.32,1,2.65,1.5,3.97Z"/>
      <path class="cls-2" d="M585.09,70.38c-4.01-3.09-6.25-4.04-7.25-5.73-2.12-3.58-3.61-7.54-5.34-11.35q-6.77-14.86,9.51-19.07c5.24-1.35,10.51-2.61,15.76-3.92.49.88.98,1.75,1.47,2.63-2.35,1.86-4.47,4.17-7.09,5.5-13.3,6.76-13.29,6.66-8.74,21.43.75,2.42.83,5.04,1.68,10.5Z"/>
      <path class="cls-2" d="M806.33,125.24c1.21-1.62,2.08-3.79,3.69-4.76,3.91-2.36,8.14-4.21,12.27-6.19,15.35-7.34,26.2-.12,27.29,19.28-6.79-4.56-12.67-11.36-19.28-12.16-7.09-.85-14.88,3.94-22.37,6.27-.53-.81-1.07-1.63-1.6-2.44Z"/>
      <path class="cls-2" d="M963.68,34.36c-4.01,2.14-7.8,4.98-12.07,6.28-7.76,2.36-8.87,6.68-6.1,13.55,1.71,4.25,2.53,8.85,3.74,13.3-1.3.55-2.6,1.11-3.89,1.66-4.37-8.71-8.91-17.33-12.87-26.22-.49-1.11,1.77-4.69,3.4-5.24,8.54-2.86,17.29-5.1,25.96-7.56.61,1.41,1.22,2.82,1.83,4.23Z"/>
      <path class="cls-2" d="M1093.84,561.68c-4.58-9.25-9.16-18.51-14.72-29.75,11.51-3.33,21.5-6.22,31.49-9.11.59,1.35,1.17,2.69,1.76,4.04-3.53,1.97-6.85,4.69-10.64,5.78-9.1,2.6-10.74,7.53-6.83,15.62,1.71,3.53,2.31,7.59,3.42,11.41-1.49.67-2.98,1.33-4.47,2Z"/>
      <path class="cls-2" d="M1322.46,34c-3.72,2.1-7.23,4.84-11.21,6.18-7.77,2.61-9.78,6.92-6.46,14.35,1.75,3.91,2.53,8.25,3.75,12.4-.83.53-1.65,1.06-2.48,1.59-1.71-1.6-3.96-2.92-5.03-4.86-2.36-4.28-3.72-9.13-6.24-13.31-4.83-7.99-3.65-12.76,6.18-14.69,6.75-1.32,13.34-3.41,20.01-5.16.49,1.17.99,2.33,1.48,3.5Z"/>
      <path class="cls-2" d="M1304.35,439.63c-4.64-9.23-9.28-18.47-14.81-29.48,11.47-3.38,21.28-6.28,31.1-9.18.64,1.37,1.28,2.75,1.91,4.12-3.81,2.01-7.42,4.63-11.47,5.89-7.93,2.48-9.87,6.7-6.37,14.21,1.87,4.01,2.55,8.57,3.77,12.88-1.38.52-2.76,1.04-4.14,1.56Z"/>
      <path class="cls-2" d="M1408.1,248.18c-9.81-1.64-19.62-3.28-31.65-5.3,4.68-11.77,8.58-21.56,12.47-31.34,1.42.46,2.84.93,4.27,1.39-.95,4.49-1.47,9.13-2.93,13.45-2.36,6.99-1.33,11.37,6.9,12.9,4.16.78,8.04,3.02,12.05,4.6-.37,1.43-.73,2.86-1.1,4.28Z"/>
      <path class="cls-2" d="M848.19,504.88c-2.12-1.6-4.73-2.59-5.6-4.39-5.33-11.04-13.42-10.12-22.8-6.04-3.8,1.65-8.04,2.33-13.78,3.92,4.48-7.29,25.55-18.92,30.16-18.05,5.31,1,13.58,17,12.01,24.56Z"/>
      <path class="cls-2" d="M1241.65,497.12c-1.86-1.15-4.59-1.86-5.43-3.51-5.77-11.27-14.11-10.49-23.89-5.95-3.49,1.62-7.6,1.94-11.42,2.85-.54-1.29-1.08-2.59-1.63-3.88,9.8-4.34,19.52-8.91,29.52-12.72,1.2-.46,4.54,2.82,5.92,4.97,3.41,5.32,6.26,10.99,9.33,16.52-.8.58-1.6,1.15-2.4,1.73Z"/>
      <path class="cls-2" d="M1912.94,41.23c11.15,5.1,20.28,9.28,29.42,13.46-.36,1.14-.72,2.28-1.07,3.43-3.81-.58-7.99-.37-11.35-1.9-9.57-4.37-13.33.08-15.59,8.54-.93,3.47-2.94,6.66-4.46,9.97-1.1-.42-2.2-.84-3.3-1.26,2.01-10.19,4.02-20.38,6.36-32.23Z"/>
      <path class="cls-2" d="M1371.28,451.22c9.78-4.46,19.54-8.99,29.4-13.26.85-.37,2.99.57,3.58,1.49,4.18,6.54,8.12,13.24,12.13,19.89-.91.78-1.81,1.57-2.72,2.35-2.09-1.6-4.93-2.77-6.15-4.86-5.32-9.13-12.25-9.94-21.21-5.54-4.09,2.01-8.82,2.73-13.25,4.03-.59-1.37-1.19-2.73-1.78-4.1Z"/>
      <path class="cls-2" d="M1572.45,132.24c-6.31-4.01-12.3-10.46-19.02-11.34-6.78-.88-14.29,3.77-21.47,6-.57-1.51-1.14-3.01-1.71-4.52,9.68-4.19,19.38-11.45,29.02-11.36,5.33.05,10.55,12.4,15.82,19.2-.88.67-1.75,1.34-2.63,2.01Z"/>
      <path class="cls-2" d="M1825.16,162.38c-8.54-5.77-14.42-12.56-21.12-13.49-6.66-.92-14.14,4.05-21.27,6.44-.64-1.27-1.27-2.53-1.91-3.8,4.35-2.39,8.59-5,13.07-7.12q18.61-8.8,28.44,9.69c1.02,1.92,1.43,4.17,2.78,8.27Z"/>
      <path class="cls-2" d="M1164.95,122.66c9.9-4.36,19.75-8.87,29.8-12.88,1.03-.41,3.83,1.74,4.79,3.31,3.67,5.95,6.91,12.16,8.41,19.18-6.42-3.84-12.55-10.06-19.34-10.86-6.98-.83-14.59,3.63-21.93,5.77-.58-1.5-1.15-3-1.73-4.51Z"/>
      <path class="cls-2" d="M1099.64,161.63c-1.28-.44-3.29-.51-3.72-1.37-7.82-15.67-19.33-12.12-31.51-6.31-1.86.89-4.36.47-6.56.66-.46-1.16-.92-2.32-1.38-3.48,10.1-4.55,20.12-9.29,30.42-13.34,1.03-.41,4.18,3.15,5.61,5.34,3.49,5.33,6.55,10.94,9.79,16.44-.88.69-1.76,1.37-2.64,2.06Z"/>
      <path class="cls-2" d="M1686.37,34.72c-3.86,2-7.52,4.73-11.63,5.84-8,2.15-8.92,6.49-6.08,13.35,1.75,4.22,2.61,8.8,3.87,13.21-1.28.54-2.55,1.07-3.83,1.61-4.21-8.77-8.53-17.5-12.48-26.38-.4-.91,1.08-3.69,2.2-4.05,8.83-2.82,17.79-5.27,26.71-7.83.41,1.42.83,2.84,1.24,4.25Z"/>
      <path class="cls-2" d="M1931.14,131.74c-6.25-3.76-12.22-9.85-18.82-10.63-6.76-.8-14.14,3.6-21.25,5.72-.57-1.45-1.14-2.9-1.71-4.35,9.52-4.26,18.94-8.81,28.7-12.44,1.3-.48,4.87,3.38,6.51,5.82,3.17,4.73,5.72,9.87,8.52,14.84-.65.35-1.3.7-1.95,1.05Z"/>
      <path class="cls-2" d="M669.83,212.89c-.95,4.56-1.42,9.28-2.96,13.64-2.59,7.33-.54,11.2,7.25,12.69,3.85.74,7.46,2.71,10.5,6.52-9.65-1.24-19.31-2.49-31.09-4,4.04-10.67,7.76-20.52,11.49-30.38,1.6.51,3.2,1.02,4.8,1.53Z"/>
      <path class="cls-2" d="M1441.22,525.03c3.48-10.65,6.71-20.5,9.93-30.35,1.25.26,2.5.51,3.75.77-.19,3.1-.3,6.21-.59,9.31-.39,4.15-1.84,8.42-1.23,12.39,1.72,11.13,1.63,11.44-11.87,7.88Z"/>
      <path class="cls-2" d="M969.56,275c-9.03,5.76-17.27,11.15-25.7,16.22-1.06.64-3.71.06-4.63-.89-.8-.83-.79-4.04-.12-4.41,8.71-4.85,17.58-9.42,26.49-13.9.38-.19,1.51,1.1,3.96,2.99Z"/>
      <path class="cls-2" d="M1327.89,275.93c-9.4,5.61-18.8,11.22-28.2,16.83.97-10.28,17.78-20.4,28.2-16.83Z"/>
      <path class="cls-2" d="M1691.9,275.84c-8.24,5.01-16.43,10.09-24.76,14.94-.89.52-2.97.15-3.76-.58-.75-.69-1-2.58-.63-3.66,1.4-4.08,22.34-13.82,29.16-10.69Z"/>
      <path class="cls-2" d="M455.42,28.38c-1.65,10.08-3.3,20.17-4.94,30.25-2.09-.35-4.17-.71-6.26-1.06,1.82-10.06,3.64-20.11,5.46-30.17l5.75.97Z"/>
      <path class="cls-2" d="M1174.29,58.17c-6.98-7.09-4.54-23.44,4.34-29.58-1.45,9.86-2.89,19.72-4.34,29.58Z"/>
      <path class="cls-2" d="M1179.25,397.06c-1.91,12.19-3.47,22.09-5.12,32.61-7.91-4.73-5.36-25.13,5.12-32.61Z"/>
      <path class="cls-2" d="M1942.05,338.78c-1.6,9.61-3.2,19.22-4.8,28.83l-4.2-.64c-2.31-10.16,1.42-19.51,4.21-28.98,1.6.27,3.19.53,4.79.8Z"/>
      <path class="cls-2" d="M727.57,108.87c-2.49,8.9-4.97,17.8-8.16,29.2-5.37-9.82-2.22-23.7,4.42-30.23,1.25.34,2.49.69,3.74,1.03Z"/>
      <path class="cls-2" d="M816.69,402.67c-2.29,8.28-4.52,16.57-7.03,24.78-.19.62-2.61,1.16-3.6.77-.96-.38-2.17-2.22-1.95-3.08,2.03-8.06,4.34-16.05,6.58-24.07,2,.53,4,1.07,6,1.6Z"/>
      <path class="cls-2" d="M987.01,426.93c3.71,5.33,7.3,8.22,7.08,10.79-.23,2.68-3.99,6.86-6.48,7.05-2.44.19-7.26-3.72-7.34-5.97-.11-3.04,3.29-6.22,6.74-11.88Z"/>
      <path class="cls-2" d="M812.48,32.76c-5.07,3.89-7.93,7.74-10.94,7.87-2.38.1-7.26-4.77-6.92-6.72.54-3.08,4.13-6.89,7.21-7.82,2.05-.62,5.48,3.25,10.64,6.67Z"/>
      <path class="cls-2" d="M766.55,177.5c2.37-8.25,4.67-16.53,7.25-24.71.22-.7,2.9-1.51,3.48-1.06,1.15.9,2.53,2.87,2.23,3.99-2.07,7.86-4.54,15.62-6.88,23.4-2.03-.54-4.05-1.09-6.08-1.63Z"/>
      <path class="cls-2" d="M161.91,20.75c-4.53,3.46-7.38,7.34-10.05,7.21-2.65-.12-7.5-4.8-7.12-6.54.7-3.13,4.22-7.01,7.28-7.77,2.09-.53,5.4,3.69,9.88,7.09Z"/>
      <path class="cls-2" d="M1438.01,332.03c1.79-9.12,2.54-18.59,8.8-26.16,1.44.46,2.88.91,4.33,1.37-2.7,8.86-5.39,17.72-8.09,26.57-1.68-.6-3.35-1.19-5.03-1.79Z"/>
      <path class="cls-2" d="M1870.15,49.38c1.68-9.64,3.36-19.29,5.05-28.93,1.85.28,3.69.56,5.54.84-1.46,9.76-2.92,19.51-4.37,29.27-2.07-.39-4.14-.79-6.21-1.18Z"/>
      <path class="cls-2" d="M1686.34,400.95c-2.33,5.66-17.76,15.32-21.07,14.15-1.33-.47-3.12-2.56-2.96-3.66.26-1.71,1.78-3.44,3.19-4.7.94-.84,2.6-.93,3.95-1.29,5.03-1.36,10.06-2.69,16.88-4.5Z"/>
      <path class="cls-2" d="M78.12,44.34c-3.39-5.17-6.94-8.19-6.66-10.81.31-2.8,4.23-5.21,6.58-7.79,2.43,2.47,6.55,4.78,6.81,7.46.26,2.72-3.29,5.8-6.73,11.14Z"/>
      <path class="cls-2" d="M625.51,75.87c-4.75,3.43-7.74,7.24-10.42,7.04-2.55-.19-6.7-4.65-6.61-7.1.09-2.58,4.22-6.76,6.89-7.01,2.57-.24,5.54,3.65,10.14,7.07Z"/>
      <path class="cls-2" d="M885.32,20.83c-4.62,3.41-7.5,7.18-10.14,7.02-2.58-.16-7.26-4.92-6.83-6.59.8-3.1,4.3-6.78,7.38-7.58,1.97-.51,5.2,3.7,9.59,7.15Z"/>
      <path class="cls-2" d="M816.43,148.45c3.84,4.85,8,7.88,7.61,10.15-.52,3.08-4.52,5.59-7.03,8.34-2.34-2.48-6.24-4.77-6.57-7.48-.33-2.68,2.96-5.8,5.99-11.01Z"/>
      <path class="cls-2" d="M1121.02,592.28c3.17,5.1,6.72,8.28,6.3,10.81-.44,2.7-4.65,4.78-7.21,7.13-2.28-2.59-6.22-5.09-6.36-7.79-.13-2.61,3.66-5.41,7.27-10.16Z"/>
      <path class="cls-2" d="M1140.83,559.12c2.36-8.66,4.72-17.32,7.39-27.14,6.17,6.72,3.62,19.46-3.8,28.02-1.2-.29-2.39-.59-3.59-.88Z"/>
      <path class="cls-2" d="M1492.92,177.83c-2.16-9.67,1.67-21.81,11.19-27.64-3.07,11.21-5.44,19.9-7.82,28.58-1.12-.31-2.25-.63-3.37-.94Z"/>
      <path class="cls-2" d="M1181.42,159.61c-4.82,3.29-7.91,7.02-10.3,6.62-2.73-.46-6.74-4.63-6.68-7.1.06-2.47,4.29-6.46,7.03-6.76,2.41-.27,5.29,3.64,9.95,7.25Z"/>
      <path class="cls-2" d="M1126.2,177.11c2.14-8.66,4.29-17.31,6.58-26.56,6.73,5.09,4.25,19.4-3.41,27.35-1.05-.26-2.11-.53-3.16-.79Z"/>
      <path class="cls-2" d="M1939.25,299c-4.98,2.89-8.07,6.11-10.81,5.84-2.34-.23-4.27-4.48-6.39-6.95,2.68-2.17,5.16-5.62,8.1-6.07,2.03-.31,4.71,3.53,9.1,7.19Z"/>
      <path class="cls-2" d="M1098.24,189.17c-4.91,3.89-7.45,7.42-10.25,7.64-2.23.17-6.89-3.92-6.7-5.73.31-2.95,3.26-7.14,5.91-7.87,2.27-.62,5.7,2.88,11.04,5.96Z"/>
      <path class="cls-2" d="M707.87,196.46c-4.72,3.79-7.48,7.72-9.95,7.55-2.71-.19-7.08-4.11-7.16-6.52-.08-2.53,3.74-6.77,6.46-7.33,2.38-.48,5.6,3.12,10.65,6.3Z"/>
      <path class="cls-2" d="M1349.12,76.28c-5.19,3.22-8.45,6.83-10.97,6.37-2.53-.46-5.72-4.85-5.95-7.72-.15-1.95,4.41-6.07,6.68-5.95,2.83.15,5.47,3.68,10.23,7.3Z"/>
      <path class="cls-2" d="M1450.96,109.25c-2.55,8.69-5.11,17.38-7.66,26.08-1.81-.51-3.61-1.02-5.42-1.52,2.3-8.74,4.61-17.48,6.91-26.23,2.05.56,4.11,1.12,6.16,1.67Z"/>
      <path class="cls-2" d="M1306.01,499.47c-4.94,3.47-8.05,7.31-10.52,6.94-2.56-.38-5.82-4.64-6.25-7.57-.28-1.85,4.1-6.21,6.3-6.15,2.85.07,5.62,3.42,10.47,6.78Z"/>
      <path class="cls-2" d="M1524.01,43.97c-2.77-5.51-5.67-8.67-5.38-11.53.23-2.36,4.21-4.37,6.53-6.53,2.32,2.55,6.38,5.04,6.48,7.68.1,2.63-3.75,5.41-7.63,10.38Z"/>
      <path class="cls-2" d="M1450.99,450.47c-4.87,2.92-7.87,6.03-10.87,6.04-1.97,0-5.97-5.02-5.47-6.82.75-2.71,4.45-5.99,7.24-6.34,2.15-.27,4.83,3.58,9.1,7.11Z"/>
      <path class="cls-2" d="M1245.51,10.02c3.18,5.45,6.59,8.68,6.13,11.23-.47,2.61-4.73,4.54-7.33,6.77-2.05-2.43-5.77-4.9-5.71-7.27.07-2.83,3.38-5.57,6.92-10.72Z"/>
      <path class="cls-2" d="M531.6,20.15c-4.42,3.76-7.1,7.79-9.7,7.74-2.51-.04-6.83-4.23-6.91-6.7-.07-2.57,3.66-6.92,6.31-7.42,2.4-.45,5.59,3.26,10.29,6.38Z"/>
      <path class="cls-2" d="M1849.38,177.17c2.45-8.59,4.89-17.19,7.34-25.78,1.76.46,3.53.92,5.29,1.38-2.23,8.61-4.47,17.22-6.7,25.82-1.97-.47-3.95-.95-5.92-1.42Z"/>
      <path class="cls-2" d="M1895.08,148.96c3.15,5.16,6.28,8.07,6.25,10.94-.03,2.23-4.62,6.59-6.08,6.18-2.93-.83-6.8-4.08-7.1-6.7-.29-2.51,3.43-5.48,6.93-10.42Z"/>
      <path class="cls-2" d="M1403.51,301.63c-5.25,3.06-8.21,6.14-10.97,5.98-2.31-.13-6.54-4.61-6.13-6.19.76-2.9,4.1-6.74,6.76-7.07,2.42-.3,5.35,3.55,10.34,7.27Z"/>
      <path class="cls-2" d="M1205.37,308.79c-3.24-5.31-6.74-8.5-6.31-11.04.43-2.53,4.64-5.7,7.52-6.08,1.76-.23,5.88,4.34,5.81,6.66-.09,2.81-3.48,5.51-7.02,10.46Z"/>
      <path class="cls-2" d="M1426.31,193.89c3.54,4.9,7.01,7.63,7.12,10.49.09,2.36-4.15,7.06-5.87,6.79-2.92-.44-7.13-3.71-7.52-6.27-.4-2.64,3.13-5.86,6.27-11.01Z"/>
      <path class="cls-2" d="M1599.55,10.27c2.97,5.35,6.4,8.75,5.79,11.15-.67,2.66-5.02,4.41-7.77,6.56-1.96-2.48-5.63-5.1-5.44-7.4.23-2.84,3.68-5.42,7.42-10.31Z"/>
      <path class="cls-2" d="M1571.56,255.78c-5.09,3.54-8.08,7.22-10.6,6.93-2.59-.29-5.97-4.21-6.58-7.05-.36-1.68,3.95-6.04,6.26-6.12,2.8-.09,5.72,3.06,10.92,6.24Z"/>
      <path class="cls-2" d="M1550.76,158.8c-4.66,3.66-7.18,7.11-9.96,7.33-2.11.17-6.56-3.92-6.4-5.83.24-2.91,3.15-7.27,5.68-7.86,2.31-.53,5.6,3.13,10.68,6.35Z"/>
      <path class="cls-2" d="M1247.56,603.18c-4.98,3.2-8.25,6.86-10.49,6.32-2.61-.63-5.64-4.8-5.95-7.69-.2-1.89,4.25-6.1,6.38-5.95,2.78.19,5.34,3.66,10.06,7.32Z"/>
      <path class="cls-2" d="M1810.73,179.87c3.55,4.47,7.28,7.17,6.98,9.29-.41,2.86-3.93,5.29-6.12,7.9-2.33-2.11-6.41-4.12-6.54-6.35-.17-2.84,2.87-5.86,5.68-10.84Z"/>
      <path class="cls-2" d="M1720.96,437.88c-4.77,3.37-7.5,6.78-10.27,6.8-2.33.02-4.69-3.91-7.03-6.09,2.44-2.45,4.54-6.11,7.44-6.92,1.93-.54,5.02,2.99,9.86,6.21Z"/>
      <path class="cls-2" d="M1315.12,707c-5.27,2.79-10.54,5.59-15.81,8.38-.79-1.52-1.58-3.04-2.36-4.55,5.29-2.77,10.59-5.53,15.88-8.3.76,1.49,1.53,2.98,2.29,4.47Z"/>
      <path class="cls-2" d="M162.41,709.94c-35.1-.27-60.01-27.07-59.61-64.17.35-33.33,26.66-58.61,60.71-58.34,33.31.26,61.13,28.49,60.9,61.78-.23,33.12-28.67,60.98-61.99,60.73Z"/>
      <path class="cls-1" d="M796.23,95.33c-12.54,7.19-22.71,13.01-34.89,19.99v-41.24c12.1,7.37,22.56,13.74,34.89,21.24Z"/>
      <path class="cls-1" d="M907.33,356.17c-14.06-5.04-25.05-8.99-36.28-13.02,9.43-9.19,17.68-17.22,26.95-26.25,2.89,12.14,5.72,24.07,9.33,39.27Z"/>
      <path class="cls-1" d="M932.6,199.46c10.42-6.44,20.84-12.87,33.76-20.85,1.39,15.26,2.52,27.7,3.93,43.25-14.32-7.18-25.91-13-37.51-18.82-.06-1.19-.12-2.39-.18-3.58Z"/>
      <path class="cls-1" d="M1521.03,95.38c-13.35,7.48-23.84,13.36-36.44,20.42v-42.4c12.48,7.53,23.24,14.02,36.44,21.99Z"/>
      <path class="cls-1" d="M605.89,222.12c-14.55-7.35-25.98-13.12-40.29-20.35,12.31-8.06,22.55-14.76,36.25-23.74,1.41,15.46,2.57,28.15,4.03,44.09Z"/>
      <path class="cls-1" d="M1154.56,467.81c-11.21,5.81-22.41,11.62-35.4,18.36v-41.83c12.83,7.31,23.98,13.65,35.12,20,.09,1.16.19,2.32.28,3.47Z"/>
      <path class="cls-1" d="M1880.55,95.49c-13.46,7.31-24.26,13.17-37.06,20.13v-42.11c12.59,7.47,23.55,13.97,37.06,21.99Z"/>
      <path class="cls-1" d="M1119.96,115.42v-41.48c12.39,7.2,23.4,13.59,36.85,21.41-13.39,7.29-24.15,13.15-36.85,20.07Z"/>
      <path class="cls-1" d="M1329.35,222.37c-14.54-7.42-26.16-13.36-40.73-20.8,12.27-7.73,22.03-14.07,32.1-19.88.9-.52,5.37,2.2,5.55,3.71,1.32,11.27,1.98,22.62,3.08,36.96Z"/>
      <path class="cls-1" d="M1222.47,350.22c10.87-10.22,19.56-18.4,30.4-28.59,3.55,15.01,6.42,27.15,10.05,42.54-14.52-5.01-25.9-8.93-40.45-13.95Z"/>
      <path class="cls-1" d="M1164.56,662.19v-42.4c12.81,7.48,23.65,13.81,37.6,21.95-13.72,7.46-24.66,13.42-37.6,20.46Z"/>
      <path class="cls-1" d="M1288.43,572.17c13.03-8.28,23.6-14.99,36.83-23.39,1.66,15.69,3.01,28.5,4.73,44.74-14.71-7.56-26.76-13.75-41.55-21.35Z"/>
      <path class="cls-1" d="M1689.98,178.39c1.6,15.93,2.86,28.51,4.43,44.09-13.59-6.81-24.8-12.25-35.73-18.2-1.05-.57-1.3-5.72-.32-6.37,9.52-6.3,19.39-12.09,31.62-19.52Z"/>
      <path class="cls-1" d="M1621.58,313.54c3.51,15.71,6.26,27.99,9.57,42.82-12.76-4.39-22.75-7.5-32.38-11.46-1.55-.64-2.99-6.42-1.97-7.51,7.11-7.56,14.89-14.5,24.78-23.85Z"/>
    </g>
    <polyline class="cls-2" points="2136.84 306.53 2234.3 206.82 2239.91 237.07 2322.81 185.53 2216.38 319.97 2210.78 259.47 2136.84 306.53"/>
  </g>
  <g id="Ebene_2" data-name="Ebene 2">
    <polygon class="cls-3" points="2498.7 562 2317.87 813.5 2419.72 813.5 2365.68 983.93 2548.58 736.59 2448.82 736.59 2498.7 562"/>
  </g>
</svg>