<?xml version="1.0" encoding="UTF-8"?>
<svg id="Ebene_1" data-name="Ebene 1" xmlns="http://www.w3.org/2000/svg" viewBox="0 0 1920 1278">
  <defs>
    <style>
      .cls-1 {
        fill: #000;
      }

      .cls-1, .cls-2 {
        stroke-width: 0px;
      }

      .cls-2 {
        fill: #fff;
      }
    </style>
  </defs>
  <path class="cls-2" d="M1919,362.75v929.6H-5.32V-2h1924.31v22.93c-11.27-9.69-23.31-18.33-38.82-19-17.49-.75-35.03-.39-52.55-.65-5.7-.09-8.7,2.05-7.85,7.99,1.18,8.25-3.14,10.16-10.47,9.82-8.8-.41-17.63-.1-27.35-.1,1.58,11.25,2.78,19.69,3.97,28.13-1.47.32-2.94.62-4.41.94-2.78-9.72-5.46-19.47-8.39-29.14-1.85-6.12.42-8.3,6.57-8.15,8.4.22,16.84.29,25.22-.21,2.18-.13,4.22-2.59,6.33-3.99-1.8-1.68-3.58-4.8-5.42-4.83-20.53-.35-41.07-.22-63.39-.22,1.51,6.65,2.37,11.64,3.83,16.44,1.92,6.34.8,9.97-6.77,10.29-11.9.51-23.77,1.69-35.66,2.11-2.59.09-5.27-1.85-7.91-2.86.18-.98.37-1.97.54-2.95,13.6-1.56,27.19-3.13,40.65-4.67-1.02-17.8-1.82-18.71-17.64-18.5-8.03.11-16.06,1.24-24.07,1.17-33.23-.26-66.46-1.01-99.69-1.18-40.31-.2-80.61-.11-120.92.3-3.55.04-10.29,3.77-10.12,5.04,2.11,15.12-7.44,13.34-16.87,12.35-3.47-.37-7.04-.03-10.49-.47-9.24-1.17-12.27,1.94-9.28,11.17,1.79,5.53,1.99,11.57,2.91,17.39-1.55.27-3.12.54-4.67.81-2.88-9.48-5.68-18.98-8.65-28.43-2.09-6.66.64-8.87,7.18-8.62,7.34.27,14.76.47,22.05-.18,3.18-.28,6.17-2.75,9.24-4.23-2.88-1.66-5.66-4.5-8.66-4.76-8-.68-16.11-.28-24.16-.28h-41.36c1.63,7.2,2.48,12.56,4.11,17.7,2.05,6.52-.3,8.89-6.82,9.16-12.25.5-24.48,1.56-36.73,2.04-2.45.1-4.98-1.38-7.47-2.13.09-1.16.19-2.32.28-3.47,10.89-1.26,21.75-2.89,32.68-3.65,7.5-.52,9.92-3.15,7.78-10.56-1.78-6.21-4.64-9.39-11.66-9.2-20.3.58-40.62.95-60.94.9-45.9-.12-91.8-.57-137.7-.81-17.52-.09-35.06-.25-52.57.31-3.1.1-8.87,3.88-8.69,5.41,1.48,12.73-6.58,12.34-15.12,11.96-3.15-.14-6.31.02-9.46.04-14.49.11-14.37.08-11.54,13.85.94,4.58,1.06,9.32,1.55,14-1.44.26-2.86.51-4.3.77-2.7-9.06-5.08-18.21-8.2-27.12-2.63-7.53-.34-10.32,7.47-10.06,8.05.27,16.14.33,24.16-.21,2.07-.14,3.96-2.83,5.94-4.35-1.62-1.46-3.23-4.17-4.87-4.19-20.53-.29-41.08-.19-62.99-.19,1.79,9.3,3.26,16.89,4.68,24.34-17.87,5.59-48.07,5.25-52.32-1.89,11.04-1.06,21.34-2.11,31.66-3.01,10.83-.95,12.83-3.19,8.35-12.79-1.51-3.26-7.17-6.46-10.98-6.52-20.2-.34-40.43.65-60.65.61-62.72-.13-125.44-.46-188.16-.91-7.46-.05-12.52,1.04-11.12,10.16,1.11,7.24-2.88,9.05-9.43,8.31-5.91-.66-11.89-.62-17.83-1.09-7.95-.62-12.5,1.08-8.94,10.43,1.71,4.49,2.47,9.42,3.01,14.23.19,1.67-1.63,3.55-2.54,5.35-.9-.07-1.81-.13-2.71-.2-3.51-12.01-7.03-24.01-11.19-38.22,11.6,0,20.98.39,30.28-.2,3.54-.22,6.95-2.67,10.42-4.11-3.31-1.51-6.57-4.23-9.93-4.34-14.71-.49-29.44-.24-44.16-.25h-19.52c1.8,7.4,2.72,12.5,4.31,17.38,2.01,6.22.22,9.24-6.49,9.57-12.6.63-25.18,1.63-37.78,2.1-2.4.09-4.86-1.57-7.29-2.43.11-1.15.23-2.29.34-3.43,10.52-1.32,21.03-2.65,31.56-3.94,10.47-1.28,11.52-3.46,8.13-13.25-2.41-6.94-7.74-5.94-12.86-5.94-50.05.02-100.08.11-150.13.17-32.24.04-64.49-.03-96.73.15-4.43.02-11.75-1.79-10.82,5.82,1.5,12.37-5.75,11.96-14.08,11.47-3.84-.23-7.71-.1-11.56-.03-12.73.23-13.12.87-10.63,13.22,1.03,5.11,1.35,10.35,1.99,15.53l-4.41.74c-2.41-7.76-5.05-15.45-7.17-23.29-4.04-14.97-3.92-14.89,11.49-14.96,8.41-.03,16.83-.51,25.23-.78.18-1.47.36-2.95.53-4.42-3.08-1.12-6.15-3.14-9.25-3.2-16.82-.33-33.65-.02-50.46-.26-7.58-.11-9.11,3.42-7.39,9.86,1.3,4.86,2.39,9.77,3.87,15.94-15.79,1.15-30,2.41-44.26,3.04-2.75.12-5.62-2.23-8.43-3.43,2.8-1.38,5.48-3.56,8.41-3.97,10.65-1.46,21.39-2.32,31.91-3.39.59-15.57-1.38-17.88-14.99-17.93-22.62-.08-45.24-.03-67.85-.02-59.59.02-119.17.11-178.76-.02-6.82,0-11.1,1.62-10.04,9.27,1.14,8.21-3.57,9.1-10.15,8.79-7.98-.37-16-.09-27.95-.09C-1.32,25.29,1,29.69,4.65,31.93c69.92,43.06,140.05,85.78,209.98,128.81,7.99,4.91,15.3,9.77,24.86,1.71,1.06,4.27,1.02,7.75,2.68,10.02,2.86,3.92,6.27,8.29,10.46,10.05,2.13.89,7.3-2.82,9.74-5.6,8.96-10.22,17.35-20.91,25.94-31.44,3.64-4.46,5.18-8.83-.91-13.65-5.36,6.35-10.38,12.28-16.63,19.68-9.04-16.15-18.9-29.84-24.29-45.75,1.36-.83,2.7-1.66,4.06-2.49,6.89,10.59,13.78,21.19,21.52,33.09,6.61-8.25,12.15-15.15,18.9-23.58,3.02,6.44,5.26,11.23,8.44,18.03,6.66-7.88,12.48-14.56,18.08-21.41,15.61-19.11,15.44-19.01-1.58-36.36-4-4.08-7.06-4.58-11.67-1.37-4.53,3.17-9.57,5.64-14.38,8.41-.94-1.25-1.88-2.49-2.82-3.73,6.02-5.04,12.2-9.9,18-15.18,4.81-4.39,8.4-3.42,12.28,1.16,6.2,7.31,12.69,14.37,19.91,22.5,21.2-25.82,41.35-50.34,62.78-76.45,12.06,18.78,22.98,35.62,33.72,52.56,22.74,35.85,45.48,71.7,67.95,107.7,4.12,6.6,7.5,7.6,12.34,1.1,2.29-3.07,4.64-6.2,7.52-8.67,1.75-1.5,4.55-1.81,6.89-2.66-.24,2.41.3,5.3-.87,7.12-2.6,4.08-5.66,8.05-9.24,11.29-5.85,5.32-5.14,10.1-1.14,16.26,14.6,22.48,28.73,45.26,43.12,67.86,2.3,3.6,5.01,6.95,8.89,12.27,3.48-7.07,5.77-11.94,8.25-16.71,13.13-25.23,43.69-30.81,64.28-11.1,6.93,6.64,11.89,15.3,17.77,23.02,3.78,4.97,7,10.54,11.52,14.73,7.98,7.4,14.75,6.49,21.03-2.44,4.59-6.53,8.44-13.57,12.56-20.43,16.94-28.26,44.72-37.93,75.82-26.56,25.02,9.16,36.24,30.59,46.86,52.2,6.61,13.44,2.07,24.72-10.03,33.49-4.92,3.56-8.49,9.3-11.79,14.59-2.34,3.75-3.37,8.35-4.68,12.67-1.97,6.46-5.21,6.74-9.71,2.32-7.46-7.34-15.03-14.58-22.31-22.09-1.57-1.62-2.17-4.19-3.21-6.32.98-.84,1.97-1.68,2.95-2.52,8.41,7.38,16.82,14.76,25.8,22.64,4.83-9.66,10.77-17.45-2.65-23.4-3.23-1.44-4.91-6.47-7.11-9.99-4.6-7.36-8.35-15.37-13.76-22.1-8.38-10.45-19.5-9.35-26.49,1.8-3.14,5.01-5.83,10.31-9.09,15.24-11.69,17.69-26.28,30.6-48.43,35.27-8.73,1.84-16.13,10.52-23.65,16.68-1.28,1.05-.46,5.25.17,7.8,1.97,8.1,4.17,16.14,6.52,24.14,1.83,6.23-.1,9.24-6.8,9.49-4.6.18-9.19,1-15.8,1.76,14.86,22.48,23.56,46.6,48.76,57.87,8.87,3.96,16.76,10.05,25.14,15.1,4.61,2.77,9.3,5.4,15.84,9.19v-56.98c21.21,12.68,40.64,24.3,62.33,37.27-17.86,9.82-32.84,18.06-49.28,27.09,4.22,3.07,6.29,4.79,8.56,6.2,19.95,12.27,40.11,24.19,59.79,36.87,7.55,4.87,12.81,6.02,17.37-3.15,2.88-5.78,7.22-6.34,11.35-1.04,4.7,6.03,9.11,12.3,14.44,19.57,11.31-12.41,19.02-20.86,26.72-29.3,1.12.68,2.24,1.36,3.35,2.04-.8,2.82-1.01,6.03-2.53,8.38-2.44,3.76-5.78,6.95-8.7,10.41-14.83,17.53-14.71,17.41-31.92,1.94-2.1-1.88-6.18-1.59-9.34-2.32,1.64,2.88,2.57,6.86,5.06,8.45,15.87,10.19,32.08,19.86,48.18,29.7,14.23,8.7,28.47,17.41,43.16,26.39,3.48-4.05,6.34-7.35,9.89-11.47-15.55-8.12-30.13-15.72-47.32-24.69,20.65-12.97,38.56-24.21,58.73-36.88,2.26,20.53,4.16,37.87,6.02,54.83,29.74,3.22,39,15.69,36.12,48.82,7.37-.45,14.5-1.09,21.64-1.28,15.98-.43,32.05-1.81,47.9-.52,10.99.9,21.49,8.08,32.94,1.75.26-.14,1.07.7,2.2,1.48-1.44,2.77-2.9,5.61-4.09,7.92,21.49,22.41,44.14,41.58,77.39,28.76,18.25-7.04,32.41-19.82,40.19-38.3,2.72.46,7.78,3.02,10.84,1.53,21.82-10.57,44.32-11.63,67.69-7.23,3.05.57,6.65-1.69,10-2.65,3.06-.88,6.93-3.32,8.95-2.26,2.2,1.15,2.62,5.55,3.92,8.49,1.26,2.86,1.98,6.34,4.1,8.37,7.06,6.77,14.85,10.37,23.98,2.88,1.26-1.03,3.75-.58,5.68-.82,1.21,1.42,2.42,2.82,3.62,4.24-5.43,2.2-10.87,4.39-16.59,6.72,18.69,15.98,36.49,22.22,55.87,15.89,10.78-3.52,21.59-10.22,29.63-18.2,40.97-40.69,102.41-40.99,142.33.5,1.97,2.05,3.96,7.25,2.94,8.43-7.39,8.54-15.56,16.43-23.28,24.32-2.43-1.61-3.46-2.04-4.12-2.79-26.84-30.87-69.74-25.87-92.97-.12-34.98,38.76-94.22,38.74-132.98,3.33-31.33-28.64-61.93-28.09-92.16,1.64-37.61,36.99-95.99,37.72-134.48,1.75-4.32-4.03-8.67-8.26-13.69-11.27-23.98-14.42-52.61-9.67-73.52,11.86-3.94,4.06-7.49,9.33-13.5,2.73-3.25-3.55-6.36-5.35-10.38-.84-3.96,4.44-5.76,8.49-.35,13.27,4.44,3.92,8.41,8.35,12.6,12.55,7.12,7.15,14.36,7.24,21.73.26,25.06-23.77,57.89-23.62,82.37.52,17.08,16.85,37.5,26.31,61.57,28.21,4.82.38,9.84,1.14,14.25,2.96,8.47,3.49,17.26,11.97,24.64,10.75,7.82-1.29,14.15-11.44,21.11-17.74,1.3-1.17,2.54-2.39,3.82-3.57,6.68-6.27,13.37-12.54,22.14-20.77,5.29,23.4,9.9,43.82,15.16,67.13-18.73-6.33-33.73-11.38-48.74-16.45,1.62,4.26,4.36,6.54,7.35,8.4,8.9,5.52,17.73,11.21,26.92,16.21,6.97,3.79,7.24,7.48,3,13.95-45.79,69.85-91.31,139.89-136.87,209.89-1.53,2.36-2.68,4.96-4.01,7.44.58.58,1.17,1.18,1.75,1.76,29.32-13.06,58.63-26.11,87.95-39.16.53.63,1.06,1.28,1.59,1.91-13.47,21.1-26.94,42.21-40.42,63.31l2.34,2.27c3.07-1.21,6.21-2.28,9.2-3.64,85-38.61,169.97-77.29,254.98-115.87,78.3-35.55,156.68-70.92,234.96-106.51,42.31-19.23,84.44-38.82,126.75-58.06,6.56-2.98,9.1-6.23,5.88-13.58-23.17-53.15-45.91-106.47-69.15-159.59-3.38-7.72-4.78-13.98,2.4-20.19,6.05-5.24,10.02-11.07,1.6-18-.97-.8-.27-3.6-.34-5.47,1.89.21,4.75-.29,5.5.74,6.27,8.52,10.51,3.98,15.54-1.49,19.07-20.8,38.43-41.34,57.63-62.01,4.93-5.31,7.08-11.02,6.2-18.84-1.64-14.56-1.59-29.3-2.37-46.65,11.13,6.79,19.53,11.62,27.6,16.97,5.37,3.55,9.51,3.38,13.53-1.83,12.76-16.5,32.89-27.76,37.12-49.76,5.77-1.73,10.78-4.27,14.98-7.75,6.32-5.25,12.08-11.17,18.07-16.8l.02-.03ZM-.55,205.22c-.69.12-1.38.25-2.07.37v10.18c-.02,209.45-.04,418.91-.05,628.36,0,135.82.2,271.63-.31,407.45-.05,12.25,5.07,18.44,15.41,20.88,11.49,2.7,23.38,5.21,35.11,5.23,215.9.39,431.79.39,647.69.42,3.22,0,6.44-.67,12.09-1.31-7.29-11.15-13-20.53-19.39-29.43-4.16-5.78-2.96-9.07,3.04-12.2,22.29-11.65,40.68-28.01,57.49-46.46,59.91-65.76,74.61-173.13,34.11-251.6-1.4-2.7-3.49-5.06-5.27-7.57-.9,7.8.21,14.56,1.26,21.33,8.33,53.45,2.06,104.73-25.35,152.1-38.19,66.01-95.51,104.56-172.46,110.16-94.74,6.9-170.87-47.37-210.83-127.34-10.67-21.34-10.29-21.81,6.99-39.32,11.4-11.56,23.46-22.48,32-30.63,18.54,16.53,37.46,33.02,55.88,50.05,5.22,4.83,8.54,5.74,13.75.16,14.97-16.07,30.64-31.49,45.5-47.63,5.8-6.3,9.52-7.01,15.72-.28,15.1,16.39,31.18,31.88,46.42,48.16,4.56,4.87,7.68,4.87,11.95.27,4.97-5.37,9.89-10.86,15.47-15.56,4.5-3.79,7.16-7.57,1.79-11.73-5.04-3.89-8.47-14.82-17.46-7.16-5.93,5.05-8.79,2.78-12.86-1.46-14.98-15.6-30.42-30.77-45.06-46.66-6.47-7.02-10.45-6.34-16.62.42-14.56,15.95-30.24,30.9-44.83,46.83-5.65,6.18-9.06,5.3-14.18-.18-14.07-15.01-28.55-29.63-42.86-44.42-10.12-10.45-9.8-10.14-20-.44-17.15,16.32-34.75,32.19-52.82,48.85-.41-.38-3-2.59-5.37-5.03-15.1-15.48-30.33-30.83-45.11-46.6-5.38-5.74-9.33-5.82-14.52,0-6.95,7.8-14.3,15.25-21.74,22.62-10.3,10.22-20.83,20.2-31.71,30.72-2.38-2.23-4.71-4.25-6.86-6.45-15.08-15.49-30.3-30.84-45.06-46.62-5.49-5.87-9.34-6.64-15.16-.24-12.2,13.4-24.78,26.49-37.79,39.1-16.89,16.35-10.79,18.58-31.04.37-10.14-9.12-9.68-10.91.07-20.92,22.88-23.47,45.97-46.74,68.48-70.56,6.32-6.68,10.31-5.95,16.07.24,14.72,15.83,29.99,31.14,44.82,46.87,5.11,5.41,8.75,6.08,14.36,0,14.88-16.14,30.67-31.46,45.72-47.44,5.37-5.7,9.15-5.73,14.52.03,14.02,15.05,28.52,29.65,42.89,44.37,1.94,1.99,4.29,3.6,7.19,6.01,1.03-3.01,1.73-4.26,1.85-5.55,4.86-52.37,23.18-99.01,59.13-138.39,1.92-2.1,1.99-7.92.46-10.67-5.22-9.38-11.48-18.19-17.42-27.18-67.22-101.6-134.47-203.19-201.67-304.81-2.19-3.31-3.91-6.92-5.85-10.39.49-.85.96-1.7,1.45-2.54,91.02,19.95,181.99,40.15,273.07,59.78,90.86,19.58,181.5,40.3,273.52,57.22-10.03-19.07-20.93-36.28-32.45-53.08-1.59-2.33-6.11-3.05-9.43-3.79-39.31-8.73-78.64-17.37-117.98-25.95-132.75-28.93-265.49-57.91-398.27-86.7-29.77-6.45-59.68-12.21-89.51-18.32-10.77-2.2-11.46-3.99-4.66-12.55,6.07-7.63,12.02-15.4,18.6-22.58,5.69-6.21,5.72-11.71,1.07-18.54-13.11-19.28-25.77-38.87-38.63-58.32-20.73-31.32-41.49-62.63-62.23-93.94l-.03.03ZM433.1,257.64c-1.33-.06-2.64-.13-3.97-.19-2.33,5.17-5.47,10.13-6.85,15.53-6.99,27.6-7,55.7-3.93,83.7.95,8.7,4.61,17.45,8.63,25.39,4.44,8.79,6.11,17.1.85,25.6-3.96,6.4-1.29,10.34,3.65,14.06,8.98,6.75,20.75,6.95,29.26.52,9.05-6.83,13.6-19.92,8.14-29.69-14.03-25.06-13.76-52.08-11.5-79.04,2-23.85-12.67-38.9-24.26-55.91l-.02.02ZM627.98,368.4c4.26,6.39,7.24,11.05,10.39,15.57,5.27,7.57,12.72,3.97,19.08,2.6,1.18-.25,1.52-7.69.98-11.63-.75-5.44-2.37-10.85-4.24-16.06-2.55-7.1-1.82-11.75,6.64-13.93,4.25-1.09,7.95-4.22,14.65-7.96-28.41-6.06-45.03-22.46-58.15-44.29-11.89,33.11-18.06,67.22-50.84,88.43,25.32,11.36,44.6,7.5,61.48-12.75ZM455.92,212.57c20.7,18.91,31.73,41.73,43.21,64.28,10.06,19.75,22.35,37.77,41.95,49.4,3.1,1.84,10.85,2.08,11.58.63,2.54-5,5.76-12.52,3.68-16.5-11.05-21.18-22.58-42.28-36.05-61.99-8.61-12.6-19.88-23.97-31.85-33.57-8.13-6.51-19.59-8.29-32.53-2.26h0ZM951.44,583.44c.99-.64,1.98-1.29,2.97-1.93-1.32-12.34-2.64-24.7-4.24-39.61-12.68,7.92-22.98,14.35-35.51,22.18,13.9,7.32,25.34,13.34,36.77,19.37h0ZM783.79,459.65c-13.44-8.11-24.17-14.58-36.81-22.2v41.75c12.62-6.7,23.37-12.41,36.81-19.55ZM1213.01,757.78c9.28,3.35,20.76,7.48,35.25,12.71-3.75-15.62-6.66-27.71-9.77-40.67-9.09,9.98-16.9,18.54-25.48,27.96ZM1821.17,438.35c-.99.49-1.98,1-2.97,1.49v26c1.08.49,2.16.97,3.23,1.46,4.68-5.97,10.27-11.54,13.28-18.25.59-1.32-8.77-7.03-13.54-10.71h0Z"/>
  <path class="cls-1" d="M1919,362.75c-6,5.63-11.75,11.55-18.07,16.8-4.2,3.48-9.2,6.02-14.98,7.75-4.23,22-24.37,33.25-37.12,49.76-4.02,5.21-8.17,5.38-13.53,1.83-8.07-5.35-16.48-10.17-27.6-16.97.77,17.34.72,32.09,2.37,46.65.88,7.82-1.27,13.53-6.2,18.84-19.2,20.68-38.55,41.22-57.63,62.01-5.03,5.47-9.27,10.03-15.54,1.49-.75-1.03-3.62-.53-5.5-.74.07,1.87-.63,4.68.34,5.47,8.41,6.93,4.44,12.76-1.6,18-7.18,6.22-5.77,12.47-2.4,20.19,23.24,53.12,45.98,106.44,69.15,159.59,3.21,7.36.67,10.6-5.88,13.58-42.31,19.23-84.44,38.82-126.75,58.06-78.28,35.59-156.66,70.96-234.96,106.51-85.01,38.58-169.98,77.27-254.98,115.87-3,1.37-6.13,2.44-9.2,3.64l-2.34-2.27c13.47-21.1,26.94-42.21,40.42-63.31-.53-.63-1.06-1.28-1.59-1.91-29.32,13.06-58.63,26.11-87.95,39.16-.58-.58-1.17-1.18-1.75-1.76,1.33-2.48,2.47-5.09,4.01-7.44,45.56-70,91.09-140.04,136.87-209.89,4.24-6.46,3.97-10.16-3-13.95-9.2-5.01-18.03-10.68-26.92-16.21-3-1.86-5.72-4.14-7.35-8.4,15.01,5.07,30,10.13,48.74,16.45-5.27-23.3-9.88-43.72-15.16-67.13-8.77,8.23-15.46,14.5-22.14,20.77-1.27,1.2-2.52,2.41-3.82,3.57-6.97,6.3-13.3,16.44-21.11,17.74-7.37,1.22-16.16-7.26-24.64-10.75-4.41-1.82-9.43-2.57-14.25-2.96-24.07-1.89-44.48-11.35-61.57-28.21-24.48-24.14-57.3-24.29-82.37-.52-7.36,6.98-14.61,6.9-21.73-.26-4.19-4.21-8.16-8.64-12.6-12.55-5.41-4.78-3.62-8.82.35-13.27,4.02-4.5,7.14-2.72,10.38.84,6.02,6.6,9.56,1.33,13.5-2.73,20.92-21.53,49.54-26.28,73.52-11.86,5.02,3.02,9.37,7.25,13.69,11.27,38.5,35.96,96.87,35.24,134.48-1.75,30.22-29.73,60.83-30.27,92.16-1.64,38.75,35.42,98,35.44,132.98-3.33,23.23-25.74,66.13-30.75,92.97.12.65.75,1.69,1.17,4.12,2.79,7.72-7.89,15.89-15.78,23.28-24.32,1.02-1.18-.97-6.38-2.94-8.43-39.92-41.49-101.36-41.2-142.33-.5-8.04,7.99-18.85,14.68-29.63,18.2-19.38,6.34-37.18.09-55.87-15.89,5.72-2.32,11.16-4.51,16.59-6.72-1.21-1.42-2.42-2.82-3.62-4.24-1.92.24-4.42-.22-5.68.82-9.14,7.49-16.92,3.9-23.98-2.88-2.12-2.03-2.84-5.51-4.1-8.37-1.3-2.94-1.72-7.34-3.92-8.49-2.02-1.06-5.89,1.38-8.95,2.26-3.35.96-6.94,3.23-10,2.65-23.37-4.4-45.87-3.35-67.69,7.23-3.06,1.48-8.12-1.08-10.84-1.53-7.78,18.48-21.93,31.25-40.19,38.3-33.25,12.82-55.9-6.34-77.39-28.76,1.19-2.31,2.65-5.15,4.09-7.92-1.13-.78-1.94-1.62-2.2-1.48-11.46,6.33-21.96-.85-32.94-1.75-15.85-1.3-31.92.1-47.9.52-7.14.19-14.25.82-21.64,1.28,2.88-33.13-6.38-45.6-36.12-48.82-1.86-16.97-3.77-34.3-6.02-54.83-20.16,12.66-38.08,23.91-58.73,36.88,17.19,8.97,31.76,16.58,47.32,24.69-3.54,4.12-6.39,7.42-9.89,11.47-14.69-8.99-28.92-17.69-43.16-26.39-16.1-9.84-32.31-19.5-48.18-29.7-2.48-1.59-3.41-5.58-5.06-8.45,3.17.72,7.25.44,9.34,2.32,17.21,15.47,17.09,15.59,31.92-1.94,2.93-3.45,6.27-6.64,8.7-10.41,1.53-2.36,1.73-5.56,2.53-8.38-1.12-.68-2.24-1.36-3.35-2.04-7.7,8.44-15.4,16.89-26.72,29.3-5.35-7.27-9.74-13.53-14.44-19.57-4.14-5.31-8.47-4.74-11.35,1.04-4.56,9.17-9.82,8.02-17.37,3.15-19.68-12.68-39.85-24.6-59.79-36.87-2.28-1.41-4.35-3.13-8.56-6.2,16.44-9.04,31.42-17.27,49.28-27.09-21.69-12.97-41.12-24.58-62.33-37.27v56.98c-6.53-3.78-11.23-6.4-15.84-9.19-8.38-5.05-16.27-11.14-25.14-15.1-25.19-11.26-33.9-35.39-48.76-57.87,6.6-.76,11.19-1.58,15.8-1.76,6.69-.26,8.63-3.27,6.8-9.49-2.36-8-4.55-16.05-6.52-24.14-.62-2.55-1.45-6.75-.17-7.8,7.5-6.17,14.92-14.85,23.65-16.68,22.15-4.67,36.74-17.58,48.43-35.27,3.26-4.93,5.95-10.23,9.09-15.24,6.99-11.16,18.1-12.24,26.49-1.8,5.39,6.73,9.16,14.74,13.76,22.1,2.19,3.5,3.87,8.55,7.11,9.99,13.42,5.96,7.48,13.75,2.65,23.4-8.97-7.87-17.38-15.25-25.8-22.64-.98.84-1.97,1.68-2.95,2.52,1.04,2.13,1.63,4.69,3.21,6.32,7.29,7.5,14.85,14.75,22.31,22.09,4.5,4.42,7.74,4.15,9.71-2.32,1.32-4.32,2.35-8.92,4.68-12.67,3.31-5.29,6.87-11.03,11.79-14.59,12.1-8.77,16.63-20.03,10.03-33.49-10.62-21.62-21.84-43.05-46.86-52.2-31.1-11.37-58.89-1.7-75.82,26.56-4.11,6.86-7.97,13.91-12.56,20.43-6.29,8.93-13.07,9.84-21.03,2.44-4.51-4.2-7.74-9.76-11.52-14.73-5.88-7.72-10.84-16.38-17.77-23.02-20.59-19.72-51.16-14.14-64.28,11.1-2.48,4.77-4.77,9.64-8.25,16.71-3.88-5.34-6.59-8.67-8.89-12.27-14.39-22.61-28.52-45.39-43.12-67.86-4-6.17-4.71-10.94,1.14-16.26,3.57-3.26,6.64-7.22,9.24-11.29,1.17-1.82.63-4.71.87-7.12-2.34.84-5.14,1.15-6.89,2.66-2.88,2.47-5.24,5.6-7.52,8.67-4.84,6.5-8.23,5.5-12.34-1.1-22.48-36.01-45.23-71.85-67.95-107.7-10.75-16.95-21.67-33.78-33.72-52.56-21.43,26.1-41.58,50.63-62.78,76.45-7.22-8.13-13.71-15.19-19.91-22.5-3.88-4.57-7.47-5.55-12.28-1.16-5.79,5.29-11.98,10.14-18,15.18.94,1.25,1.88,2.49,2.82,3.73,4.81-2.77,9.85-5.25,14.38-8.41,4.6-3.22,7.66-2.71,11.67,1.37,17.02,17.35,17.19,17.24,1.58,36.36-5.6,6.86-11.42,13.53-18.08,21.41-3.19-6.8-5.42-11.58-8.44-18.03-6.75,8.42-12.28,15.33-18.9,23.58-7.74-11.9-14.63-22.5-21.52-33.09-1.36.83-2.7,1.66-4.06,2.49,5.39,15.92,15.25,29.61,24.29,45.75,6.26-7.39,11.27-13.34,16.63-19.68,6.08,4.82,4.55,9.2.91,13.65-8.59,10.52-16.99,21.22-25.94,31.44-2.44,2.79-7.61,6.5-9.74,5.6-4.21-1.76-7.6-6.13-10.46-10.05-1.66-2.27-1.62-5.76-2.68-10.02-9.55,8.06-16.87,3.2-24.86-1.71C144.68,117.73,74.55,75,4.64,31.95c-3.65-2.25-5.96-6.64-10.64-12.06,11.97,0,19.98-.28,27.95.09,6.57.3,11.28-.58,10.15-8.79-1.06-7.65,3.23-9.29,10.04-9.27,59.59.13,119.17.04,178.76.02,22.62,0,45.24-.06,67.85.02,13.61.05,15.58,2.36,14.99,17.93-10.52,1.07-21.26,1.93-31.91,3.39-2.93.41-5.61,2.59-8.41,3.97,2.81,1.21,5.68,3.55,8.43,3.43,14.25-.62,28.48-1.89,44.26-3.04-1.48-6.16-2.58-11.08-3.87-15.94-1.71-6.43-.18-9.97,7.39-9.86,16.82.24,33.65-.08,50.46.26,3.1.06,6.17,2.09,9.25,3.2-.18,1.47-.36,2.95-.53,4.42-8.41.28-16.83.75-25.23.78-15.41.06-15.53,0-11.49,14.96,2.12,7.84,4.76,15.53,7.17,23.29l4.41-.74c-.64-5.18-.96-10.42-1.99-15.53-2.48-12.35-2.1-13,10.63-13.22,3.85-.07,7.72-.2,11.56.03,8.31.49,15.58.9,14.08-11.47-.93-7.61,6.39-5.79,10.82-5.82,32.24-.18,64.49-.12,96.73-.15,50.05-.05,100.08-.14,150.13-.17,5.12,0,10.44-1,12.86,5.94,3.4,9.79,2.35,11.98-8.13,13.25-10.52,1.29-21.03,2.62-31.56,3.94-.11,1.15-.23,2.29-.34,3.43,2.44.85,4.89,2.51,7.29,2.43,12.6-.47,25.18-1.46,37.78-2.1,6.71-.34,8.49-3.36,6.49-9.57-1.57-4.88-2.5-9.98-4.31-17.38h19.52c14.72,0,29.45-.25,44.16.25,3.36.11,6.62,2.82,9.93,4.34-3.46,1.44-6.87,3.89-10.42,4.11-9.31.58-18.68.2-30.28.2,4.16,14.2,7.67,26.21,11.19,38.22.9.07,1.81.13,2.71.2.9-1.79,2.72-3.67,2.54-5.35-.53-4.81-1.3-9.74-3.01-14.23-3.56-9.36.99-11.06,8.94-10.43,5.94.47,11.92.43,17.83,1.09,6.55.73,10.54-1.08,9.43-8.31-1.4-9.12,3.65-10.22,11.12-10.16,62.72.45,125.44.77,188.16.91,20.21.04,40.44-.94,60.65-.61,3.81.06,9.45,3.27,10.98,6.52,4.47,9.6,2.47,11.84-8.35,12.79-10.31.9-20.63,1.96-31.66,3.01,4.26,7.14,34.46,7.47,52.32,1.89-1.44-7.45-2.9-15.04-4.68-24.34,21.92,0,42.46-.1,62.99.19,1.64.02,3.25,2.73,4.87,4.19-1.97,1.51-3.87,4.21-5.94,4.35-8.03.53-16.11.48-24.16.21-7.81-.27-10.11,2.52-7.47,10.06,3.12,8.91,5.5,18.07,8.2,27.12,1.44-.26,2.86-.51,4.3-.77-.49-4.67-.61-9.41-1.55-14-2.83-13.77-2.95-13.74,11.54-13.85,3.16-.02,6.32-.18,9.46-.04,8.54.38,16.6.77,15.12-11.96-.18-1.53,5.59-5.32,8.69-5.41,17.51-.55,35.04-.4,52.57-.31,45.9.24,91.8.69,137.7.81,20.31.05,40.63-.32,60.94-.9,7.02-.2,9.87,2.99,11.66,9.2,2.14,7.42-.28,10.05-7.78,10.56-10.92.76-21.79,2.4-32.68,3.65-.09,1.16-.19,2.32-.28,3.47,2.49.75,5.02,2.22,7.47,2.13,12.25-.48,24.48-1.52,36.73-2.04,6.52-.27,8.87-2.63,6.82-9.16-1.61-5.14-2.47-10.51-4.11-17.7h41.36c8.06,0,16.16-.41,24.16.28,3,.26,5.78,3.1,8.66,4.76-3.07,1.47-6.06,3.94-9.24,4.23-7.31.64-14.71.45-22.05.18-6.54-.24-9.27,1.96-7.18,8.62,2.97,9.45,5.77,18.96,8.65,28.43,1.55-.27,3.12-.54,4.67-.81-.92-5.81-1.12-11.85-2.91-17.39-2.98-9.23.05-12.33,9.28-11.17,3.46.44,7.02.1,10.49.47,9.42.99,18.98,2.75,16.87-12.35-.18-1.27,6.56-5.01,10.12-5.04,40.31-.41,80.61-.49,120.92-.3,33.23.16,66.46.91,99.69,1.18,8.02.06,16.05-1.06,24.07-1.17,15.82-.22,16.63.7,17.64,18.5-13.46,1.54-27.05,3.11-40.65,4.67-.18.98-.37,1.97-.54,2.95,2.63,1.01,5.31,2.95,7.91,2.86,11.9-.42,23.77-1.6,35.66-2.11,7.57-.33,8.69-3.95,6.77-10.29-1.46-4.81-2.31-9.8-3.83-16.44,22.32,0,42.86-.13,63.39.22,1.83.03,3.61,3.15,5.42,4.83-2.11,1.4-4.15,3.86-6.33,3.99-8.38.49-16.82.42-25.22.21-6.16-.16-8.42,2.03-6.57,8.15,2.93,9.67,5.6,19.42,8.39,29.14,1.47-.32,2.94-.62,4.41-.94-1.19-8.44-2.39-16.89-3.97-28.13,9.72,0,18.55-.31,27.35.1,7.33.34,11.65-1.58,10.47-9.82-.85-5.94,2.16-8.08,7.85-7.99,17.52.27,35.06-.1,52.55.65,15.5.67,27.55,9.3,38.82,19v210.51c-3.13-13.47-6.07-26.98-9.5-40.38-.97-3.79-3.38-10.3-5.14-10.31-9.22-.04-18.43,1.61-27.66,2.68.15,1.75.29,3.51.44,5.27,4.87,0,9.78.44,14.59-.11,6.69-.75,10.31.82,11.49,8.28,1.84,11.64,5.19,23.03,7.38,34.63.98,5.17,3.05,7.51,8.39,6.19v125.06h.02ZM800.08,92.85c-22.19-13.24-41.88-24.99-61.56-36.73l-3.05,1.59c1.05,21.67,2.1,43.35,3.3,68.03,21.46-11.5,39.93-21.41,61.31-32.88h0ZM838,340.45c22.15,7.72,42.57,14.85,65.81,22.94-6.03-25.28-11.16-46.76-16.75-70.24-17.2,16.59-32.16,31.01-49.05,47.3h0ZM956.82,161.19c-20.49,12.87-38.53,24.2-59,37.06,23.32,11.88,43.24,22.02,66.25,33.74-2.55-24.92-4.76-46.5-7.25-70.8h0ZM1455.26,125.19c20.94-11.27,39.28-21.16,60.09-32.38-21.87-13.05-41.44-24.72-63.65-37.96,1.27,25.13,2.34,46.28,3.55,70.35h0ZM987.65,269.65c-.96-.13-1.91-.26-2.87-.39-.71.64-1.89,1.19-2.08,1.96-1.89,7.73-3.71,15.48-5.38,23.26-4.37,20.27-4.35,20.46-25.16,19.24-6.28-.37-9.19,1.39-8.97,7.91.27,8.05.06,16.11.06,27.02-10.49-10.15-18.45-17.85-26.41-25.54-.85.79-1.69,1.58-2.54,2.39.08,1.3-.36,3,.32,3.81,9.72,11.79,19.51,23.53,29.52,35.08,1.03,1.19,4.1,2.02,5.28,1.36,1.37-.77,2.31-3.35,2.36-5.17.25-8.66.56-17.35.02-25.98-.56-8.89,1.86-13.51,11.76-10.93,1.66.44,3.53.09,5.21.5,8.86,2.2,11.92-2.24,12.93-10.19,1.36-10.65,3.45-21.2,5.02-31.82.61-4.13.65-8.33.95-12.51h0ZM537.36,198.34c23.3,11.81,43.21,21.89,65.81,33.34-2.53-25.03-4.72-46.59-7.15-70.51-20.7,13.12-38.42,24.34-58.66,37.17ZM1154.72,459.81c-22.16-13.24-41.51-24.82-63.62-38.02,1.14,25,2.12,46.62,3.22,70.69,21.35-11.55,39.3-21.25,60.4-32.67ZM1870.73,92.83c-22-13.03-41.41-24.52-63.44-37.58,1.32,24.65,2.45,45.82,3.73,69.72,20.58-11.08,38.53-20.74,59.71-32.14ZM1154.57,92.77c-22.01-13.05-41.53-24.62-63.66-37.73,1.33,25.05,2.44,46.39,3.71,70.32,21.18-11.51,39.27-21.35,59.95-32.59ZM1312.24,161.37c-20.38,12.86-38.32,24.18-58.5,36.91,22.88,11.58,42.74,21.63,65.3,33.05-2.42-24.87-4.49-46.25-6.79-69.96h0ZM1238.34,300.97c-17.53,16.54-32.48,30.65-49.38,46.6,22.51,7.87,42.52,14.87,65.48,22.9-5.57-24.04-10.42-45-16.1-69.5h0ZM1199.61,633.7c-21.79-12.98-41.17-24.53-60.82-36.23,0,21.65-.14,41.49.38,61.32.03,1.08,6.35,3.72,8.25,2.76,16.71-8.43,33.09-17.53,52.2-27.84h0ZM1253.73,565.05c22.87,11.6,42.68,21.66,65.41,33.19-2.54-24.96-4.7-46.26-7.09-69.61-20.11,12.55-37.72,23.55-58.33,36.42h.01ZM1676.92,229.89c.92-.76,1.83-1.53,2.75-2.3-2.31-21.28-4.6-42.55-7.15-66.07-20.25,12.95-37.75,24.14-57.44,36.73,22.59,11.55,42.22,21.59,61.85,31.63h0ZM1272.69,326.53c-1.25,1.36-2.5,2.71-3.75,4.07,11.31,13.36,22.62,26.73,33.93,40.08,1.09-.49,2.19-.96,3.28-1.45,0-8.54.31-17.09-.06-25.62-.92-21.1.62-20.21,18.19-16.8,7.16,1.39,11.28-.73,12.32-8.47,1.76-13.06,4.17-26.02,6.06-39.06.32-2.17-.55-4.49-.88-6.75-1.11-.05-2.23-.1-3.34-.14-1.92,8.59-3.8,17.19-5.77,25.77-4.58,19.89-4.62,20.15-24.62,18.74-6.96-.49-9.71,1.57-9.47,8.43.27,7.7.06,15.41.06,23.12-1.05.21-2.11.43-3.16.63-7.6-7.52-15.19-15.05-22.8-22.57h0ZM1663.26,367.39c1.5-.56,3.01-1.12,4.5-1.68,0-11.24.31-22.5-.11-33.72-.28-7.46,2.77-10.09,9.96-9.04,3.79.55,7.8,1.51,11.42.83,2.71-.51,6.71-3.03,7.16-5.26,3.04-14.92,5.36-29.97,7.68-45.03.18-1.17-1.34-2.59-2.11-3.98-1.22.8-2.17,1.09-2.29,1.56-2.22,9.05-4.31,18.13-6.48,27.19-4.24,17.61-4.28,17.91-22.66,15.93-7.78-.84-11.08,1.24-10.6,9.27.46,7.6.1,15.24.1,22.87-.99.21-1.97.42-2.96.63-7.86-7.78-15.71-15.55-23.57-23.33-1.33,1.3-2.65,2.59-3.99,3.88,11.31,13.28,22.62,26.58,33.93,39.86h0ZM1603,293.98c-12.4,11.43-23.02,21.18-33.61,30.98-7.77,7.2-5.74,18.3,4.25,22.02,8.81,3.29,17.8,6.12,26.75,9,8.25,2.65,16.12-2.89,14.51-11.14-3.17-16.18-7.44-32.16-11.9-50.87h0ZM731.81,369.45c.67,8.04,1.11,14.09,1.71,20.11.57,5.81,1.33,11.6,2.14,18.64,22.77-16.61,36.43-30.95,36.15-40.14-9.9,7.97-18.58,14.96-29.24,23.53-1.13-13.09-1.97-22.88-2.94-34.14-5.48,2.03-9.74,3.21-13.62,5.13-9.72,4.81-19.29,10.19-27.37-2.48-.1-.16-1.22.32-2.87.76.65,2.81,1.47,5.66,1.98,8.57,1.61,9.3,5.93,12.53,15.12,7.61,5.14-2.75,10.87-4.41,18.95-7.59h0ZM1069.92,275.21c10.55-3.96,19.49-7.32,29.81-11.2,1.42,13.34,2.66,25.1,3.96,37.31,14.89-7.7,36.55-29.98,35.54-38.19-9.39,7.58-18.02,14.53-28.54,23.02-1.19-12.66-2.14-22.72-3.23-34.28-4.94,1.93-8.4,3.22-11.82,4.62-5.17,2.13-10.31,6.05-15.45,6.01-4.77-.04-9.5-4.27-16.52-7.79,2.3,7.54,4.17,13.67,6.25,20.49h0ZM897.92,77.74c.97-1.08,1.94-2.16,2.91-3.25-2-2.47-3.72-5.25-6.04-7.38-6.66-6.13-14.15-11.46-20.2-18.11-7.04-7.75-14.22-8.28-23.34-4.46-7.51,3.14-15.55,5.02-24.08,7.69-2.57-14.41,3.67-27.57-.85-40.61-2.18.98-3.29,1.2-3.33,1.55-1.87,15.03-3.78,30.05-5.17,45.13-.09.96,3.9,3.21,6.01,3.23,2.62.04,5.45-1.28,7.87-2.59,22.17-12.16,40.67-7.9,56.27,11.63,2.45,3.07,6.59,4.82,9.96,7.18h0ZM911.99,455.38c1.16-1.16,2.31-2.32,3.46-3.47-2.09-2.71-3.82-5.8-6.32-8.07-7.74-7.03-16.03-13.48-23.58-20.7-4.73-4.52-9.06-5.09-15.11-2.78-9.27,3.53-18.96,6.06-29.84,9.44.71-14.53,1.35-27.37,1.98-40.21-8.3,6.19-11.64,40.82-7.44,50.02,5.78-1.85,12.16-2.89,17.53-5.77,17.96-9.63,32.17-5.28,44.79,9.56,4,4.7,9.64,8.02,14.53,11.98h0ZM966.89,469.62c-1.76.98-3.53,1.96-5.3,2.94,6.67,15.76,16.07,30.08,25.67,46.39,6.53-8.16,11.35-14.16,16.79-20.95,8.26,11.49,7.43,25.98,18.72,34.39-2.85-17.68-7.62-34.63-15.43-52.73-7.07,8.43-12.87,15.35-19.49,23.25-7.59-12.08-14.27-22.69-20.96-33.31h0ZM1471.1,286.52c-.61-8.35-1-13.46-1.36-18.58-1.14-16.4-1.2-16.54-16.39-10.25-9.09,3.77-18.18,10.08-25.34-2.77-.09-.16-1.21.24-3.6.75,2.07,6.37,4.07,12.57,6.35,19.65,7.05-2.83,12.47-5.01,17.92-7.19,12.41-4.97,12.91-4.64,13.74,9.1.49,7.96.95,15.92,1.43,23.87,1,.24,2,.49,2.99.72,11.45-11.92,25.48-21.39,35.53-34.65-.99-1.1-1.99-2.2-2.98-3.29-8.66,6.93-17.32,13.86-28.29,22.64h0ZM1858.16,268.68c-.92-1.51-1.83-3.03-2.75-4.54-9.02,6.82-18.04,13.65-28.59,21.64-1.25-12.25-2.28-22.29-3.44-33.73-5.09,2.04-8.51,3.51-12.02,4.8-9.96,3.64-20.33,13.88-29.06-4.58-.69,1.19-1.38,2.38-2.07,3.56,2.06,6.35,4.11,12.72,6.24,19.29,10.39-4.04,19.05-7.39,29.83-11.58,1.18,13.6,2.2,25.41,3.46,40.15,14.19-12.94,26.29-23.96,38.39-34.99h0ZM709.47,219.22c14.2-4.43,25.72-7.34,36.65-11.68,7.45-2.95,12.37-1.32,17.68,3.9,6.7,6.59,13.89,12.72,21.21,18.64,1.67,1.36,4.73,1.03,7.15,1.47-.78-2.32-.87-5.35-2.45-6.83-7.6-7.18-15.93-13.61-23.36-20.95-5.88-5.8-11.36-7.84-19.55-4.35-8.65,3.69-18.03,5.73-28.57,8.95,1.1-14.92,2.01-27.33,2.92-39.74-1.65-.16-3.31-.33-4.96-.49-5.46,15.68-3.38,32.52-6.73,51.08h0ZM180.6,78.04c1.23-.92,2.46-1.85,3.69-2.77-1.79-2.72-3.15-5.89-5.46-8.07-6.86-6.43-14.56-12.03-21.04-18.78-6.57-6.84-13.28-7.5-21.7-4.18-7.92,3.14-16.21,5.33-25.32,8.24-2.54-14.43,3.82-27.62-.26-40.11-1.65-.07-3.3-.14-4.95-.2-1.43,16.25-2.85,32.51-4.48,51.2,13.8-4.38,25.09-7.6,36.11-11.58,6.69-2.42,11.7-1.77,17.02,3.32,8.4,8.05,17.55,15.33,26.39,22.94h0ZM871.14,172.83c-1.64.95-3.28,1.91-4.92,2.86-4.84-6.35-9.49-12.88-14.6-19.02-3.17-3.82-6.59-4.69-9.95.52-7.5,11.68-15.46,23.07-22.94,34.76-1.06,1.66-.53,4.33-.73,6.52,1.09.45,2.19.88,3.28,1.33,8.5-11.34,17.02-22.7,26.01-34.69,8.41,7.57,15.53,13.99,23.61,21.26,8.5-10.08,16.49-19.17,23.94-28.68,1.4-1.77.71-5.16.98-7.8-2.32.87-5.31,1.11-6.83,2.71-6.2,6.51-11.95,13.44-17.86,20.22h0ZM478.51,59.99c.88-10.16,1.94-17.62,2.04-25.09.06-5-1.24-10.01-1.93-15.02-1.62,4.76-4.08,9.4-4.71,14.29-1.49,11.37-2.12,22.85-3.27,36.28,13.18-4.26,23.8-7.36,34.16-11.15,7.57-2.76,13.77-2.79,19.83,3.61,5.94,6.29,12.82,11.73,19.53,17.24,2.28,1.87,5.32,2.81,8,4.19l2.02-2.45c-1.7-2.21-3.14-4.7-5.17-6.56-7.67-7.06-15.84-13.62-23.23-20.94-5.13-5.08-10.25-6.27-16.98-3.91-9.1,3.19-18.39,5.81-30.26,9.5h-.03ZM1008.1,111.8c-7.67,9.4-13.44,16.48-19.94,24.44-7.75-11.89-14.72-22.57-22.74-34.85-2.44,9.88,14.59,42.09,23.49,48.09,4.81-5.95,9.66-11.96,15.89-19.66,5.34,13.7,9.84,25.26,14.34,36.82,1.76-.64,3.52-1.3,5.29-1.94-5.17-16.72-10.33-33.45-16.34-52.91h0ZM643.9,129.69c5.48,13.8,10.06,25.32,15.23,38.36,4.48-8.45-2.96-36.53-13.11-54.65-6.08,7.5-11.75,14.5-18.42,22.73-4.41-6.52-8.04-11.87-11.64-17.22-3.42-5.09-6.81-10.2-10.21-15.28-3.13,9.22,14.11,40.31,22.69,45.71,4.61-5.86,9.27-11.77,15.45-19.63h0ZM991.96,225.97c12.06-3.78,23.48-6.77,34.42-11.02,7-2.71,11.76-1.37,16.86,3.54,7.01,6.76,14.44,13.12,22.02,19.23,1.59,1.29,4.63.82,7,1.16-.8-2.01-1.06-4.61-2.5-5.95-8.18-7.56-16.98-14.49-24.89-22.31-5.13-5.07-9.76-6.48-16.73-3.74-9.24,3.63-18.98,6.04-30.02,9.43.96-14.64,1.79-27.33,2.75-41.95-7.41,5.96-11.65,35.31-8.91,51.59h0ZM1186.84,69.89c7.87-2.29,14.18-3.1,19.47-5.85,17.78-9.24,32.93-8.15,45.62,8.66,2.65,3.51,6.68,6.1,10.37,8.69,1.86,1.31,4.39,1.69,6.61,2.49.51-.77,1.02-1.55,1.53-2.33-1.86-2.25-3.48-4.76-5.64-6.7-7.76-6.98-16-13.46-23.47-20.72-5.25-5.1-10.35-5.78-17.03-3.31-9.03,3.35-18.35,5.9-28.76,9.17,0-5.72-.26-9.77.06-13.78.53-6.9,1.68-13.77,1.97-20.68.07-1.71-2.14-3.51-3.3-5.28-1.1,1.11-3.05,2.14-3.18,3.35-1.51,14.69-2.77,29.41-4.29,46.27h0ZM1573.58,298.09c-.33-1.39-.65-2.76-.98-4.15-3.24.23-6.54.15-9.71.74-7.89,1.47-15.66,3.85-23.61,4.77-10.35,1.19-16.15,6.09-18.72,16.22-2.16,8.52-5.87,16.67-9.5,26.66-10.9-10.12-20.16-18.73-29.44-27.34-1.33,1.42-2.64,2.83-3.97,4.25,11.4,11.29,22.81,22.58,35.82,35.47,2.93-7.67,4.75-12.1,6.33-16.61,7.03-20.12,21-32.22,41.93-36.29,4.04-.79,7.9-2.46,11.85-3.72h0ZM1322.11,103.48c-1.51.83-3.02,1.66-4.53,2.49,6.31,15.54,16.16,29.23,25.17,45.58,6.36-7.96,11.32-14.16,17.48-21.86,5.44,13.62,10.02,25.08,14.6,36.55l4.32-1.59c-3.23-17.33-9.71-33.74-16.19-52.46-6.99,8.91-12.6,16.07-19.25,24.55-7.88-12.14-14.73-22.7-21.59-33.25h0ZM1612.71,77.64c1.14-.81,2.28-1.62,3.41-2.44-1.54-2.46-2.65-5.4-4.71-7.32-7.39-6.89-15.38-13.17-22.63-20.19-5.79-5.6-11.47-6.39-18.95-3.43-8.48,3.37-17.49,5.44-27.32,8.39V13.07l-4.23-.13c-1.44,15.97-2.86,31.94-4.48,50,12.95-4.12,23.42-6.75,33.3-10.79,8.7-3.55,15.08-2.14,21.62,4.35,7.55,7.49,15.96,14.14,23.98,21.14h0ZM1735.33,533.02c1.81-.7,3.62-1.4,5.42-2.1-5.29-16.35-10.57-32.7-16.63-51.43-7.56,9.21-13.31,16.2-19.86,24.17-7.84-12.09-14.65-22.6-21.47-33.11-1.68,1.07-3.36,2.13-5.04,3.2,8.31,14.38,16.62,28.77,25.65,44.39,6.56-8,11.46-13.98,17.69-21.57,5.28,13.53,9.75,24.99,14.22,36.46h0ZM1374.86,532.72c1.64-.61,3.29-1.24,4.93-1.85-5.1-16.33-10.21-32.67-16.08-51.45-7.51,8.9-13.37,15.83-20.03,23.72-7.84-11.54-14.95-22-22.05-32.47-1.55.97-3.11,1.95-4.66,2.92,8.32,14.45,16.65,28.9,25.72,44.64,6.4-7.83,11.31-13.83,17.47-21.35,5.43,13.24,10.08,24.54,14.71,35.83h0ZM1706.19,225.7c5.17-1.2,8.14-1.24,10.4-2.51,24.89-14.04,45.73-9.42,63.2,12.77,1.7,2.17,5.06,3.05,7.64,4.53.73-.87,1.46-1.75,2.2-2.62-2-2.38-3.76-5.02-6.04-7.1-7.22-6.53-14.94-12.55-21.88-19.35-5.6-5.49-10.79-7.24-18.57-3.97-8.97,3.76-18.66,5.82-28.66,8.8-.96-14.81,4.23-27.49,1.33-40.01-1.54-.1-3.09-.2-4.62-.29-1.6,15.95-3.21,31.89-5,49.77v-.02ZM1426.37,217.97c6.89-1.78,11.55-2.14,15.35-4.13,20.86-10.88,38.73-8.99,53.58,10.5,2.79,3.67,7.45,5.94,11.25,8.86.9-.9,1.79-1.8,2.69-2.71-1.76-2.46-3.16-5.3-5.34-7.31-6.91-6.36-14.57-11.99-21.06-18.73-6.15-6.38-12.01-7.96-20.43-4.46-8.65,3.58-17.97,5.57-27.6,8.44-1.61-14.77,4.72-27.43.7-39.82l-4.26-.27c-1.54,15.68-3.1,31.36-4.9,49.62h0ZM1065.5,415.36c1.61-.4,3.24-.79,4.85-1.18-1.09-6.3-1.86-12.66-3.35-18.86-1.51-6.3.27-9.28,7.04-9.15,6.99.15,13.99-.12,20.97.02,5.96.12,9.31-1.84,8.71-8.45-1.04-11.38-1.67-22.8-2.75-34.18-.21-2.26-1.61-4.4-2.46-6.6-1.07.17-2.13.34-3.2.5,0,9.18-.62,18.4.17,27.5.89,10.31-3.39,13.66-13.22,12.77-6.59-.59-13.31-.54-19.9.07-2.34.22-6.56,3.48-6.32,4.49,2.74,11.12,6.19,22.06,9.44,33.06h.02ZM1195.01,384.99c-2.02-.14-4.04-.27-6.06-.41-1.44,15.95-2.87,31.89-4.53,50.35,13.72-4.4,24.96-7.68,35.95-11.66,6.68-2.42,11.87-1.82,17.06,3.36,6.38,6.37,13.32,12.23,20.28,18.01,2.21,1.83,5.25,2.69,7.9,4,.61-.85,1.24-1.69,1.85-2.54-2.35-2.71-4.45-5.67-7.07-8.09-6.64-6.14-13.83-11.72-20.2-18.1-5.99-5.99-12.1-6.96-19.9-3.92-8.57,3.33-17.51,5.7-27.89,9,.96-14.71,1.78-27.36,2.61-40h0ZM1160.71,281.75c-1.43.04-2.86.09-4.29.13-.57,2.72-1.94,5.56-1.56,8.15.96,6.49,2.46,12.94,4.22,19.26,1.62,5.85.18,9.12-6.11,10.6-7.64,1.8-20.04,2.67-21.49,6.92-2.19,6.44,3.08,15.52,5.55,23.36,2.61,8.3,5.66,16.47,8.52,24.7,1.52-.45,3.05-.88,4.58-1.33-1.64-7.18-3.03-14.42-4.97-21.51-5.58-20.45-5.61-20.23,14.4-25.74,3.35-.92,8.77-4.73,8.51-6.57-1.76-12.75-4.78-25.34-7.39-37.97h.02ZM1218.89,182.78c-6.46-6.13-12.02-11.26-17.42-16.55-4.2-4.1-7.58-5.55-11.49.71-6.61,10.59-13.97,20.72-20.75,31.21-1.37,2.11-1.58,4.95-2.33,7.45,1.07.54,2.14,1.09,3.22,1.64,8.51-11.35,17.03-22.72,25.95-34.63,8.26,7.43,15.4,13.87,23.61,21.25,8.56-10.05,16.49-19.12,24.08-28.47,1.2-1.48.86-4.19,1.24-6.33-2.33.63-5.41.53-6.84,2.02-6.41,6.68-12.35,13.8-19.26,21.69h0ZM154.46,106.13c-.72.93-1.45,1.87-2.17,2.8.6,1.46.78,3.6,1.88,4.3,12.09,7.61,24.2,15.2,36.67,22.17,1.4.78,6.43-1.71,7.32-3.73,3.02-6.96,5.53-14.25,7.14-21.66,1.9-8.8,6.22-12.42,15.35-10.37,3.23.72,6.76.12,10.16.12.18-1.29.35-2.58.52-3.87-6.73-2.05-13.36-4.8-20.25-5.81-2.82-.42-7.71,2.17-9.03,4.72-2.82,5.45-3.8,11.83-5.76,17.75-4.39,13.23-4.41,13.17-16.56,6.69-8.37-4.46-16.84-8.74-25.27-13.11h0ZM908.08,125.4c-13.74-7.1-25.75-13.3-39.8-20.57.73,4.7.42,7.14,1.3,7.69,12.64,8.01,25.35,15.92,38.35,23.32,1.07.61,5.6-2.09,6.37-4.08,3.28-8.37,5.9-17.02,8.45-25.65,1.64-5.56,4.55-7.91,10.7-6.82,4.37.77,8.98.15,13.48.15.19-1.16.37-2.32.55-3.46-6.38-1.94-12.89-3.61-19.13-5.92-6-2.22-9.03-.57-10.76,5.53-2.7,9.57-6.03,18.98-9.53,29.8h.02ZM1735.25,166.26c1.76-.64,3.52-1.28,5.29-1.92-5.2-16.53-10.39-33.06-16.28-51.78-7.8,9.27-13.62,16.18-20.09,23.89-7.87-12.08-14.63-22.46-21.39-32.83-1.57.97-3.16,1.93-4.73,2.9,8.12,14.46,16.24,28.92,25.1,44.7,6.44-7.76,11.42-13.75,17.93-21.59,5.26,13.57,9.72,25.1,14.18,36.63h0ZM1435.45,366.13c6.51,6.24,12.16,11.29,17.37,16.75,3.85,4.03,7.02,5.03,11.23.43,7.29-7.95,15.01-15.5,22.34-23.41,1.49-1.6,2.06-4.06,3.43-6.91-2.97,0-4.38-.44-4.94.07-5.2,4.62-10.3,9.33-15.31,14.15-11.05,10.61-10.97,10.58-21.65.2-4.17-4.05-8.63-7.81-13.97-12.6-10.76,14.75-20.93,28.39-28.94,43.34,1.36.95,2.71,1.89,4.07,2.84,8.35-11.05,16.72-22.09,26.36-34.83h0ZM1166.45,563.73c1.56,1.21,3.12,2.43,4.68,3.63,8.39-11.29,16.8-22.6,26.08-35.08,6.39,6,12.08,10.95,17.27,16.34,4.21,4.38,7.57,5.14,12.05.22,7.01-7.7,14.66-14.82,21.75-22.46,1.61-1.73,2.04-4.55,3.01-6.88-1-.69-2.01-1.39-3.01-2.09-6.9,6.56-14.12,12.83-20.59,19.79-4.88,5.25-8.63,5.73-13.7.36-5.37-5.69-11.43-10.73-18.36-17.13-10.25,15.22-19.72,29.27-29.17,43.31h0ZM1040.29,343.17c-.59-1.37-1.19-2.73-1.78-4.1-6.37,2.16-12.73,4.39-19.12,6.46-5.3,1.72-7.42,4.84-5.28,10.29.76,1.93,1.19,4,1.7,6.02,4.27,16.46-1.99,25.63-18.78,27.49-5.75.65-11.44,1.87-17.16,2.82,1.46,3.67,2.6,5.06,3.7,5.02,14.33-.5,28.69-.94,42.95-2.25,1.63-.15,4.3-5.73,3.87-8.39-1.18-7.5-3.34-14.93-5.83-22.13-2.62-7.59-1.2-12.64,6.77-15.65,3.23-1.22,5.98-3.68,8.95-5.57h0ZM1816.63,337.72c-1.62.07-3.25.13-4.88.2,0,10.06-.28,20.12.1,30.16.27,7.17-2.57,10.14-9.8,9.83-7.67-.33-15.39-.48-23.04.09-2.35.18-6.64,3.44-6.4,4.46,2.58,11.14,5.89,22.1,9,33.12,1.42-.28,2.84-.56,4.26-.84-.55-5.16-.76-10.38-1.72-15.46-2.47-13.14-2.59-13.13,11.07-13.32,16.86-.24,24.64-8.79,23.35-25.63-.58-7.54-1.29-15.08-1.94-22.62h.02ZM1874.94,282.09c-1.3.37-2.59.73-3.89,1.1.49,4.44.73,8.94,1.51,13.33,3.8,21.41,3.94,21.83-16.99,25.78-9.25,1.74-10.48,5.35-7.29,13.39,3.84,9.63,6.48,19.73,9.87,29.55,1.13,3.26,2.97,6.27,4.47,9.38,1.08-.34,2.15-.66,3.23-1-.39-3.07-.43-6.23-1.22-9.2-2.25-8.36-4.59-16.71-7.3-24.92-2.07-6.28-.69-9.5,6.29-11.09,21.79-4.93,21.73-5.14,17.27-27.43-.81-4.08-1.31-8.24-2.44-12.21-.67-2.37-2.33-4.45-3.53-6.66v-.02ZM1586.93,185.75c9.02-10.63,17.14-20.03,24.97-29.67.91-1.12.2-3.53.24-5.36-1.83.21-3.89,0-5.44.76-1.44.71-2.3,2.53-3.48,3.8-5.42,5.79-10.41,15.48-16.45,16.17-5.48.63-12.46-8.16-18.13-13.48-4.87-4.56-7.9-4.27-11.46,1.26-6.76,10.49-14.01,20.68-20.82,31.13-1.21,1.85-1.32,4.39-1.93,6.62,1.09.58,2.18,1.17,3.28,1.75,8.45-11.25,16.9-22.51,25.82-34.38,8.27,7.54,15.13,13.82,23.43,21.39h-.01ZM1335.68,391.53c.08,1.16.15,2.32.23,3.47.79.59,1.6,1.72,2.38,1.7,14.31-.4,28.64-.77,42.94-1.52,6.09-.32,6.01-4.43,4.68-9.06-2.29-8-4.04-16.16-6.64-24.05-2.02-6.11-.69-9.71,5.42-12.29,3.99-1.68,7.39-4.72,11.06-7.15-.56-1.05-1.13-2.1-1.69-3.15-4.44,1.35-8.84,2.9-13.34,4-10.06,2.44-14.34,7.39-9.47,17.85,2.02,4.33,2.14,9.49,3.84,14.01,3.36,8.91.81,12.66-9.01,13.01-10.16.36-20.26,2.06-30.39,3.18h0ZM1694.29,392.93c3.58,2.61,4.41,3.75,5.22,3.73,14.32-.44,28.67-.74,42.94-1.94,1.61-.14,4.34-5.7,3.88-8.29-1.49-8.51-4.19-16.82-6.48-25.19-1.49-5.45-.41-9.18,5.6-11.4,4.01-1.48,7.41-4.56,11.09-6.92-.65-1.28-1.32-2.55-1.97-3.84-6.29,2.31-12.49,4.88-18.9,6.82-5.8,1.76-6.57,5.01-4.87,10.27,2.13,6.59,3.29,13.5,5.46,20.08,2.58,7.83.95,11.92-8.14,11.91-5.23,0-10.46.86-15.66,1.59-5.17.72-10.29,1.77-18.16,3.16h-.01ZM1586.85,106.41c-1,1.49-2,2.99-3,4.48,14.24,8.82,28.49,17.65,44.45,27.54,3.66-11.46,7.15-20.79,9.55-30.37,1.89-7.53,5.58-10.42,13.37-8.9,3.65.72,7.57.12,11.37.12.18-.99.37-1.98.54-2.97-4.06-1.45-8.04-3.22-12.2-4.29-14.35-3.71-14.35-3.61-18.8,10.18-2.41,7.45-4.93,14.87-7.84,23.63-13.34-6.92-25.4-13.18-37.46-19.42h0ZM856.9,273.04c1.51.82,3.04,1.64,4.55,2.45,8-9.92,6.4-24.59,14.36-35.66,12.15,6.12,24,12.1,35.86,18.06.96-1.74,1.92-3.48,2.89-5.22-14.5-8.98-29-17.96-45.47-28.15-4.42,17.58-8.3,33.04-12.2,48.51h0ZM497.63,137.47c.85.99,1.7,1.97,2.55,2.96,2.71-1.57,5.62-2.89,8.12-4.75,7.24-5.39,14.46-10.84,21.41-16.6,4.81-3.99,9.21-4.87,15.2-2.01,9.09,4.35,18.63,7.79,28.12,11.22,1.84.66,4.37-.51,6.57-.84-.63-1.73-.82-4.54-1.98-5.02-13.18-5.42-26.23-13.17-39.92-14.58-7.35-.76-15.94,9.39-23.84,14.8-4.01,2.74-7.89,5.72-11.55,8.9-1.87,1.62-3.14,3.92-4.67,5.91l-.02.02ZM1072.12,575.43c-4.97-1.2-7.69-2.78-9.55-2.1-3.15,1.16-6.15,3.4-8.52,5.83-6.04,6.18-10.56,4.22-15.41-1.57-6.89-8.24-14.03-16.29-21.51-24-1.93-1.99-5.54-2.39-8.38-3.51.96,2.92,1.22,6.4,3.02,8.67,6.05,7.57,12.66,14.71,19.05,22,9.25,10.55,19.62,11.59,31.09,3.12,2.69-2,5.19-4.27,10.21-8.43h0ZM1224.77,225.18c-4.39,17.6-8.26,33.08-12.13,48.57,1.78.54,3.56,1.08,5.35,1.62,3.86-12.01,7.73-24.01,11.69-36.31,14.27,3.24,23.79,15.77,37.79,17.42.7-1.26,1.42-2.52,2.12-3.78-14.15-8.69-28.29-17.37-44.82-27.53h0ZM1065.4,467.31c-1.49-2.02-2.6-3.74-3.93-5.29-6.35-7.39-12.78-14.73-19.17-22.09-15.83-18.19-16.68-18.31-34.55-1.64-1.79,1.67-1.96,5.06-2.88,7.65,2.45-.26,5.05-.13,7.32-.89,1.9-.63,3.59-2.16,5.11-3.57,6.93-6.46,12.22-5.41,17.95,2.19,6.46,8.6,14.06,16.38,21.43,24.27,1.39,1.48,4.04,2.01,6.22,2.44.56.11,1.53-1.82,2.51-3.06h-.01ZM1454.73,480.14c1.18,0,2.37.02,3.54.03,9.88-12.16-.68-28.11,6.03-40.94,6.11,2.37,11.61,4.49,17.12,6.63.69-1.54,1.39-3.09,2.08-4.62-9.59-5.73-19.17-11.46-28.77-17.19-.91.75-1.82,1.49-2.73,2.25.91,17.96,1.81,35.9,2.72,53.86h0ZM1169.12,249.92c.97-1.35,1.94-2.69,2.9-4.03-11.91-10.25-23.73-20.61-35.87-30.57-1.37-1.12-4.81-.46-7.02.24-11.98,3.73-23.91,7.61-35.73,11.76-1.68.59-2.76,2.88-4.13,4.39,3.67,1.8,6.29,1.78,8.67,1.05,8.65-2.66,17.3-5.34,25.8-8.44,6.54-2.4,11.86-1.99,17.09,3.21,6.39,6.35,13.4,12.11,20.35,17.88,2.31,1.91,5.27,3.04,7.93,4.52h0ZM1573.64,273.51c1.42.44,2.82.88,4.24,1.32,1.13-2.2,2.58-4.29,3.34-6.6,2.36-7.27,4.71-14.55,6.55-21.96,1.67-6.73,4.98-7.43,10.58-4.17,7.25,4.22,14.62,8.21,22.09,12.03,2.34,1.19,5.13,1.49,7.71,2.21.65-1.4,1.32-2.79,1.97-4.18-14.36-8.57-28.74-17.14-44.79-26.73-4.31,17.7-7.99,32.88-11.68,48.07h0ZM1214.22,137.5c.86.91,1.72,1.81,2.59,2.72,2.51-1.5,5.2-2.8,7.52-4.56,7.24-5.46,14.49-10.93,21.45-16.74,4.81-4.02,9.27-4.98,15.26-2.15,8.51,4.02,17.43,7.27,26.34,10.36,2.48.86,5.57.04,8.38,0-1.79-1.98-3.2-4.82-5.43-5.82-40.03-17.81-40.5-17.72-71.62,10.45-1.78,1.61-3.02,3.8-4.5,5.73ZM1005.03,81.15c5.11-3.17,8.85-4.97,11.95-7.51,7.16-5.89,12.5-5.2,18.2,2.44,6.23,8.34,13.5,15.95,20.7,23.52,1.98,2.09,5.3,2.93,8,4.35.78-1.1,1.55-2.19,2.34-3.29-11.75-13.55-23.48-27.12-35.32-40.6-.83-.94-2.37-1.63-3.64-1.77-4.97-.52-20.86,14.54-22.22,22.88h0ZM1805.85,230.06c.59,1.57,1.18,3.15,1.77,4.72,6.33-2.1,12.94-3.6,18.93-6.41,15.55-7.32,29.08-6.89,40.51,7.57,3.4,4.31,7.96,7.78,12.34,11.2,1.66,1.3,4.3,1.37,6.48,1.99,1.39-1.76,2.76-3.52,4.15-5.29-4.17-2.4-9.63-3.82-12.28-7.33-17.22-22.85-37.99-24.29-61.71-11.37-3.31,1.8-6.78,3.3-10.19,4.94h0ZM1720.91,449.59c6.49-4.33,10.53-6.44,13.87-9.36,6.01-5.26,10.5-4.76,15.54,1.58,6.88,8.67,14.39,16.87,22.01,24.9,1.67,1.77,4.95,2.06,7.48,3.03-.65-2.38-.62-5.31-2.07-7.04-9.31-11.18-18.81-22.21-28.59-32.99-1.77-1.95-6.19-4.25-7.54-3.42-7.08,4.31-13.71,9.4-20.12,14.66-1.07.87-.35,3.9-.58,8.62h0ZM1011.37,304.62c1.59.76,3.19,1.53,4.78,2.3,3.09-6.1,6.45-12.09,9.2-18.34,2.48-5.66,5.42-7.36,11.13-3.72,6.42,4.11,13.14,7.84,19.99,11.23,1.95.96,4.8.14,7.24.13-1-1.92-1.48-4.64-3.08-5.64-11.37-7.19-22.96-14.04-36.24-22.04-4.63,12.85-8.82,24.47-13.01,36.1ZM1779.65,103.92c.84-1.02,1.68-2.04,2.52-3.05-9.53-11.16-19.03-22.35-28.61-33.47-9.37-10.89-9.49-10.97-20.92-2.01-4.36,3.42-8.25,7.4-12.35,11.14.88,1.03,1.77,2.07,2.65,3.1,3.7-2.19,7.78-3.93,11.03-6.65,6.48-5.4,11.26-4.64,16.5,1.96,6.65,8.4,14.03,16.26,21.39,24.08,2.03,2.16,5.16,3.3,7.78,4.9h0ZM1780.08,299.88c-2.89-9.77-25.02-24.83-40.21-29.57-4.08,11.67-8.17,23.39-12.25,35.11,1.55.62,3.11,1.25,4.66,1.87,2.86-6,5.97-11.89,8.52-18.02,2.69-6.45,5.95-8.56,12.62-4.28,7.74,4.97,16.08,9.03,26.66,14.88ZM1386.43,588.92c-4.74-3.13-9.12-5.11-12.25-8.29-7.09-7.19-13.32-15.19-20.42-22.37-2.44-2.45-6.4-3.42-9.68-5.07,1.29,3.15,1.91,6.84,3.99,9.34,7.98,9.66,16.41,18.95,24.71,28.36,7.21,8.18,9.07,7.8,13.66-1.97h0ZM685.44,86.51c1.24-.64,2.48-1.29,3.72-1.93-2.1-3.62-3.66-7.71-6.38-10.8-16.9-19.12-19.73-19.12-37.55-.63-1.24,1.28-1.34,3.64-2.57,7.32,9.49-4.08,17.5-10.69,23.96-9.44,7.02,1.35,12.6,10.02,18.82,15.49h0ZM885.45,458.77c-1.59-.35-3.19-.69-4.78-1.04-3.42,8.89-6.95,17.74-10.14,26.72-.45,1.27.45,4.31,1.2,4.48,9.66,2.27,19.41,4.17,29.13,6.16.46-1.73.9-3.46,1.36-5.2-4.5-1.6-8.95-3.42-13.53-4.76-6.08-1.77-8.81-4.63-6.33-11.37,1.74-4.73,2.11-9.97,3.1-14.99h0ZM948.58,398.97c-.61-1.48-1.24-2.97-1.85-4.45-9.27,2.75-18.58,5.38-27.77,8.39-1.09.36-2.51,3.14-2.11,4.06,4.01,8.98,8.37,17.8,12.64,26.66,1.46-.57,2.91-1.15,4.37-1.72-1.13-4.38-1.79-8.94-3.5-13.08-3.02-7.32-1.37-11.55,6.59-13.83,4.12-1.18,7.76-3.97,11.62-6.03h0ZM1402.39,86.26c1.26-1.23,2.51-2.44,3.77-3.67-7.2-7.86-14.26-15.85-21.79-23.39-.82-.83-4.56.37-6.37,1.5-3.82,2.42-7.42,5.24-10.83,8.23-2.85,2.5-5.29,5.48-7.9,8.26.91.94,1.82,1.87,2.74,2.81,2.82-1.7,5.99-3.02,8.4-5.18,7.45-6.64,13.86-6.35,20.43,1.42,3.25,3.84,7.66,6.71,11.54,10.02h0ZM231.94,31.77c-.49-1.31-.99-2.62-1.48-3.93-9.29,2.64-18.61,5.21-27.84,8.04-.93.29-1.74,2.11-1.95,3.34-.77,4.4,11.11,23.71,17.23,26.28-1.43-4.82-2.25-8.67-3.69-12.28-3.09-7.7-2.38-13.11,7.01-15.52,3.84-.99,7.18-3.88,10.74-5.91h0ZM573.16,67.67c-.84-5.4-.93-8-1.66-10.39-4.5-14.62-4.51-14.51,8.65-21.21,2.59-1.32,4.69-3.6,7.02-5.44-.49-.87-.97-1.73-1.46-2.6-5.21,1.29-10.41,2.53-15.6,3.88-10.74,2.77-13.88,9.06-9.41,18.88,1.72,3.77,3.19,7.68,5.29,11.23.99,1.66,3.2,2.61,7.18,5.67h0ZM792.15,121.97c.52.8,1.06,1.61,1.58,2.42,7.4-2.31,15.12-7.05,22.14-6.21,6.54.79,12.36,7.52,19.08,12.04-1.07-19.2-11.82-26.34-27.01-19.08-4.1,1.96-8.29,3.79-12.15,6.13-1.59.96-2.45,3.11-3.65,4.71h0ZM947.91,32.01c-.6-1.4-1.21-2.79-1.81-4.19-8.59,2.44-17.24,4.66-25.7,7.48-1.61.54-3.85,4.09-3.37,5.19,3.92,8.8,8.41,17.33,12.74,25.95,1.29-.54,2.57-1.1,3.85-1.64-1.21-4.39-2.01-8.96-3.7-13.17-2.74-6.8-1.64-11.08,6.04-13.41,4.23-1.29,7.98-4.1,11.95-6.22h0ZM1076.75,553.98c1.47-.66,2.95-1.32,4.42-1.98-1.1-3.78-1.69-7.8-3.39-11.29-3.87-8.01-2.25-12.9,6.76-15.46,3.75-1.07,7.04-3.76,10.53-5.72-.58-1.34-1.16-2.66-1.74-4-9.89,2.86-19.78,5.72-31.17,9.02,5.5,11.13,10.04,20.28,14.57,29.45h.01ZM1303.05,31.66c-.49-1.16-.98-2.31-1.46-3.46-6.59,1.73-13.13,3.8-19.81,5.11-9.74,1.91-10.91,6.62-6.12,14.54,2.49,4.13,3.84,8.93,6.18,13.18,1.07,1.93,3.29,3.23,4.98,4.81.82-.52,1.63-1.05,2.45-1.57-1.21-4.11-1.98-8.39-3.71-12.27-3.29-7.36-1.3-11.62,6.39-14.2,3.94-1.33,7.41-4.03,11.1-6.12h0ZM1285.12,433.17c1.37-.51,2.73-1.03,4.1-1.54-1.21-4.27-1.88-8.78-3.73-12.75-3.46-7.43-1.55-11.6,6.31-14.07,4-1.26,7.58-3.85,11.35-5.83-.63-1.36-1.27-2.72-1.89-4.08-9.71,2.87-19.43,5.73-30.78,9.09,5.47,10.91,10.07,20.04,14.66,29.18h0ZM1387.82,243.66c.37-1.42.72-2.83,1.09-4.24-3.97-1.56-7.81-3.79-11.93-4.55-8.15-1.52-9.17-5.85-6.83-12.77,1.45-4.28,1.97-8.87,2.9-13.31-1.41-.46-2.81-.92-4.23-1.38-3.85,9.68-7.71,19.37-12.34,31.02,11.91,1.99,21.62,3.61,31.33,5.25v-.02ZM833.59,497.76c1.55-7.48-6.63-23.32-11.89-24.31-4.56-.85-25.43,10.65-29.85,17.87,5.68-1.57,9.88-2.25,13.64-3.88,9.28-4.04,17.29-4.95,22.57,5.98.86,1.78,3.43,2.75,5.54,4.35h0ZM1223.06,490.08c.79-.57,1.58-1.14,2.38-1.71-3.04-5.47-5.86-11.09-9.24-16.35-1.37-2.13-4.67-5.37-5.86-4.92-9.91,3.78-19.52,8.3-29.22,12.59.53,1.28,1.07,2.56,1.61,3.84,3.78-.9,7.85-1.22,11.3-2.82,9.69-4.49,17.94-5.26,23.65,5.89.84,1.64,3.54,2.35,5.37,3.47h0ZM1887.54,38.81c-2.32,11.74-4.31,21.82-6.3,31.9,1.09.42,2.18.83,3.27,1.25,1.5-3.29,3.49-6.43,4.41-9.87,2.24-8.36,5.96-12.78,15.43-8.45,3.33,1.52,7.46,1.31,11.23,1.88.36-1.13.71-2.26,1.06-3.4-9.04-4.14-18.08-8.28-29.12-13.32h.01ZM1351.37,444.64c.58,1.36,1.18,2.7,1.76,4.06,4.39-1.29,9.08-2.01,13.12-3.99,8.87-4.36,15.73-3.55,20.99,5.48,1.21,2.08,4.02,3.24,6.09,4.81.9-.77,1.79-1.55,2.69-2.33-3.97-6.58-7.87-13.21-12.01-19.69-.58-.92-2.7-1.84-3.54-1.47-9.76,4.24-19.42,8.71-29.1,13.13h0ZM1550.5,128.9c.87-.66,1.73-1.33,2.6-1.99-5.22-6.73-10.38-18.96-15.66-19.01-9.54-.09-19.14,7.1-28.73,11.24.56,1.49,1.13,2.98,1.69,4.47,7.12-2.21,14.55-6.82,21.25-5.94,6.66.87,12.58,7.26,18.83,11.23h0ZM1800.65,158.73c-1.35-4.07-1.74-6.29-2.75-8.19-6.45-12.18-15.84-15.37-28.15-9.59-4.43,2.1-8.63,4.68-12.94,7.05.63,1.26,1.26,2.5,1.89,3.76,7.05-2.37,14.46-7.29,21.05-6.37,6.63.92,12.45,7.64,20.91,13.35h-.01ZM1147.14,119.42c.57,1.48,1.14,2.97,1.71,4.46,7.27-2.12,14.8-6.53,21.71-5.71,6.72.8,12.79,6.95,19.14,10.75-1.47-6.95-4.69-13.09-8.32-18.99-.96-1.55-3.73-3.68-4.74-3.28-9.95,3.98-19.7,8.43-29.5,12.75h0ZM1082.49,157.99c.87-.68,1.74-1.36,2.61-2.04-3.21-5.44-6.24-11-9.69-16.27-1.42-2.17-4.53-5.68-5.55-5.29-10.2,4.01-20.11,8.7-30.11,13.2.46,1.15.91,2.3,1.37,3.44,2.18-.19,4.65.23,6.49-.65,12.07-5.75,23.45-9.27,31.19,6.25.43.84,2.42.92,3.68,1.36h0ZM1663.27,32.37c-.41-1.41-.82-2.81-1.23-4.21-8.83,2.53-17.7,4.96-26.44,7.75-1.1.36-2.57,3.11-2.18,4.01,3.91,8.8,8.19,17.43,12.35,26.11,1.27-.53,2.52-1.06,3.79-1.59-1.25-4.38-2.11-8.9-3.83-13.08-2.81-6.79-1.89-11.08,6.02-13.21,4.07-1.1,7.69-3.8,11.51-5.78ZM1905.56,128.4c.64-.35,1.29-.69,1.93-1.04-2.78-4.92-5.3-10.01-8.43-14.69-1.61-2.41-5.16-6.24-6.44-5.76-9.66,3.59-18.99,8.1-28.41,12.31.56,1.44,1.13,2.87,1.69,4.31,7.04-2.1,14.34-6.45,21.03-5.66,6.54.77,12.45,6.8,18.63,10.52h0ZM657.04,208.73c-1.58-.5-3.17-1.01-4.75-1.51-3.69,9.76-7.38,19.51-11.37,30.07,11.66,1.5,21.21,2.73,30.77,3.96-3.01-3.77-6.58-5.72-10.39-6.45-7.71-1.47-9.75-5.31-7.18-12.56,1.52-4.31,1.99-8.99,2.93-13.5h0ZM1420.61,517.71c13.36,3.52,13.45,3.22,11.75-7.8-.6-3.93.82-8.16,1.22-12.26.29-3.06.4-6.14.58-9.22-1.24-.26-2.47-.5-3.71-.76-3.19,9.75-6.38,19.5-9.83,30.04h0ZM953.73,270.21c-2.44-1.87-3.55-3.15-3.92-2.96-8.82,4.44-17.61,8.96-26.22,13.76-.66.37-.67,3.54.12,4.37.91.95,3.53,1.51,4.58.88,8.35-5.02,16.51-10.35,25.44-16.06h0ZM1308.42,271.13c-10.31-3.53-26.95,6.48-27.91,16.66,9.3-5.55,18.61-11.11,27.91-16.66ZM1668.74,271.04c-6.74-3.09-27.47,6.55-28.86,10.58-.37,1.07-.12,2.93.62,3.62.78.73,2.84,1.09,3.72.57,8.25-4.8,16.36-9.83,24.51-14.79h0ZM444.8,26.09l-5.69-.96c-1.8,9.96-3.6,19.91-5.4,29.86,2.07.35,4.13.7,6.2,1.05,1.63-9.98,3.27-19.97,4.89-29.94h0ZM1156.38,55.58c1.44-9.76,2.86-19.52,4.3-29.28-8.79,6.08-11.21,22.26-4.3,29.28ZM1161.29,391.03c-10.37,7.4-12.9,27.6-5.07,32.28,1.63-10.41,3.18-20.21,5.07-32.28ZM1916.36,333.34c-1.58-.27-3.16-.52-4.74-.79-2.76,9.37-6.45,18.63-4.17,28.69l4.16.63c1.58-9.51,3.17-19.03,4.75-28.54h0ZM714.19,105.77c-1.24-.34-2.46-.68-3.7-1.02-6.57,6.46-9.7,20.2-4.38,29.92,3.16-11.28,5.61-20.09,8.08-28.9ZM802.41,396.59c-1.98-.52-3.96-1.06-5.94-1.58-2.21,7.93-4.5,15.84-6.51,23.83-.22.86.98,2.67,1.93,3.05.98.4,3.39-.15,3.56-.76,2.48-8.13,4.68-16.34,6.96-24.53ZM971,420.6c-3.42,5.6-6.78,8.74-6.67,11.76.08,2.23,4.85,6.1,7.27,5.91,2.46-.2,6.19-4.33,6.41-6.98.22-2.54-3.34-5.4-7.01-10.68h0ZM798.24,30.43c-5.12-3.39-8.5-7.22-10.53-6.6-3.06.92-6.6,4.69-7.14,7.74-.34,1.93,4.48,6.75,6.85,6.65,2.98-.13,5.8-3.93,10.83-7.79h0ZM752.78,173.7c2.01.53,4.01,1.08,6.02,1.61,2.32-7.71,4.77-15.38,6.81-23.16.3-1.11-1.08-3.06-2.21-3.95-.56-.45-3.23.35-3.44,1.05-2.55,8.11-4.83,16.29-7.18,24.46h0ZM154.27,18.54c-4.43-3.37-7.71-7.54-9.78-7.02-3.03.76-6.51,4.59-7.21,7.69-.39,1.72,4.42,6.35,7.05,6.47,2.64.12,5.46-3.71,9.95-7.14h0ZM1417.43,326.66c1.66.59,3.32,1.18,4.98,1.77,2.67-8.77,5.34-17.54,8.01-26.3-1.43-.46-2.85-.9-4.29-1.36-6.19,7.48-6.94,16.87-8.71,25.89h0ZM1845.19,46.88c2.05.39,4.1.78,6.15,1.17,1.45-9.66,2.89-19.31,4.33-28.97-1.83-.28-3.65-.55-5.48-.83-1.66,9.54-3.33,19.09-5,28.64h.01ZM1663.24,394.88c-6.75,1.8-11.74,3.12-16.71,4.45-1.34.37-2.98.45-3.91,1.28-1.4,1.25-2.9,2.96-3.16,4.65-.16,1.09,1.6,3.16,2.93,3.62,3.28,1.15,18.55-8.41,20.86-14.01h0ZM71.33,41.89c3.41-5.29,6.93-8.33,6.66-11.03-.26-2.65-4.34-4.94-6.74-7.38-2.33,2.55-6.21,4.94-6.51,7.71-.29,2.58,3.24,5.58,6.59,10.7ZM613.17,73.1c-4.56-3.39-7.49-7.24-10.04-7-2.64.25-6.72,4.39-6.82,6.94-.09,2.43,4.03,6.84,6.54,7.03,2.65.2,5.61-3.57,10.31-6.97h0ZM870.34,18.62c-4.35-3.42-7.54-7.59-9.49-7.08-3.04.79-6.51,4.43-7.31,7.5-.43,1.66,4.21,6.37,6.76,6.52,2.6.16,5.45-3.57,10.04-6.95ZM802.15,144.94c-3,5.16-6.26,8.25-5.93,10.9.33,2.69,4.2,4.95,6.5,7.4,2.48-2.72,6.44-5.21,6.96-8.26.38-2.26-3.73-5.26-7.53-10.05h0ZM1103.65,584.27c-3.57,4.7-7.32,7.47-7.2,10.06.14,2.66,4.04,5.15,6.3,7.71,2.53-2.33,6.69-4.39,7.14-7.06.42-2.5-3.1-5.65-6.24-10.7h0ZM1123.26,551.45c1.19.29,2.37.58,3.55.87,7.35-8.47,9.88-21.08,3.76-27.74-2.65,9.73-4.99,18.29-7.32,26.86ZM1471.78,174.03c1.11.31,2.23.62,3.34.93,2.36-8.6,4.7-17.19,7.74-28.29-9.42,5.77-13.21,17.79-11.08,27.36ZM1163.44,155.99c-4.62-3.57-7.46-7.44-9.85-7.18-2.71.3-6.89,4.25-6.96,6.69-.06,2.44,3.91,6.58,6.61,7.03,2.37.4,5.43-3.29,10.2-6.55h0ZM1108.78,173.31c1.04.26,2.09.52,3.13.78,7.58-7.88,10.04-22.03,3.38-27.07-2.27,9.16-4.39,17.72-6.51,26.29h0ZM1913.59,293.97c-4.35-3.61-7-7.42-9.01-7.12-2.92.45-5.37,3.86-8.02,6.01,2.09,2.44,4.01,6.65,6.33,6.88,2.71.27,5.78-2.92,10.7-5.78h0ZM1081.1,185.25c-5.3-3.05-8.68-6.51-10.93-5.9-2.63.72-5.55,4.87-5.85,7.79-.19,1.79,4.43,5.84,6.63,5.67,2.77-.22,5.29-3.71,10.15-7.56h0ZM694.69,192.47c-5-3.15-8.19-6.71-10.54-6.24-2.69.54-6.47,4.75-6.39,7.26.08,2.39,4.4,6.27,7.09,6.45,2.44.18,5.19-3.71,9.85-7.47h0ZM1329.44,73.51c-4.71-3.58-7.32-7.08-10.13-7.23-2.25-.12-6.77,3.96-6.61,5.89.22,2.84,3.39,7.19,5.89,7.64,2.49.46,5.72-3.12,10.86-6.31h0ZM1430.25,106.14c-2.03-.55-4.07-1.11-6.1-1.65-2.28,8.65-4.56,17.3-6.84,25.96,1.79.5,3.57,1.01,5.37,1.5,2.52-8.6,5.06-17.2,7.58-25.82h0ZM1286.77,492.41c-4.8-3.32-7.54-6.63-10.36-6.71-2.19-.06-6.51,4.26-6.24,6.09.44,2.9,3.65,7.12,6.19,7.49,2.44.37,5.52-3.43,10.41-6.87ZM1502.56,41.52c3.84-4.92,7.65-7.67,7.55-10.27-.1-2.61-4.12-5.07-6.41-7.6-2.3,2.14-6.24,4.13-6.46,6.46-.28,2.82,2.59,5.96,5.33,11.41ZM1430.28,443.9c-4.23-3.49-6.88-7.31-9.01-7.04-2.76.35-6.42,3.59-7.17,6.28-.49,1.78,3.46,6.75,5.41,6.75,2.98,0,5.94-3.1,10.76-5.98h0ZM1226.88,7.92c-3.49,5.1-6.78,7.82-6.85,10.61-.06,2.36,3.62,4.8,5.65,7.2,2.57-2.21,6.79-4.12,7.26-6.7.46-2.52-2.92-5.72-6.07-11.12h.01ZM520.21,17.95c-4.66-3.08-7.81-6.75-10.19-6.32-2.62.49-6.33,4.79-6.25,7.34.07,2.44,4.35,6.59,6.84,6.63,2.57.05,5.23-3.94,9.6-7.66h0ZM1824.63,173.37c1.95.47,3.91.94,5.86,1.41,2.21-8.52,4.42-17.05,6.63-25.56-1.74-.46-3.49-.91-5.24-1.37-2.43,8.5-4.84,17.02-7.27,25.52h0ZM1869.86,145.45c-3.46,4.89-7.15,7.83-6.86,10.31.31,2.59,4.13,5.81,7.03,6.63,1.45.41,6-3.9,6.02-6.12.03-2.84-3.07-5.72-6.19-10.83h0ZM1383.28,296.57c-4.94-3.68-7.84-7.49-10.24-7.2-2.63.33-5.94,4.13-6.69,7-.41,1.55,3.78,5.99,6.07,6.13,2.74.16,5.66-2.89,10.86-5.92h0ZM1187.15,303.66c3.5-4.9,6.86-7.57,6.95-10.35.07-2.3-4.01-6.82-5.75-6.59-2.86.38-7.02,3.51-7.44,6.02-.43,2.51,3.04,5.68,6.25,10.93ZM1405.85,189.92c-3.11,5.1-6.6,8.29-6.21,10.9.39,2.53,4.55,5.77,7.44,6.21,1.69.26,5.89-4.39,5.81-6.72-.1-2.82-3.53-5.52-7.05-10.38ZM1577.33,8.17c-3.7,4.83-7.12,7.38-7.34,10.21-.19,2.29,3.44,4.87,5.38,7.32,2.72-2.13,7.03-3.86,7.69-6.49.6-2.38-2.79-5.74-5.73-11.04h0ZM1549.62,251.19c-5.15-3.14-8.03-6.27-10.81-6.18-2.29.08-6.55,4.39-6.2,6.06.59,2.81,3.95,6.68,6.51,6.98,2.49.29,5.45-3.36,10.49-6.86h0ZM1529.03,155.19c-5.03-3.19-8.29-6.82-10.57-6.29-2.49.57-5.38,4.89-5.62,7.78-.16,1.89,4.25,5.94,6.34,5.77,2.75-.22,5.25-3.63,9.86-7.26h0ZM1228.91,595.06c-4.67-3.62-7.21-7.06-9.96-7.25-2.12-.15-6.52,4.02-6.32,5.89.31,2.87,3.31,7,5.89,7.61,2.22.53,5.45-3.1,10.38-6.26h0ZM1786.37,176.05c-2.78,4.93-5.79,7.92-5.62,10.73.13,2.22,4.17,4.2,6.47,6.29,2.17-2.58,5.65-4.99,6.06-7.82.3-2.11-3.4-4.77-6.91-9.2h0ZM1697.51,431.44c-4.79-3.19-7.85-6.68-9.76-6.15-2.88.8-4.95,4.42-7.36,6.85,2.32,2.16,4.65,6.05,6.96,6.03,2.74-.02,5.45-3.4,10.17-6.73h0ZM1295.78,697.83c-.75-1.47-1.51-2.95-2.27-4.42-5.24,2.74-10.48,5.47-15.72,8.22.78,1.5,1.56,3.01,2.34,4.5,5.22-2.76,10.43-5.53,15.65-8.3Z"/>
  <path class="cls-2" d="M1919,237.69c-5.35,1.32-7.41-1.03-8.39-6.19-2.2-11.59-5.54-22.99-7.38-34.63-1.18-7.45-4.8-9.02-11.49-8.28-4.8.53-9.72.11-14.59.11-.15-1.75-.29-3.51-.44-5.27,9.22-1.07,18.44-2.72,27.66-2.68,1.77,0,4.17,6.51,5.14,10.31,3.43,13.39,6.37,26.9,9.5,40.38v6.26-.02Z"/>
  <path class="cls-1" d="M-.55,205.22c20.75,31.31,41.5,62.62,62.23,93.94,12.87,19.45,25.53,39.03,38.63,58.32,4.64,6.83,4.61,12.33-1.07,18.54-6.58,7.19-12.53,14.95-18.6,22.58-6.81,8.56-6.11,10.35,4.66,12.55,29.84,6.11,59.76,11.87,89.51,18.32,132.78,28.8,265.52,57.76,398.27,86.7,39.35,8.57,78.67,17.21,117.98,25.95,3.33.74,7.84,1.46,9.43,3.79,11.51,16.8,22.42,34,32.45,53.08-92.03-16.93-182.66-37.64-273.52-57.22-91.09-19.63-182.05-39.83-273.07-59.78-.49.85-.96,1.7-1.45,2.54,1.94,3.47,3.66,7.09,5.85,10.39,67.2,101.62,134.44,203.21,201.67,304.81,5.94,8.98,12.2,17.8,17.42,27.18,1.52,2.75,1.46,8.57-.46,10.67-35.95,39.39-54.27,86.02-59.13,138.39-.12,1.3-.82,2.54-1.85,5.55-2.91-2.42-5.25-4.02-7.19-6.01-14.37-14.72-28.87-29.32-42.89-44.37-5.37-5.77-9.16-5.73-14.52-.03-15.06,15.99-30.84,31.3-45.72,47.44-5.6,6.09-9.26,5.42-14.36,0-14.84-15.72-30.1-31.04-44.82-46.87-5.75-6.19-9.75-6.92-16.07-.24-22.5,23.82-45.59,47.09-68.48,70.56-9.75,10-10.21,11.8-.07,20.92,20.25,18.21,14.16,15.99,31.04-.37,13.02-12.61,25.61-25.71,37.79-39.1,5.83-6.4,9.68-5.63,15.16.24,14.76,15.78,29.98,31.13,45.06,46.62,2.15,2.21,4.48,4.23,6.86,6.45,10.88-10.51,21.41-20.5,31.71-30.72,7.42-7.36,14.79-14.82,21.74-22.62,5.19-5.83,9.14-5.75,14.52,0,14.78,15.77,30.01,31.12,45.11,46.6,2.38,2.44,4.98,4.66,5.37,5.03,18.06-16.66,35.66-32.53,52.82-48.85,10.2-9.7,9.88-10.02,20,.44,14.31,14.78,28.8,29.41,42.86,44.42,5.13,5.47,8.53,6.35,14.18.18,14.58-15.94,30.26-30.88,44.83-46.83,6.17-6.76,10.16-7.43,16.62-.42,14.64,15.9,30.08,31.06,45.06,46.66,4.07,4.24,6.93,6.5,12.86,1.46,8.99-7.66,12.42,3.27,17.46,7.16,5.37,4.15,2.71,7.93-1.79,11.73-5.57,4.7-10.5,10.2-15.47,15.56-4.26,4.6-7.38,4.6-11.95-.27-15.24-16.26-31.33-31.76-46.42-48.16-6.2-6.73-9.92-6.02-15.72.28-14.87,16.15-30.54,31.58-45.5,47.63-5.21,5.59-8.52,4.67-13.75-.16-18.41-17.03-37.33-33.52-55.88-50.05-8.54,8.14-20.6,19.06-32,30.63-17.28,17.51-17.66,17.98-6.99,39.32,39.97,79.95,116.09,134.22,210.83,127.34,76.96-5.6,134.28-44.15,172.46-110.16,27.4-47.37,33.68-98.65,25.35-152.1-1.06-6.77-2.16-13.53-1.26-21.33,1.77,2.51,3.87,4.87,5.27,7.57,40.5,78.48,25.8,185.85-34.11,251.6-16.81,18.44-35.2,34.81-57.49,46.46-5.99,3.13-7.2,6.41-3.04,12.2,6.39,8.9,12.11,18.27,19.39,29.43-5.64.63-8.87,1.31-12.09,1.31-215.9-.03-431.79-.03-647.69-.42-11.72-.02-23.62-2.52-35.11-5.23-10.34-2.44-15.45-8.62-15.41-20.88.5-135.81.31-271.63.31-407.45,0-209.45.03-418.91.05-628.36v-10.18c.69-.12,1.38-.25,2.07-.37l.03-.03ZM154.76,700.74c32.98.25,61.13-27.33,61.36-60.11.23-32.95-27.31-60.89-60.28-61.15-33.69-.27-59.74,24.76-60.09,57.75-.39,36.71,24.26,63.25,59.01,63.52h0Z"/>
  <path class="cls-1" d="M433.1,257.64c11.6,17.01,26.26,32.07,24.26,55.91-2.26,26.96-2.52,53.98,11.5,79.04,5.46,9.77.91,22.86-8.14,29.69-8.5,6.42-20.27,6.23-29.26-.52-4.94-3.71-7.61-7.66-3.65-14.06,5.26-8.49,3.59-16.81-.85-25.6-4.02-7.94-7.68-16.69-8.63-25.39-3.07-28.01-3.06-56.12,3.93-83.7,1.37-5.4,4.52-10.36,6.85-15.53,1.33.06,2.64.13,3.97.19l.02-.02Z"/>
  <path class="cls-1" d="M627.98,368.4c-16.88,20.25-36.16,24.11-61.48,12.75,32.78-21.21,38.95-55.32,50.84-88.43,13.14,21.84,29.75,38.23,58.15,44.29-6.7,3.74-10.41,6.87-14.65,7.96-8.47,2.17-9.2,6.82-6.64,13.93,1.87,5.2,3.48,10.61,4.24,16.06.54,3.95.2,11.38-.98,11.63-6.36,1.37-13.82,4.97-19.08-2.6-3.15-4.53-6.14-9.18-10.39-15.57Z"/>
  <path class="cls-1" d="M455.92,212.57c12.93-6.02,24.4-4.26,32.53,2.26,11.98,9.59,23.24,20.97,31.85,33.57,13.47,19.71,25,40.81,36.05,61.99,2.08,3.98-1.14,11.5-3.68,16.5-.73,1.45-8.48,1.21-11.58-.63-19.6-11.63-31.89-29.66-41.95-49.4-11.48-22.55-22.51-45.38-43.21-64.28h0Z"/>
  <path class="cls-1" d="M951.44,583.44c-11.43-6.02-22.87-12.05-36.77-19.37,12.52-7.82,22.83-14.25,35.51-22.18,1.59,14.93,2.92,27.27,4.24,39.61-.99.64-1.98,1.29-2.97,1.93h0Z"/>
  <path class="cls-1" d="M783.79,459.65c-13.44,7.14-24.18,12.85-36.81,19.55v-41.75c12.64,7.62,23.37,14.1,36.81,22.2Z"/>
  <path class="cls-1" d="M1213.01,757.78c8.58-9.41,16.39-17.99,25.48-27.96,3.12,12.97,6.02,25.05,9.77,40.67-14.49-5.23-25.96-9.36-35.25-12.71Z"/>
  <path class="cls-1" d="M1821.17,438.35c4.77,3.68,14.14,9.38,13.54,10.71-3.01,6.71-8.6,12.28-13.28,18.25-1.08-.49-2.16-.97-3.23-1.46v-26c.99-.49,1.98-1,2.97-1.49h0Z"/>
  <path class="cls-2" d="M800.08,92.85c-21.39,11.47-39.86,21.38-61.31,32.88-1.2-24.69-2.25-46.36-3.3-68.03l3.05-1.59c19.69,11.75,39.37,23.49,61.56,36.73h0ZM782.16,92.36c-12.2-7.43-22.55-13.73-34.54-21.02v40.82c12.06-6.91,22.12-12.68,34.54-19.79h0Z"/>
  <path class="cls-2" d="M838,340.45c16.9-16.28,31.84-30.71,49.05-47.3,5.6,23.48,10.72,44.96,16.75,70.24-23.23-8.1-43.65-15.22-65.81-22.94h0ZM892.13,350.56c-3.57-15.05-6.37-26.84-9.24-38.87-9.18,8.94-17.33,16.89-26.68,25.98,11.12,3.99,21.99,7.89,35.91,12.89h0Z"/>
  <path class="cls-2" d="M956.82,161.19c2.48,24.31,4.7,45.89,7.25,70.8-23.01-11.72-42.93-21.87-66.25-33.74,20.47-12.86,38.51-24.19,59-37.06h0ZM917.14,195.44c.06,1.18.12,2.37.18,3.54,11.48,5.76,22.95,11.51,37.13,18.63-1.4-15.39-2.51-27.71-3.89-42.81-12.79,7.9-23.1,14.27-33.42,20.64h0Z"/>
  <path class="cls-2" d="M1455.26,125.19c-1.22-24.06-2.29-45.22-3.55-70.35,22.22,13.25,41.78,24.92,63.65,37.96-20.82,11.22-39.16,21.1-60.09,32.38h0ZM1499.61,92.41c-13.07-7.88-23.72-14.3-36.07-21.77v41.97c12.47-6.99,22.86-12.81,36.07-20.21h0Z"/>
  <path class="cls-2" d="M987.65,269.65c-.3,4.18-.35,8.38-.95,12.51-1.57,10.62-3.66,21.18-5.02,31.82-1.02,7.94-4.07,12.37-12.93,10.19-1.67-.42-3.54-.07-5.21-.5-9.9-2.58-12.32,2.05-11.76,10.93.54,8.63.23,17.32-.02,25.98-.05,1.82-.99,4.39-2.36,5.17-1.18.66-4.25-.17-5.28-1.36-10.01-11.55-19.81-23.28-29.52-35.08-.67-.81-.24-2.52-.32-3.81.85-.79,1.69-1.58,2.54-2.39,7.96,7.69,15.92,15.39,26.41,25.54,0-10.92.2-18.98-.06-27.02-.22-6.52,2.69-8.28,8.97-7.91,20.82,1.22,20.8,1.03,25.16-19.24,1.67-7.78,3.49-15.53,5.38-23.26.19-.77,1.37-1.31,2.08-1.96.96.13,1.91.26,2.87.39h0Z"/>
  <path class="cls-2" d="M537.36,198.34c20.24-12.83,37.96-24.05,58.66-37.17,2.43,23.92,4.6,45.47,7.15,70.51-22.6-11.44-42.5-21.53-65.81-33.34h0ZM593.75,217.87c-1.45-15.78-2.59-28.34-3.99-43.64-13.56,8.88-23.7,15.52-35.88,23.5,14.16,7.16,25.48,12.87,39.88,20.14h0Z"/>
  <path class="cls-2" d="M1154.72,459.81c-21.1,11.41-39.05,21.12-60.4,32.67-1.09-24.06-2.08-45.69-3.22-70.69,22.1,13.2,41.46,24.78,63.62,38.02ZM1136.85,461.07c-.09-1.15-.19-2.3-.28-3.43-11.04-6.29-22.07-12.57-34.76-19.8v41.41c12.86-6.67,23.95-12.42,35.04-18.17Z"/>
  <path class="cls-2" d="M1870.73,92.83c-21.18,11.4-39.13,21.06-59.71,32.14-1.28-23.9-2.42-45.06-3.73-69.72,22.03,13.05,41.44,24.54,63.44,37.58ZM1855.48,92.52c-13.37-7.93-24.22-14.37-36.68-21.77v41.68c12.67-6.88,23.36-12.69,36.68-19.93h0Z"/>
  <path class="cls-2" d="M1154.57,92.77c-20.68,11.24-38.76,21.07-59.95,32.59-1.27-23.92-2.39-45.27-3.71-70.32,22.12,13.12,41.65,24.69,63.66,37.73ZM1102.6,112.25c12.57-6.85,23.22-12.65,36.48-19.87-13.31-7.74-24.21-14.07-36.48-21.19v41.06Z"/>
  <path class="cls-2" d="M1312.24,161.37c2.31,23.72,4.38,45.1,6.79,69.96-22.56-11.42-42.42-21.47-65.3-33.05,20.18-12.74,38.12-24.05,58.5-36.91h0ZM1309.87,218.12c-1.09-14.19-1.74-25.43-3.05-36.59-.18-1.5-4.6-4.19-5.49-3.67-9.97,5.75-19.63,12.03-31.77,19.68,14.42,7.36,25.92,13.23,40.32,20.59h0Z"/>
  <path class="cls-2" d="M1238.34,300.97c5.67,24.5,10.52,45.45,16.1,69.5-22.95-8.03-42.97-15.03-65.48-22.9,16.91-15.96,31.86-30.06,49.38-46.6ZM1204.07,344.67c14.4,4.97,25.67,8.85,40.04,13.81-3.6-15.23-6.44-27.25-9.95-42.11-10.72,10.09-19.33,18.18-30.09,28.3h0Z"/>
  <path class="cls-2" d="M1199.61,633.7c-19.1,10.31-35.48,19.41-52.2,27.84-1.91.96-8.23-1.68-8.25-2.76-.51-19.83-.38-39.67-.38-61.32,19.65,11.7,39.02,23.25,60.82,36.23h0ZM1146.75,653.48c12.8-6.97,23.64-12.86,37.22-20.25-13.81-8.06-24.54-14.32-37.22-21.73v41.97h0Z"/>
  <path class="cls-2" d="M1253.73,565.05c20.61-12.87,38.22-23.86,58.33-36.42,2.38,23.36,4.54,44.64,7.09,69.61-22.74-11.53-42.54-21.59-65.41-33.19h-.01ZM1269.37,564.37c14.64,7.52,26.58,13.65,41.13,21.13-1.7-16.09-3.04-28.77-4.68-44.29-13.09,8.31-23.55,14.97-36.46,23.15h0Z"/>
  <path class="cls-2" d="M1676.92,229.89c-19.63-10.04-39.26-20.07-61.85-31.63,19.69-12.59,37.19-23.79,57.44-36.73,2.54,23.51,4.85,44.79,7.15,66.07-.91.76-1.83,1.53-2.75,2.3h0ZM1666.84,174.58c-12.12,7.35-21.88,13.09-31.3,19.32-.97.64-.73,5.74.32,6.31,10.82,5.89,21.93,11.27,35.37,18.02-1.54-15.42-2.8-27.87-4.39-43.64h0Z"/>
  <path class="cls-2" d="M1272.69,326.53c7.6,7.52,15.19,15.05,22.8,22.57,1.05-.21,2.11-.43,3.16-.63,0-7.71.21-15.42-.06-23.12-.24-6.85,2.51-8.92,9.47-8.43,20.01,1.41,20.04,1.14,24.62-18.74,1.98-8.58,3.85-17.17,5.77-25.77,1.11.05,2.23.1,3.34.14.33,2.26,1.2,4.58.88,6.75-1.9,13.04-4.3,26-6.06,39.06-1.04,7.74-5.17,9.87-12.32,8.47-17.57-3.42-19.11-4.3-18.19,16.8.38,8.52.06,17.08.06,25.62-1.09.49-2.19.96-3.28,1.45-11.31-13.36-22.62-26.73-33.93-40.08,1.25-1.36,2.5-2.71,3.75-4.07h0Z"/>
  <path class="cls-2" d="M1663.26,367.39c-11.31-13.28-22.62-26.58-33.93-39.86,1.33-1.3,2.65-2.59,3.99-3.88,7.86,7.78,15.71,15.55,23.57,23.33.99-.21,1.97-.42,2.96-.63,0-7.62.36-15.27-.1-22.87-.48-8.04,2.82-10.12,10.6-9.27,18.37,1.98,18.42,1.68,22.66-15.93,2.18-9.06,4.27-18.14,6.48-27.19.12-.49,1.07-.76,2.29-1.56.77,1.39,2.29,2.81,2.11,3.98-2.33,15.05-4.63,30.11-7.68,45.03-.46,2.22-4.44,4.73-7.16,5.26-3.62.69-7.62-.28-11.42-.83-7.18-1.04-10.24,1.58-9.96,9.04.42,11.23.11,22.48.11,33.72-1.5.56-3.01,1.12-4.5,1.68h0Z"/>
  <path class="cls-2" d="M1603,293.98c4.45,18.72,8.73,34.68,11.9,50.87,1.61,8.25-6.26,13.79-14.51,11.14-8.96-2.88-17.94-5.72-26.75-9-9.99-3.72-12.02-14.84-4.25-22.02,10.58-9.8,21.2-19.55,33.61-30.98h0ZM1599.14,308.36c-9.79,9.25-17.49,16.12-24.53,23.61-1.01,1.07.42,6.8,1.95,7.43,9.53,3.92,19.42,7,32.05,11.34-3.28-14.67-6-26.84-9.47-42.39Z"/>
  <path class="cls-2" d="M731.81,369.45c-8.08,3.18-13.81,4.84-18.95,7.59-9.19,4.92-13.5,1.69-15.12-7.61-.5-2.91-1.32-5.76-1.98-8.57,1.65-.46,2.77-.93,2.87-.76,8.07,12.67,17.64,7.3,27.37,2.48,3.88-1.92,8.14-3.1,13.62-5.13.97,11.27,1.81,21.06,2.94,34.14,10.66-8.58,19.33-15.56,29.24-23.53.27,9.18-13.38,23.53-36.15,40.14-.81-7.04-1.56-12.83-2.14-18.64-.6-6.03-1.04-12.07-1.71-20.11h0Z"/>
  <path class="cls-2" d="M1069.92,275.21c-2.08-6.82-3.95-12.96-6.25-20.49,7.02,3.52,11.76,7.75,16.52,7.79,5.13.04,10.28-3.88,15.45-6.01,3.41-1.41,6.89-2.7,11.82-4.62,1.09,11.56,2.04,21.62,3.23,34.28,10.52-8.49,19.14-15.44,28.54-23.02,1.01,8.21-20.65,30.5-35.54,38.19-1.3-12.2-2.54-23.96-3.96-37.31-10.32,3.88-19.27,7.24-29.81,11.2h0Z"/>
  <path class="cls-2" d="M897.92,77.74c-3.37-2.36-7.5-4.11-9.96-7.18-15.6-19.53-34.09-23.79-56.27-11.63-2.42,1.33-5.25,2.63-7.87,2.59-2.11-.03-6.1-2.27-6.01-3.23,1.39-15.08,3.29-30.1,5.17-45.13.04-.35,1.16-.56,3.33-1.55,4.52,13.04-1.71,26.2.85,40.61,8.53-2.66,16.58-4.55,24.08-7.69,9.13-3.81,16.31-3.29,23.34,4.46,6.04,6.65,13.54,11.99,20.2,18.11,2.32,2.14,4.04,4.9,6.04,7.38-.97,1.08-1.94,2.16-2.91,3.25h0Z"/>
  <path class="cls-2" d="M911.99,455.38c-4.89-3.95-10.53-7.28-14.53-11.98-12.62-14.85-26.84-19.2-44.79-9.56-5.37,2.88-11.74,3.93-17.53,5.77-4.2-9.21-.85-43.83,7.44-50.02-.63,12.84-1.26,25.68-1.98,40.21,10.89-3.39,20.56-5.91,29.84-9.44,6.05-2.31,10.37-1.74,15.11,2.78,7.55,7.22,15.84,13.66,23.58,20.7,2.49,2.27,4.24,5.36,6.32,8.07-1.16,1.16-2.31,2.32-3.46,3.47h0Z"/>
  <path class="cls-2" d="M966.89,469.62c6.68,10.61,13.35,21.23,20.96,33.31,6.62-7.9,12.42-14.82,19.49-23.25,7.81,18.11,12.58,35.05,15.43,52.73-11.29-8.4-10.46-22.9-18.72-34.39-5.42,6.77-10.25,12.79-16.79,20.95-9.6-16.32-19-30.65-25.67-46.39,1.76-.98,3.53-1.96,5.3-2.94h0Z"/>
  <path class="cls-2" d="M1471.1,286.52c10.97-8.78,19.63-15.71,28.29-22.64.99,1.1,1.99,2.2,2.98,3.29-10.05,13.25-24.07,22.73-35.53,34.65-1-.24-2-.49-2.99-.72-.48-7.96-.94-15.92-1.43-23.87-.83-13.73-1.33-14.06-13.74-9.1-5.43,2.18-10.87,4.37-17.92,7.19-2.29-7.08-4.3-13.26-6.35-19.65,2.4-.51,3.51-.91,3.6-.75,7.16,12.85,16.25,6.54,25.34,2.77,15.19-6.3,15.25-6.16,16.39,10.25.36,5.11.74,10.22,1.36,18.58h0Z"/>
  <path class="cls-2" d="M1858.16,268.68c-12.1,11.03-24.19,22.05-38.39,34.99-1.28-14.75-2.3-26.56-3.46-40.15-10.78,4.19-19.43,7.54-29.83,11.58-2.13-6.57-4.18-12.93-6.24-19.29.69-1.19,1.38-2.38,2.07-3.56,8.73,18.45,19.09,8.23,29.06,4.58,3.49-1.28,6.93-2.75,12.02-4.8,1.17,11.44,2.19,21.48,3.44,33.73,10.55-7.99,19.57-14.81,28.59-21.64.91,1.51,1.83,3.03,2.75,4.54h0Z"/>
  <path class="cls-2" d="M709.47,219.22c3.35-18.56,1.27-35.4,6.73-51.08,1.65.16,3.31.33,4.96.49-.91,12.41-1.82,24.84-2.92,39.74,10.54-3.22,19.92-5.26,28.57-8.95,8.19-3.49,13.67-1.46,19.55,4.35,7.42,7.33,15.76,13.77,23.36,20.95,1.57,1.48,1.67,4.51,2.45,6.83-2.42-.45-5.47-.12-7.15-1.47-7.32-5.92-14.51-12.05-21.21-18.64-5.31-5.22-10.24-6.85-17.68-3.9-10.94,4.34-22.45,7.25-36.65,11.68h0Z"/>
  <path class="cls-2" d="M180.6,78.04c-8.83-7.6-17.99-14.89-26.39-22.94-5.32-5.09-10.32-5.73-17.02-3.32-11.02,3.98-22.31,7.21-36.11,11.58,1.63-18.68,3.06-34.94,4.48-51.2,1.65.07,3.3.14,4.95.2,4.08,12.49-2.29,25.68.26,40.11,9.1-2.91,17.4-5.1,25.32-8.24,8.41-3.33,15.13-2.66,21.7,4.18,6.49,6.75,14.19,12.34,21.04,18.78,2.32,2.17,3.67,5.35,5.46,8.07-1.23.92-2.46,1.85-3.69,2.77h0Z"/>
  <path class="cls-2" d="M871.14,172.83c5.91-6.78,11.66-13.71,17.86-20.22,1.52-1.6,4.51-1.84,6.83-2.71-.28,2.64.42,6.02-.98,7.8-7.46,9.5-15.44,18.61-23.94,28.68-8.08-7.28-15.19-13.69-23.61-21.26-9,12.01-17.5,23.35-26.01,34.69-1.09-.45-2.19-.88-3.28-1.33.21-2.2-.33-4.87.73-6.52,7.48-11.69,15.43-23.08,22.94-34.76,3.36-5.22,6.77-4.34,9.95-.52,5.11,6.15,9.76,12.66,14.6,19.02,1.64-.95,3.28-1.91,4.92-2.86h0Z"/>
  <path class="cls-2" d="M478.51,59.99c11.87-3.69,21.17-6.32,30.26-9.5,6.73-2.37,11.85-1.17,16.98,3.91,7.39,7.32,15.56,13.88,23.23,20.94,2.03,1.86,3.46,4.36,5.17,6.56l-2.02,2.45c-2.69-1.37-5.73-2.32-8-4.19-6.72-5.51-13.59-10.97-19.53-17.24-6.06-6.4-12.24-6.37-19.83-3.61-10.36,3.78-20.98,6.88-34.16,11.15,1.15-13.42,1.77-24.9,3.27-36.28.64-4.88,3.09-9.53,4.71-14.29.69,5.01,2,10.02,1.93,15.02-.1,7.47-1.15,14.94-2.04,25.09h.03Z"/>
  <path class="cls-2" d="M1008.1,111.8c6.01,19.47,11.18,36.19,16.34,52.91-1.76.64-3.52,1.3-5.29,1.94-4.5-11.56-9.01-23.13-14.34-36.82-6.23,7.7-11.08,13.7-15.89,19.66-8.91-6-25.92-38.21-23.49-48.09,8.01,12.28,14.98,22.96,22.74,34.85,6.49-7.96,12.26-15.04,19.94-24.44h0Z"/>
  <path class="cls-2" d="M643.9,129.69c-6.19,7.86-10.84,13.77-15.45,19.63-8.59-5.4-25.82-36.5-22.69-45.71,3.41,5.1,6.79,10.21,10.21,15.28,3.6,5.36,7.23,10.7,11.64,17.22,6.67-8.23,12.34-15.22,18.42-22.73,10.15,18.13,17.59,46.2,13.11,54.65-5.18-13.04-9.76-24.57-15.23-38.36h0Z"/>
  <path class="cls-2" d="M991.96,225.97c-2.74-16.27,1.49-45.63,8.91-51.59-.96,14.62-1.79,27.31-2.75,41.95,11.05-3.4,20.78-5.8,30.02-9.43,6.96-2.74,11.59-1.33,16.73,3.74,7.91,7.82,16.71,14.75,24.89,22.31,1.45,1.34,1.7,3.93,2.5,5.95-2.38-.34-5.4.13-7-1.16-7.58-6.13-15.02-12.48-22.02-19.23-5.1-4.92-9.86-6.27-16.86-3.54-10.93,4.25-22.36,7.24-34.42,11.02h0Z"/>
  <path class="cls-2" d="M1186.84,69.89c1.51-16.86,2.76-31.58,4.29-46.27.13-1.21,2.07-2.24,3.18-3.35,1.16,1.76,3.38,3.56,3.3,5.28-.3,6.91-1.44,13.78-1.97,20.68-.31,4-.06,8.05-.06,13.78,10.39-3.27,19.73-5.82,28.76-9.17,6.67-2.47,11.77-1.79,17.03,3.31,7.47,7.27,15.71,13.74,23.47,20.72,2.15,1.93,3.77,4.45,5.64,6.7-.51.77-1.02,1.55-1.53,2.33-2.23-.8-4.75-1.18-6.61-2.49-3.69-2.59-7.72-5.19-10.37-8.69-12.68-16.8-27.84-17.9-45.62-8.66-5.29,2.75-11.61,3.56-19.47,5.85h0Z"/>
  <path class="cls-2" d="M1573.58,298.09c-3.95,1.27-7.81,2.93-11.85,3.72-20.93,4.1-34.91,16.2-41.93,36.29-1.57,4.51-3.4,8.94-6.33,16.61-13.02-12.89-24.42-24.17-35.82-35.47,1.33-1.42,2.64-2.83,3.97-4.25,9.27,8.61,18.54,17.22,29.44,27.34,3.63-9.99,7.34-18.12,9.5-26.66,2.56-10.14,8.37-15.04,18.72-16.22,7.95-.91,15.71-3.29,23.61-4.77,3.17-.59,6.47-.51,9.71-.74.33,1.39.65,2.76.98,4.15h0Z"/>
  <path class="cls-2" d="M1322.11,103.48c6.86,10.56,13.71,21.11,21.59,33.25,6.65-8.48,12.27-15.64,19.25-24.55,6.48,18.72,12.97,35.13,16.19,52.46l-4.32,1.59c-4.58-11.46-9.17-22.93-14.6-36.55-6.16,7.69-11.12,13.91-17.48,21.86-9.01-16.35-18.86-30.04-25.17-45.58,1.51-.83,3.02-1.66,4.53-2.49h0Z"/>
  <path class="cls-2" d="M1612.71,77.64c-8.04-7.01-16.43-13.65-23.98-21.14-6.54-6.49-12.92-7.9-21.62-4.35-9.88,4.04-20.35,6.67-33.3,10.79,1.62-18.06,3.05-34.03,4.48-50l4.23.13v39.57c9.83-2.95,18.84-5.04,27.32-8.39,7.47-2.96,13.16-2.18,18.95,3.43,7.26,7.03,15.23,13.3,22.63,20.19,2.07,1.92,3.17,4.86,4.71,7.32-1.14.81-2.28,1.62-3.41,2.44h0Z"/>
  <path class="cls-2" d="M1735.33,533.02c-4.47-11.46-8.95-22.93-14.22-36.46-6.24,7.6-11.13,13.57-17.69,21.57-9.03-15.62-17.34-30-25.65-44.39,1.68-1.07,3.36-2.13,5.04-3.2,6.81,10.51,13.63,21.02,21.47,33.11,6.54-7.97,12.29-14.97,19.86-24.17,6.06,18.73,11.34,35.08,16.63,51.43-1.81.7-3.62,1.4-5.42,2.1h0Z"/>
  <path class="cls-2" d="M1374.86,532.72c-4.64-11.29-9.27-22.6-14.71-35.83-6.15,7.52-11.06,13.51-17.47,21.35-9.07-15.74-17.39-30.19-25.72-44.64,1.55-.97,3.11-1.95,4.66-2.92,7.11,10.46,14.21,20.92,22.05,32.47,6.66-7.89,12.52-14.83,20.03-23.72,5.87,18.79,10.97,35.12,16.08,51.45-1.64.61-3.29,1.24-4.93,1.85h0Z"/>
  <path class="cls-2" d="M1706.19,225.7c1.79-17.88,3.4-33.82,5-49.77,1.54.1,3.09.2,4.62.29,2.9,12.52-2.29,25.2-1.33,40.01,10-2.98,19.69-5.04,28.66-8.8,7.78-3.26,12.97-1.52,18.57,3.97,6.94,6.8,14.66,12.82,21.88,19.35,2.29,2.07,4.04,4.71,6.04,7.1-.73.87-1.46,1.75-2.2,2.62-2.58-1.47-5.94-2.37-7.64-4.53-17.47-22.19-38.31-26.81-63.2-12.77-2.27,1.28-5.24,1.32-10.4,2.51v.02Z"/>
  <path class="cls-2" d="M1426.37,217.97c1.8-18.27,3.36-33.94,4.9-49.62l4.26.27c4.02,12.39-2.32,25.05-.7,39.82,9.63-2.87,18.95-4.85,27.6-8.44,8.42-3.49,14.28-1.92,20.43,4.46,6.48,6.74,14.16,12.36,21.06,18.73,2.18,2.01,3.58,4.85,5.34,7.31-.9.9-1.79,1.8-2.69,2.71-3.8-2.92-8.45-5.2-11.25-8.86-14.85-19.49-32.72-21.38-53.58-10.5-3.8,1.98-8.47,2.34-15.35,4.13h0Z"/>
  <path class="cls-2" d="M1065.5,415.36c-3.26-11-6.71-21.94-9.44-33.06-.25-1,3.98-4.28,6.32-4.49,6.58-.61,13.3-.66,19.9-.07,9.84.88,14.12-2.45,13.22-12.77-.79-9.11-.17-18.33-.17-27.5,1.07-.17,2.13-.34,3.2-.5.85,2.2,2.25,4.35,2.46,6.6,1.07,11.37,1.71,22.8,2.75,34.18.6,6.61-2.75,8.57-8.71,8.45-6.99-.14-13.99.12-20.97-.02-6.77-.14-8.54,2.85-7.04,9.15,1.48,6.2,2.26,12.56,3.35,18.86-1.61.4-3.24.79-4.85,1.18h-.02Z"/>
  <path class="cls-2" d="M1195.01,384.99c-.82,12.64-1.65,25.29-2.61,40,10.37-3.3,19.32-5.67,27.89-9,7.8-3.03,13.91-2.07,19.9,3.92,6.37,6.38,13.56,11.97,20.2,18.1,2.62,2.42,4.73,5.37,7.07,8.09-.61.85-1.24,1.69-1.85,2.54-2.65-1.31-5.69-2.17-7.9-4-6.96-5.78-13.89-11.64-20.28-18.01-5.19-5.17-10.36-5.77-17.06-3.36-10.99,3.98-22.23,7.26-35.95,11.66,1.66-18.46,3.1-34.41,4.53-50.35,2.02.14,4.04.27,6.06.41h0Z"/>
  <path class="cls-2" d="M1160.71,281.75c2.61,12.64,5.62,25.22,7.39,37.97.26,1.83-5.17,5.65-8.51,6.57-20.01,5.5-19.99,5.29-14.4,25.74,1.94,7.1,3.33,14.33,4.97,21.51-1.52.45-3.05.88-4.58,1.33-2.86-8.23-5.91-16.39-8.52-24.7-2.47-7.84-7.74-16.91-5.55-23.36,1.45-4.25,13.85-5.12,21.49-6.92,6.28-1.48,7.73-4.75,6.11-10.6-1.76-6.34-3.26-12.78-4.22-19.26-.39-2.58.99-5.42,1.56-8.15,1.43-.04,2.86-.09,4.29-.13h-.02Z"/>
  <path class="cls-2" d="M1218.89,182.78c6.92-7.88,12.86-15.01,19.26-21.69,1.43-1.48,4.51-1.39,6.84-2.02-.38,2.14-.04,4.85-1.24,6.33-7.59,9.35-15.52,18.43-24.08,28.47-8.21-7.38-15.35-13.82-23.61-21.25-8.93,11.91-17.44,23.26-25.95,34.63-1.07-.54-2.14-1.09-3.22-1.64.74-2.5.96-5.35,2.33-7.45,6.78-10.49,14.14-20.62,20.75-31.21,3.91-6.27,7.31-4.81,11.49-.71,5.4,5.29,10.96,10.42,17.42,16.55h0Z"/>
  <path class="cls-2" d="M154.46,106.13c8.42,4.37,16.9,8.64,25.27,13.11,12.15,6.47,12.18,6.54,16.56-6.69,1.96-5.92,2.94-12.29,5.76-17.75,1.32-2.55,6.21-5.14,9.03-4.72,6.89,1.01,13.52,3.76,20.25,5.81-.18,1.29-.35,2.58-.52,3.87-3.4,0-6.93.6-10.16-.12-9.14-2.04-13.45,1.57-15.35,10.37-1.6,7.4-4.12,14.7-7.14,21.66-.88,2.03-5.92,4.51-7.32,3.73-12.46-6.97-24.59-14.56-36.67-22.17-1.1-.69-1.28-2.83-1.88-4.3.72-.93,1.45-1.87,2.17-2.8h0Z"/>
  <path class="cls-2" d="M908.08,125.4c3.5-10.83,6.82-20.23,9.53-29.8,1.72-6.11,4.75-7.75,10.76-5.53,6.26,2.31,12.75,3.97,19.13,5.92-.19,1.16-.37,2.32-.55,3.46-4.5,0-9.12.62-13.48-.15-6.15-1.09-9.06,1.26-10.7,6.82-2.55,8.63-5.18,17.27-8.45,25.65-.78,1.99-5.31,4.68-6.37,4.08-13-7.4-25.72-15.3-38.35-23.32-.89-.56-.57-2.99-1.3-7.69,14.06,7.27,26.06,13.47,39.8,20.57h-.02Z"/>
  <path class="cls-2" d="M1735.25,166.26c-4.46-11.53-8.93-23.06-14.18-36.63-6.5,7.84-11.48,13.83-17.93,21.59-8.86-15.78-16.99-30.24-25.1-44.7,1.57-.97,3.16-1.93,4.73-2.9,6.76,10.37,13.52,20.76,21.39,32.83,6.47-7.7,12.29-14.61,20.09-23.89,5.89,18.72,11.09,35.25,16.28,51.78-1.76.64-3.52,1.28-5.29,1.92h0Z"/>
  <path class="cls-2" d="M1435.45,366.13c-9.65,12.75-18.01,23.8-26.36,34.83-1.36-.95-2.71-1.89-4.07-2.84,8.02-14.95,18.18-28.59,28.94-43.34,5.34,4.79,9.8,8.54,13.97,12.6,10.68,10.38,10.6,10.4,21.65-.2,5.01-4.81,10.13-9.52,15.31-14.15.56-.49,1.97-.07,4.94-.07-1.38,2.86-1.95,5.31-3.43,6.91-7.33,7.91-15.06,15.46-22.34,23.41-4.22,4.6-7.38,3.6-11.23-.43-5.22-5.45-10.86-10.51-17.37-16.75h0Z"/>
  <path class="cls-2" d="M1166.45,563.73c9.46-14.05,18.92-28.08,29.17-43.31,6.93,6.4,13,11.45,18.36,17.13,5.08,5.37,8.82,4.89,13.7-.36,6.47-6.95,13.69-13.22,20.59-19.79,1,.69,2.01,1.39,3.01,2.09-.97,2.33-1.4,5.15-3.01,6.88-7.09,7.63-14.74,14.76-21.75,22.46-4.48,4.92-7.84,4.16-12.05-.22-5.2-5.39-10.88-10.34-17.27-16.34-9.28,12.48-17.68,23.79-26.08,35.08-1.56-1.21-3.12-2.43-4.68-3.63h0Z"/>
  <path class="cls-2" d="M1040.29,343.17c-2.97,1.9-5.72,4.36-8.95,5.57-7.97,3.02-9.39,8.07-6.77,15.65,2.49,7.21,4.64,14.63,5.83,22.13.42,2.66-2.24,8.25-3.87,8.39-14.26,1.32-28.62,1.74-42.95,2.25-1.1.04-2.25-1.35-3.7-5.02,5.72-.96,11.41-2.18,17.16-2.82,16.78-1.9,23.04-11.06,18.78-27.49-.52-2.02-.95-4.08-1.7-6.02-2.15-5.46,0-8.57,5.28-10.29,6.4-2.08,12.75-4.31,19.12-6.46.59,1.37,1.19,2.73,1.78,4.1h0Z"/>
  <path class="cls-2" d="M1816.63,337.72c.65,7.53,1.36,15.08,1.94,22.62,1.31,16.84-6.48,25.38-23.35,25.63-13.66.2-13.54.19-11.07,13.32.96,5.09,1.17,10.3,1.72,15.46-1.42.28-2.84.56-4.26.84-3.11-11.02-6.41-21.98-9-33.12-.24-1.02,4.06-4.3,6.4-4.46,7.64-.56,15.36-.42,23.04-.09,7.23.31,10.07-2.66,9.8-9.83-.38-10.04-.1-20.1-.1-30.16,1.62-.07,3.25-.13,4.88-.2h-.02Z"/>
  <path class="cls-2" d="M1874.94,282.09c1.21,2.22,2.86,4.31,3.53,6.66,1.14,3.98,1.62,8.14,2.44,12.21,4.45,22.29,4.51,22.5-17.27,27.43-6.99,1.58-8.35,4.81-6.29,11.09,2.7,8.23,5.05,16.57,7.3,24.92.79,2.96.83,6.13,1.22,9.2-1.08.34-2.15.66-3.23,1-1.51-3.12-3.36-6.13-4.47-9.38-3.4-9.82-6.04-19.91-9.87-29.55-3.21-8.04-1.97-11.64,7.29-13.39,20.93-3.95,20.8-4.37,16.99-25.78-.78-4.39-1.02-8.89-1.51-13.33,1.3-.37,2.59-.73,3.89-1.1v.02Z"/>
  <path class="cls-2" d="M1586.93,185.75c-8.3-7.57-15.16-13.85-23.43-21.39-8.92,11.87-17.36,23.12-25.82,34.38-1.09-.58-2.18-1.17-3.28-1.75.61-2.23.73-4.77,1.93-6.62,6.82-10.45,14.06-20.65,20.82-31.13,3.56-5.52,6.59-5.82,11.46-1.26,5.67,5.33,12.66,14.12,18.13,13.48,6.04-.7,11.03-10.38,16.45-16.17,1.19-1.27,2.05-3.08,3.48-3.8,1.55-.77,3.6-.54,5.44-.76-.04,1.81.67,4.23-.24,5.36-7.83,9.63-15.96,19.03-24.97,29.67h.01Z"/>
  <path class="cls-2" d="M1335.68,391.53c10.13-1.12,20.23-2.82,30.39-3.18,9.81-.35,12.35-4.1,9.01-13.01-1.7-4.51-1.82-9.68-3.84-14.01-4.87-10.45-.58-15.4,9.47-17.85,4.5-1.1,8.9-2.65,13.34-4,.56,1.05,1.13,2.1,1.69,3.15-3.66,2.43-7.08,5.46-11.06,7.15-6.13,2.58-7.44,6.19-5.42,12.29,2.6,7.89,4.36,16.06,6.64,24.05,1.32,4.62,1.4,8.74-4.68,9.06-14.3.75-28.63,1.12-42.94,1.52-.77.02-1.58-1.11-2.38-1.7-.08-1.16-.15-2.32-.23-3.47h0Z"/>
  <path class="cls-2" d="M1694.29,392.93c7.87-1.39,12.99-2.44,18.16-3.16,5.2-.73,10.44-1.6,15.66-1.59,9.09,0,10.73-4.09,8.14-11.91-2.18-6.58-3.34-13.48-5.46-20.08-1.7-5.27-.93-8.51,4.87-10.27,6.4-1.95,12.6-4.52,18.9-6.82.65,1.28,1.32,2.55,1.97,3.84-3.67,2.37-7.08,5.43-11.09,6.92-6.01,2.23-7.1,5.94-5.6,11.4,2.3,8.37,4.99,16.68,6.48,25.19.46,2.58-2.27,8.15-3.88,8.29-14.26,1.2-28.61,1.49-42.94,1.94-.8.02-1.63-1.11-5.22-3.73h.01Z"/>
  <path class="cls-2" d="M1586.85,106.41c12.06,6.26,24.12,12.51,37.46,19.42,2.91-8.76,5.44-16.17,7.84-23.63,4.44-13.79,4.43-13.89,18.8-10.18,4.16,1.08,8.14,2.84,12.2,4.29-.18.99-.37,1.98-.54,2.97-3.8,0-7.71.59-11.37-.12-7.79-1.53-11.48,1.37-13.37,8.9-2.41,9.58-5.89,18.91-9.55,30.37-15.97-9.89-30.21-18.72-44.45-27.54,1-1.49,2-2.99,3-4.48h0Z"/>
  <path class="cls-2" d="M856.9,273.04c3.89-15.46,7.77-30.92,12.2-48.51,16.47,10.2,30.97,19.17,45.47,28.15-.96,1.74-1.92,3.48-2.89,5.22-11.86-5.98-23.73-11.95-35.86-18.06-7.96,11.08-6.36,25.75-14.36,35.66-1.51-.82-3.04-1.64-4.55-2.45h0Z"/>
  <path class="cls-2" d="M497.63,137.47c1.54-1.99,2.81-4.3,4.67-5.91,3.66-3.18,7.54-6.16,11.55-8.9,7.91-5.4,16.48-15.56,23.84-14.8,13.69,1.42,26.74,9.16,39.92,14.58,1.16.48,1.34,3.29,1.98,5.02-2.21.33-4.73,1.5-6.57.84-9.49-3.42-19.03-6.87-28.12-11.22-6-2.87-10.39-1.98-15.2,2.01-6.95,5.76-14.16,11.21-21.41,16.6-2.49,1.86-5.39,3.19-8.12,4.75-.85-.99-1.7-1.97-2.55-2.96l.02-.02Z"/>
  <path class="cls-2" d="M1072.12,575.43c-5.02,4.17-7.51,6.43-10.21,8.43-11.46,8.49-21.83,7.45-31.09-3.12-6.4-7.3-13.01-14.43-19.05-22-1.81-2.26-2.06-5.74-3.02-8.67,2.84,1.13,6.44,1.52,8.38,3.51,7.48,7.71,14.61,15.77,21.51,24,4.85,5.79,9.37,7.75,15.41,1.57,2.38-2.44,5.37-4.67,8.52-5.83,1.86-.68,4.58.9,9.55,2.1h0Z"/>
  <path class="cls-2" d="M1224.77,225.18c16.53,10.16,30.68,18.84,44.82,27.53-.7,1.26-1.42,2.52-2.12,3.78-14.01-1.65-23.52-14.18-37.79-17.42-3.96,12.29-7.82,24.3-11.69,36.31-1.78-.54-3.56-1.08-5.35-1.62,3.87-15.49,7.73-30.97,12.13-48.57h0Z"/>
  <path class="cls-2" d="M1065.4,467.31c-.98,1.24-1.95,3.17-2.51,3.06-2.18-.43-4.82-.95-6.22-2.44-7.37-7.88-14.97-15.67-21.43-24.27-5.72-7.6-11.02-8.65-17.95-2.19-1.51,1.42-3.21,2.94-5.11,3.57-2.29.76-4.87.63-7.32.89.92-2.59,1.09-5.98,2.88-7.65,17.87-16.68,18.72-16.56,34.55,1.64,6.4,7.35,12.82,14.7,19.17,22.09,1.33,1.54,2.44,3.27,3.93,5.29h.01Z"/>
  <path class="cls-2" d="M1454.73,480.14c-.91-17.96-1.81-35.9-2.72-53.86.91-.75,1.82-1.49,2.73-2.25,9.59,5.73,19.17,11.46,28.77,17.19-.69,1.54-1.39,3.09-2.08,4.62-5.51-2.14-11.02-4.27-17.12-6.63-6.71,12.83,3.86,28.79-6.03,40.94-1.18,0-2.37-.02-3.54-.03h0Z"/>
  <path class="cls-2" d="M1169.12,249.92c-2.66-1.48-5.62-2.61-7.93-4.52-6.96-5.76-13.96-11.53-20.35-17.88-5.24-5.2-10.56-5.6-17.09-3.21-8.49,3.11-17.14,5.78-25.8,8.44-2.39.73-4.99.75-8.67-1.05,1.36-1.5,2.44-3.8,4.13-4.39,11.83-4.15,23.77-8.03,35.73-11.76,2.21-.69,5.65-1.36,7.02-.24,12.15,9.96,23.96,20.32,35.87,30.57-.97,1.35-1.94,2.69-2.9,4.03h0Z"/>
  <path class="cls-2" d="M1573.64,273.51c3.69-15.18,7.38-30.37,11.68-48.07,16.06,9.58,30.43,18.15,44.79,26.73-.65,1.4-1.32,2.79-1.97,4.18-2.58-.71-5.37-1.02-7.71-2.21-7.46-3.81-14.85-7.81-22.09-12.03-5.6-3.27-8.91-2.55-10.58,4.17-1.84,7.4-4.2,14.69-6.55,21.96-.75,2.32-2.21,4.4-3.34,6.6-1.42-.44-2.82-.88-4.24-1.32h0Z"/>
  <path class="cls-2" d="M1214.22,137.5c1.49-1.92,2.73-4.12,4.5-5.73,31.12-28.17,31.59-28.27,71.62-10.45,2.24,1,3.64,3.83,5.43,5.82-2.81.05-5.89.87-8.38,0-8.91-3.1-17.83-6.35-26.34-10.36-6-2.83-10.45-1.87-15.26,2.15-6.96,5.81-14.21,11.27-21.45,16.74-2.33,1.75-5.01,3.06-7.52,4.56-.86-.91-1.72-1.81-2.59-2.72h0Z"/>
  <path class="cls-2" d="M1005.03,81.15c1.38-8.33,17.26-23.39,22.22-22.88,1.28.14,2.82.82,3.64,1.77,11.83,13.48,23.56,27.05,35.32,40.6-.78,1.1-1.55,2.19-2.34,3.29-2.7-1.42-6.02-2.26-8-4.35-7.2-7.57-14.48-15.17-20.7-23.52-5.7-7.64-11.05-8.33-18.2-2.44-3.1,2.55-6.84,4.35-11.95,7.51h0Z"/>
  <path class="cls-2" d="M1805.85,230.06c3.4-1.63,6.88-3.14,10.19-4.94,23.72-12.91,44.47-11.47,61.71,11.37,2.65,3.51,8.12,4.94,12.28,7.33-1.39,1.76-2.76,3.52-4.15,5.29-2.19-.62-4.83-.69-6.48-1.99-4.38-3.42-8.94-6.89-12.34-11.2-11.42-14.46-24.95-14.89-40.51-7.57-5.99,2.81-12.6,4.32-18.93,6.41-.59-1.57-1.18-3.15-1.77-4.72h0Z"/>
  <path class="cls-2" d="M1720.91,449.59c.24-4.72-.49-7.75.58-8.62,6.42-5.26,13.05-10.35,20.12-14.66,1.36-.83,5.77,1.47,7.54,3.42,9.78,10.78,19.27,21.82,28.59,32.99,1.45,1.73,1.42,4.66,2.07,7.04-2.53-.97-5.8-1.26-7.48-3.03-7.62-8.05-15.13-16.24-22.01-24.9-5.04-6.35-9.53-6.84-15.54-1.58-3.34,2.92-7.37,5.04-13.87,9.36h0Z"/>
  <path class="cls-2" d="M1011.37,304.62c4.19-11.62,8.37-23.24,13.01-36.1,13.27,8.01,24.87,14.85,36.24,22.04,1.58,1,2.08,3.72,3.08,5.64-2.44,0-5.29.83-7.24-.13-6.85-3.39-13.55-7.12-19.99-11.23-5.7-3.64-8.65-1.94-11.13,3.72-2.74,6.26-6.11,12.23-9.2,18.34-1.59-.76-3.19-1.53-4.78-2.3Z"/>
  <path class="cls-2" d="M1779.65,103.92c-2.62-1.6-5.74-2.75-7.78-4.9-7.36-7.81-14.73-15.68-21.39-24.08-5.24-6.6-10.02-7.36-16.5-1.96-3.26,2.71-7.32,4.46-11.03,6.65-.88-1.03-1.77-2.07-2.65-3.1,4.11-3.73,8-7.72,12.35-11.14,11.42-8.96,11.54-8.89,20.92,2.01,9.57,11.13,19.07,22.31,28.61,33.47-.84,1.02-1.68,2.04-2.52,3.05h0Z"/>
  <path class="cls-2" d="M1780.08,299.88c-10.58-5.84-18.92-9.91-26.66-14.88-6.67-4.29-9.94-2.18-12.62,4.28-2.55,6.13-5.66,12.02-8.52,18.02-1.55-.62-3.11-1.25-4.66-1.87,4.09-11.72,8.19-23.43,12.25-35.11,15.18,4.74,37.32,19.8,40.21,29.57Z"/>
  <path class="cls-2" d="M1386.43,588.92c-4.59,9.78-6.45,10.15-13.66,1.97-8.3-9.4-16.73-18.7-24.71-28.36-2.08-2.51-2.7-6.2-3.99-9.34,3.27,1.64,7.25,2.61,9.68,5.07,7.1,7.18,13.33,15.18,20.42,22.37,3.14,3.18,7.52,5.16,12.25,8.29h0Z"/>
  <path class="cls-2" d="M685.44,86.51c-6.21-5.47-11.8-14.14-18.82-15.49-6.46-1.25-14.47,5.37-23.96,9.44,1.24-3.67,1.34-6.04,2.57-7.32,17.82-18.49,20.65-18.48,37.55.63,2.72,3.08,4.29,7.18,6.38,10.8-1.24.64-2.48,1.29-3.72,1.93h0Z"/>
  <path class="cls-2" d="M885.45,458.77c-.98,5.01-1.35,10.25-3.1,14.99-2.48,6.73.25,9.6,6.33,11.37,4.58,1.34,9.03,3.16,13.53,4.76-.46,1.73-.9,3.46-1.36,5.2-9.73-1.99-19.47-3.88-29.13-6.16-.76-.18-1.65-3.22-1.2-4.48,3.2-8.97,6.72-17.82,10.14-26.72,1.59.35,3.19.69,4.78,1.04h0Z"/>
  <path class="cls-2" d="M948.58,398.97c-3.86,2.06-7.5,4.85-11.62,6.03-7.96,2.28-9.61,6.51-6.59,13.83,1.71,4.14,2.37,8.7,3.5,13.08-1.46.57-2.91,1.15-4.37,1.72-4.27-8.86-8.63-17.68-12.64-26.66-.42-.92,1.01-3.7,2.11-4.06,9.19-3,18.49-5.64,27.77-8.39.61,1.48,1.24,2.97,1.85,4.45h0Z"/>
  <path class="cls-2" d="M1402.39,86.26c-3.88-3.31-8.3-6.19-11.54-10.02-6.57-7.77-12.98-8.06-20.43-1.42-2.42,2.15-5.58,3.47-8.4,5.18-.91-.94-1.82-1.87-2.74-2.81,2.61-2.77,5.05-5.75,7.9-8.26,3.4-2.99,7-5.81,10.83-8.23,1.81-1.15,5.55-2.34,6.37-1.5,7.52,7.54,14.59,15.53,21.79,23.39-1.26,1.23-2.51,2.44-3.77,3.67h0Z"/>
  <path class="cls-2" d="M231.94,31.77c-3.56,2.03-6.91,4.92-10.74,5.91-9.38,2.42-10.1,7.82-7.01,15.52,1.45,3.61,2.27,7.47,3.69,12.28-6.12-2.57-18.01-21.88-17.23-26.28.22-1.23,1.02-3.05,1.95-3.34,9.24-2.83,18.55-5.39,27.84-8.04.49,1.31.99,2.62,1.48,3.93h0Z"/>
  <path class="cls-2" d="M573.16,67.67c-3.97-3.06-6.19-4-7.18-5.67-2.1-3.54-3.57-7.46-5.29-11.23-4.47-9.81-1.33-16.1,9.41-18.88,5.19-1.34,10.4-2.58,15.6-3.88.49.87.97,1.73,1.46,2.6-2.33,1.84-4.42,4.13-7.02,5.44-13.17,6.69-13.16,6.59-8.65,21.21.74,2.4.82,4.99,1.66,10.39h0Z"/>
  <path class="cls-2" d="M792.15,121.97c1.2-1.6,2.06-3.75,3.65-4.71,3.87-2.34,8.06-4.17,12.15-6.13,15.19-7.27,25.93-.12,27.01,19.08-6.72-4.51-12.54-11.24-19.08-12.04-7.02-.84-14.73,3.9-22.14,6.21-.52-.8-1.06-1.61-1.58-2.42h0Z"/>
  <path class="cls-2" d="M947.91,32.01c-3.97,2.12-7.72,4.93-11.95,6.22-7.68,2.34-8.78,6.61-6.04,13.41,1.69,4.21,2.5,8.76,3.7,13.17-1.29.54-2.57,1.1-3.85,1.64-4.33-8.62-8.82-17.15-12.74-25.95-.49-1.1,1.75-4.64,3.37-5.19,8.45-2.83,17.11-5.05,25.7-7.48.6,1.4,1.21,2.79,1.81,4.19h0Z"/>
  <path class="cls-2" d="M1076.75,553.98c-4.53-9.16-9.07-18.32-14.57-29.45,11.39-3.3,21.28-6.16,31.17-9.02.58,1.34,1.16,2.66,1.74,4-3.49,1.95-6.78,4.64-10.53,5.72-9.01,2.57-10.63,7.45-6.76,15.46,1.69,3.49,2.29,7.51,3.39,11.29-1.47.66-2.95,1.32-4.42,1.98h-.01Z"/>
  <path class="cls-2" d="M1303.05,31.66c-3.68,2.08-7.16,4.79-11.1,6.12-7.69,2.58-9.68,6.85-6.39,14.2,1.73,3.87,2.5,8.17,3.71,12.27-.82.52-1.63,1.05-2.45,1.57-1.69-1.58-3.92-2.89-4.98-4.81-2.34-4.24-3.68-9.04-6.18-13.18-4.78-7.91-3.61-12.63,6.12-14.54,6.68-1.31,13.2-3.38,19.81-5.11.49,1.16.98,2.31,1.46,3.46h0Z"/>
  <path class="cls-2" d="M1285.12,433.17c-4.59-9.14-9.19-18.28-14.66-29.18,11.35-3.35,21.06-6.22,30.78-9.09.63,1.36,1.27,2.72,1.89,4.08-3.77,1.99-7.34,4.58-11.35,5.83-7.85,2.45-9.77,6.63-6.31,14.07,1.85,3.97,2.52,8.48,3.73,12.75-1.37.51-2.73,1.03-4.1,1.54h0Z"/>
  <path class="cls-2" d="M1387.82,243.66c-9.71-1.62-19.42-3.25-31.33-5.25,4.63-11.65,8.49-21.34,12.34-31.02,1.41.46,2.81.92,4.23,1.38-.94,4.44-1.46,9.04-2.9,13.31-2.34,6.92-1.32,11.25,6.83,12.77,4.12.77,7.96,2.99,11.93,4.55-.37,1.42-.72,2.83-1.09,4.24v.02Z"/>
  <path class="cls-2" d="M833.59,497.76c-2.1-1.58-4.68-2.56-5.54-4.35-5.28-10.93-13.28-10.02-22.57-5.98-3.76,1.63-7.96,2.31-13.64,3.88,4.43-7.22,25.29-18.73,29.85-17.87,5.26.99,13.44,16.83,11.89,24.31h0Z"/>
  <path class="cls-2" d="M1223.06,490.08c-1.84-1.14-4.54-1.84-5.37-3.47-5.71-11.16-13.97-10.38-23.65-5.89-3.45,1.6-7.52,1.92-11.3,2.82-.53-1.28-1.07-2.56-1.61-3.84,9.7-4.3,19.32-8.82,29.22-12.59,1.19-.46,4.49,2.79,5.86,4.92,3.38,5.27,6.2,10.88,9.24,16.35-.79.57-1.58,1.14-2.38,1.71h0Z"/>
  <path class="cls-2" d="M1887.54,38.81c11.04,5.05,20.07,9.19,29.12,13.32-.36,1.13-.71,2.26-1.06,3.4-3.77-.57-7.91-.37-11.23-1.88-9.47-4.33-13.19.08-15.43,8.45-.92,3.43-2.91,6.59-4.41,9.87-1.09-.42-2.18-.83-3.27-1.25,1.99-10.09,3.98-20.17,6.3-31.9h-.01Z"/>
  <path class="cls-2" d="M1351.37,444.64c9.68-4.41,19.34-8.9,29.1-13.13.84-.37,2.96.56,3.54,1.47,4.14,6.47,8.04,13.11,12.01,19.69-.9.77-1.79,1.55-2.69,2.33-2.07-1.58-4.88-2.74-6.09-4.81-5.27-9.04-12.13-9.84-20.99-5.48-4.05,1.99-8.73,2.7-13.12,3.99-.58-1.36-1.18-2.7-1.76-4.06h0Z"/>
  <path class="cls-2" d="M1550.5,128.9c-6.25-3.97-12.18-10.35-18.83-11.23-6.71-.87-14.15,3.73-21.25,5.94-.56-1.49-1.13-2.98-1.69-4.47,9.58-4.15,19.18-11.33,28.73-11.24,5.28.05,10.44,12.27,15.66,19.01-.87.66-1.73,1.33-2.6,1.99h0Z"/>
  <path class="cls-2" d="M1800.65,158.73c-8.45-5.71-14.27-12.43-20.91-13.35-6.59-.91-14,4.01-21.05,6.37-.63-1.26-1.26-2.5-1.89-3.76,4.31-2.37,8.5-4.95,12.94-7.05,12.28-5.81,21.66-2.61,28.15,9.59,1.01,1.9,1.42,4.13,2.75,8.19h.01Z"/>
  <path class="cls-2" d="M1147.14,119.42c9.8-4.32,19.55-8.78,29.5-12.75,1.02-.41,3.79,1.72,4.74,3.28,3.63,5.89,6.84,12.04,8.32,18.99-6.35-3.8-12.42-9.96-19.14-10.75-6.91-.82-14.44,3.59-21.71,5.71-.57-1.48-1.14-2.97-1.71-4.46h0Z"/>
  <path class="cls-2" d="M1082.49,157.99c-1.27-.44-3.26-.5-3.68-1.36-7.74-15.51-19.13-12-31.19-6.25-1.84.88-4.32.47-6.49.65-.46-1.15-.91-2.3-1.37-3.44,10-4.5,19.92-9.2,30.11-13.2,1.02-.41,4.14,3.12,5.55,5.29,3.45,5.28,6.48,10.83,9.69,16.27-.87.68-1.74,1.36-2.61,2.04h0Z"/>
  <path class="cls-2" d="M1663.27,32.37c-3.82,1.98-7.44,4.68-11.51,5.78-7.92,2.13-8.83,6.42-6.02,13.21,1.73,4.18,2.58,8.71,3.83,13.08-1.27.53-2.52,1.06-3.79,1.59-4.17-8.68-8.44-17.32-12.35-26.11-.4-.9,1.07-3.65,2.18-4.01,8.74-2.79,17.61-5.22,26.44-7.75.41,1.41.82,2.81,1.23,4.21Z"/>
  <path class="cls-2" d="M1905.56,128.4c-6.19-3.72-12.1-9.75-18.63-10.52-6.69-.79-14,3.56-21.03,5.66-.56-1.44-1.13-2.87-1.69-4.31,9.42-4.22,18.75-8.72,28.41-12.31,1.29-.48,4.82,3.35,6.44,5.76,3.14,4.68,5.66,9.77,8.43,14.69-.64.35-1.29.69-1.93,1.04h0Z"/>
  <path class="cls-2" d="M657.04,208.73c-.94,4.51-1.41,9.19-2.93,13.5-2.56,7.26-.53,11.09,7.18,12.56,3.81.73,7.38,2.68,10.39,6.45-9.55-1.23-19.11-2.46-30.77-3.96,4-10.56,7.68-20.31,11.37-30.07,1.58.5,3.17,1.01,4.75,1.51h0Z"/>
  <path class="cls-2" d="M1420.61,517.71c3.44-10.54,6.64-20.29,9.83-30.04,1.24.26,2.47.5,3.71.76-.19,3.07-.3,6.15-.58,9.22-.39,4.11-1.82,8.33-1.22,12.26,1.7,11.02,1.61,11.32-11.75,7.8h0Z"/>
  <path class="cls-2" d="M953.73,270.21c-8.94,5.7-17.09,11.04-25.44,16.06-1.05.63-3.67.06-4.58-.88-.79-.82-.78-4-.12-4.37,8.62-4.8,17.4-9.32,26.22-13.76.38-.19,1.49,1.09,3.92,2.96h0Z"/>
  <path class="cls-2" d="M1308.42,271.13c-9.3,5.55-18.61,11.11-27.91,16.66.96-10.18,17.6-20.19,27.91-16.66Z"/>
  <path class="cls-2" d="M1668.74,271.04c-8.16,4.96-16.26,9.99-24.51,14.79-.88.51-2.94.15-3.72-.57-.74-.68-.99-2.55-.62-3.62,1.39-4.04,22.11-13.68,28.86-10.58h0Z"/>
  <path class="cls-2" d="M444.8,26.09c-1.63,9.98-3.27,19.97-4.89,29.94-2.07-.35-4.13-.7-6.2-1.05,1.8-9.96,3.6-19.91,5.4-29.86l5.69.96h0Z"/>
  <path class="cls-2" d="M1156.38,55.58c-6.91-7.02-4.49-23.2,4.3-29.28-1.44,9.76-2.86,19.52-4.3,29.28Z"/>
  <path class="cls-2" d="M1161.29,391.03c-1.89,12.07-3.43,21.87-5.07,32.28-7.83-4.68-5.31-24.88,5.07-32.28Z"/>
  <path class="cls-2" d="M1916.36,333.34c-1.58,9.51-3.17,19.03-4.75,28.54l-4.16-.63c-2.29-10.06,1.41-19.31,4.17-28.69,1.58.27,3.16.52,4.74.79h0Z"/>
  <path class="cls-2" d="M714.19,105.77c-2.46,8.81-4.92,17.62-8.08,28.9-5.32-9.72-2.2-23.46,4.38-29.92,1.24.34,2.46.68,3.7,1.02Z"/>
  <path class="cls-2" d="M802.41,396.59c-2.27,8.2-4.47,16.4-6.96,24.53-.19.61-2.58,1.15-3.56.76-.95-.38-2.15-2.2-1.93-3.05,2.01-7.98,4.3-15.89,6.51-23.83,1.98.52,3.96,1.06,5.94,1.58Z"/>
  <path class="cls-2" d="M971,420.6c3.67,5.28,7.23,8.14,7.01,10.68-.23,2.65-3.95,6.79-6.41,6.98-2.42.19-7.19-3.68-7.27-5.91-.11-3.01,3.26-6.16,6.67-11.76h0Z"/>
  <path class="cls-2" d="M798.24,30.43c-5.02,3.85-7.85,7.66-10.83,7.79-2.36.1-7.19-4.72-6.85-6.65.53-3.05,4.09-6.82,7.14-7.74,2.03-.61,5.42,3.22,10.53,6.6h0Z"/>
  <path class="cls-2" d="M752.78,173.7c2.35-8.17,4.62-16.36,7.18-24.46.22-.69,2.87-1.49,3.44-1.05,1.14.89,2.5,2.84,2.21,3.95-2.05,7.78-4.49,15.46-6.81,23.16-2.01-.53-4.01-1.08-6.02-1.61h0Z"/>
  <path class="cls-2" d="M154.27,18.54c-4.48,3.42-7.31,7.27-9.95,7.14-2.62-.12-7.42-4.75-7.05-6.47.69-3.1,4.18-6.94,7.21-7.69,2.07-.52,5.35,3.65,9.78,7.02h0Z"/>
  <path class="cls-2" d="M1417.43,326.66c1.77-9.03,2.51-18.4,8.71-25.89,1.43.46,2.85.9,4.29,1.36-2.67,8.77-5.34,17.54-8.01,26.3-1.66-.59-3.32-1.18-4.98-1.77h0Z"/>
  <path class="cls-2" d="M1845.19,46.88c1.66-9.54,3.33-19.09,5-28.64,1.83.28,3.65.55,5.48.83-1.45,9.66-2.89,19.31-4.33,28.97-2.05-.39-4.1-.78-6.15-1.17h-.01Z"/>
  <path class="cls-2" d="M1663.24,394.88c-2.31,5.6-17.58,15.16-20.86,14.01-1.32-.47-3.09-2.53-2.93-3.62.26-1.69,1.76-3.41,3.16-4.65.93-.83,2.57-.92,3.91-1.28,4.98-1.35,9.96-2.66,16.71-4.45h0Z"/>
  <path class="cls-2" d="M71.33,41.89c-3.36-5.12-6.87-8.11-6.59-10.7.31-2.77,4.19-5.16,6.51-7.71,2.41,2.44,6.48,4.73,6.74,7.38.26,2.69-3.26,5.74-6.66,11.03Z"/>
  <path class="cls-2" d="M613.17,73.1c-4.7,3.4-7.66,7.17-10.31,6.97-2.52-.19-6.63-4.6-6.54-7.03.09-2.55,4.18-6.69,6.82-6.94,2.54-.24,5.48,3.61,10.04,7h0Z"/>
  <path class="cls-2" d="M870.34,18.62c-4.57,3.38-7.42,7.11-10.04,6.95-2.55-.16-7.19-4.87-6.76-6.52.79-3.07,4.26-6.71,7.31-7.5,1.95-.5,5.15,3.66,9.49,7.08Z"/>
  <path class="cls-2" d="M802.15,144.94c3.8,4.8,7.92,7.8,7.53,10.05-.51,3.05-4.47,5.53-6.96,8.26-2.32-2.45-6.18-4.72-6.5-7.4-.33-2.65,2.93-5.74,5.93-10.9h0Z"/>
  <path class="cls-2" d="M1103.65,584.27c3.14,5.05,6.65,8.2,6.24,10.7-.44,2.67-4.6,4.73-7.14,7.06-2.26-2.56-6.16-5.04-6.3-7.71-.13-2.58,3.62-5.36,7.2-10.06h0Z"/>
  <path class="cls-2" d="M1123.26,551.45c2.34-8.57,4.67-17.14,7.32-26.86,6.11,6.65,3.58,19.26-3.76,27.74-1.19-.29-2.37-.58-3.55-.87Z"/>
  <path class="cls-2" d="M1471.78,174.03c-2.14-9.57,1.65-21.59,11.08-27.36-3.04,11.1-5.38,19.7-7.74,28.29-1.11-.31-2.23-.62-3.34-.93Z"/>
  <path class="cls-2" d="M1163.44,155.99c-4.77,3.26-7.83,6.95-10.2,6.55-2.7-.46-6.67-4.58-6.61-7.03.06-2.44,4.25-6.39,6.96-6.69,2.39-.27,5.24,3.6,9.85,7.18h0Z"/>
  <path class="cls-2" d="M1108.78,173.31c2.12-8.57,4.25-17.13,6.51-26.29,6.66,5.04,4.21,19.2-3.38,27.07-1.04-.26-2.09-.52-3.13-.78h0Z"/>
  <path class="cls-2" d="M1913.59,293.97c-4.93,2.86-7.99,6.05-10.7,5.78-2.32-.23-4.23-4.43-6.33-6.88,2.65-2.15,5.11-5.56,8.02-6.01,2.01-.31,4.66,3.49,9.01,7.12h0Z"/>
  <path class="cls-2" d="M1081.1,185.25c-4.86,3.85-7.37,7.34-10.15,7.56-2.21.17-6.82-3.88-6.63-5.67.31-2.92,3.23-7.07,5.85-7.79,2.25-.61,5.64,2.85,10.93,5.9h0Z"/>
  <path class="cls-2" d="M694.69,192.47c-4.67,3.75-7.4,7.64-9.85,7.47-2.68-.19-7.01-4.07-7.09-6.45-.08-2.5,3.7-6.7,6.39-7.26,2.36-.48,5.54,3.09,10.54,6.24h0Z"/>
  <path class="cls-2" d="M1329.44,73.51c-5.14,3.19-8.36,6.76-10.86,6.31-2.5-.46-5.66-4.8-5.89-7.64-.15-1.93,4.37-6.01,6.61-5.89,2.8.15,5.41,3.64,10.13,7.23h0Z"/>
  <path class="cls-2" d="M1430.25,106.14c-2.52,8.6-5.06,17.2-7.58,25.82-1.79-.5-3.57-1.01-5.37-1.5,2.28-8.65,4.56-17.3,6.84-25.96,2.03.55,4.07,1.11,6.1,1.65h0Z"/>
  <path class="cls-2" d="M1286.77,492.41c-4.89,3.43-7.97,7.24-10.41,6.87-2.53-.38-5.76-4.59-6.19-7.49-.28-1.83,4.06-6.15,6.24-6.09,2.82.07,5.56,3.39,10.36,6.71Z"/>
  <path class="cls-2" d="M1502.56,41.52c-2.74-5.45-5.61-8.58-5.33-11.41.23-2.34,4.17-4.33,6.46-6.46,2.3,2.52,6.32,4.99,6.41,7.6.1,2.6-3.71,5.36-7.55,10.27Z"/>
  <path class="cls-2" d="M1430.28,443.9c-4.82,2.89-7.79,5.97-10.76,5.98-1.95,0-5.91-4.97-5.41-6.75.74-2.68,4.4-5.93,7.17-6.28,2.13-.27,4.78,3.54,9.01,7.04h0Z"/>
  <path class="cls-2" d="M1226.88,7.92c3.15,5.39,6.52,8.59,6.07,11.12-.47,2.58-4.68,4.49-7.26,6.7-2.03-2.41-5.71-4.85-5.65-7.2.07-2.8,3.35-5.51,6.85-10.61h-.01Z"/>
  <path class="cls-2" d="M520.21,17.95c-4.38,3.72-7.03,7.71-9.6,7.66-2.48-.04-6.76-4.19-6.84-6.63-.07-2.54,3.62-6.85,6.25-7.34,2.38-.45,5.53,3.23,10.19,6.32h0Z"/>
  <path class="cls-2" d="M1824.63,173.37c2.43-8.5,4.84-17.02,7.27-25.52,1.74.46,3.49.91,5.24,1.37-2.21,8.52-4.42,17.05-6.63,25.56-1.95-.47-3.91-.94-5.86-1.41h0Z"/>
  <path class="cls-2" d="M1869.86,145.45c3.12,5.11,6.22,7.99,6.19,10.83-.03,2.21-4.57,6.52-6.02,6.12-2.9-.82-6.73-4.04-7.03-6.63-.29-2.48,3.4-5.42,6.86-10.31h0Z"/>
  <path class="cls-2" d="M1383.28,296.57c-5.2,3.03-8.13,6.08-10.86,5.92-2.29-.13-6.47-4.56-6.07-6.13.75-2.87,4.06-6.67,6.69-7,2.4-.3,5.3,3.51,10.24,7.2h0Z"/>
  <path class="cls-2" d="M1187.15,303.66c-3.21-5.26-6.67-8.41-6.25-10.93.43-2.5,4.59-5.64,7.44-6.02,1.74-.23,5.82,4.3,5.75,6.59-.09,2.78-3.44,5.45-6.95,10.35Z"/>
  <path class="cls-2" d="M1405.85,189.92c3.5,4.85,6.94,7.55,7.05,10.38.09,2.34-4.11,6.99-5.81,6.72-2.89-.44-7.06-3.67-7.44-6.21-.4-2.61,3.1-5.8,6.21-10.9Z"/>
  <path class="cls-2" d="M1577.33,8.17c2.94,5.3,6.34,8.66,5.73,11.04-.66,2.63-4.97,4.37-7.69,6.49-1.94-2.45-5.57-5.05-5.38-7.32.23-2.81,3.64-5.37,7.34-10.21h0Z"/>
  <path class="cls-2" d="M1549.62,251.19c-5.04,3.5-8,7.15-10.49,6.86-2.56-.29-5.91-4.17-6.51-6.98-.36-1.66,3.91-5.98,6.2-6.06,2.77-.09,5.66,3.03,10.81,6.18h0Z"/>
  <path class="cls-2" d="M1529.03,155.19c-4.61,3.62-7.11,7.04-9.86,7.26-2.09.17-6.49-3.88-6.34-5.77.24-2.88,3.12-7.2,5.62-7.78,2.29-.52,5.54,3.1,10.57,6.29h0Z"/>
  <path class="cls-2" d="M1228.91,595.06c-4.93,3.17-8.17,6.79-10.38,6.26-2.58-.62-5.58-4.75-5.89-7.61-.2-1.87,4.21-6.04,6.32-5.89,2.75.19,5.29,3.62,9.96,7.25h0Z"/>
  <path class="cls-2" d="M1786.37,176.05c3.51,4.42,7.21,7.1,6.91,9.2-.41,2.83-3.89,5.24-6.06,7.82-2.31-2.09-6.35-4.08-6.47-6.29-.17-2.81,2.84-5.8,5.62-10.73h0Z"/>
  <path class="cls-2" d="M1697.51,431.44c-4.72,3.34-7.42,6.71-10.17,6.73-2.31.02-4.64-3.87-6.96-6.03,2.42-2.43,4.49-6.05,7.36-6.85,1.91-.53,4.97,2.96,9.76,6.15h0Z"/>
  <path class="cls-2" d="M1295.78,697.83c-5.22,2.76-10.43,5.53-15.65,8.3-.78-1.5-1.56-3.01-2.34-4.5,5.24-2.74,10.48-5.47,15.72-8.22.75,1.47,1.51,2.95,2.27,4.42Z"/>
  <path class="cls-2" d="M154.76,700.74c-34.74-.27-59.4-26.8-59.01-63.52.35-32.99,26.39-58.02,60.09-57.75,32.97.26,60.51,28.2,60.28,61.15-.23,32.78-28.38,60.36-61.36,60.11h0Z"/>
  <path class="cls-1" d="M782.16,92.36c-12.41,7.12-22.48,12.88-34.54,19.79v-40.82c11.98,7.3,22.33,13.6,34.54,21.02h0Z"/>
  <path class="cls-1" d="M892.13,350.56c-13.92-4.99-24.8-8.9-35.91-12.89,9.33-9.1,17.5-17.05,26.68-25.98,2.86,12.02,5.66,23.83,9.24,38.87h0Z"/>
  <path class="cls-1" d="M917.14,195.44c10.31-6.37,20.63-12.74,33.42-20.64,1.38,15.11,2.49,27.42,3.89,42.81-14.17-7.11-25.65-12.87-37.13-18.63-.06-1.18-.12-2.37-.18-3.54Z"/>
  <path class="cls-1" d="M1499.61,92.41c-13.21,7.4-23.6,13.22-36.07,20.21v-41.97c12.35,7.45,23,13.88,36.07,21.77h0Z"/>
  <path class="cls-1" d="M593.75,217.87c-14.4-7.28-25.72-12.99-39.88-20.14,12.19-7.98,22.32-14.61,35.88-23.5,1.4,15.3,2.54,27.86,3.99,43.64h0Z"/>
  <path class="cls-1" d="M1136.85,461.07c-11.1,5.75-22.18,11.5-35.04,18.17v-41.41c12.7,7.24,23.74,13.51,34.76,19.8.09,1.15.19,2.3.28,3.43h0Z"/>
  <path class="cls-1" d="M1855.48,92.52c-13.32,7.24-24.01,13.04-36.68,19.93v-41.68c12.46,7.39,23.31,13.83,36.68,21.77h0Z"/>
  <path class="cls-1" d="M1102.6,112.25v-41.06c12.26,7.13,23.16,13.45,36.48,21.19-13.25,7.22-23.91,13.02-36.48,19.87Z"/>
  <path class="cls-1" d="M1309.87,218.12c-14.39-7.34-25.89-13.22-40.32-20.59,12.15-7.65,21.81-13.93,31.77-19.68.89-.51,5.32,2.18,5.49,3.67,1.31,11.16,1.96,22.39,3.05,36.59h0Z"/>
  <path class="cls-1" d="M1204.07,344.67c10.76-10.12,19.36-18.21,30.09-28.3,3.51,14.86,6.35,26.87,9.95,42.11-14.37-4.96-25.64-8.84-40.04-13.81h0Z"/>
  <path class="cls-1" d="M1146.75,653.48v-41.97c12.68,7.4,23.41,13.67,37.22,21.73-13.58,7.38-24.41,13.28-37.22,20.25h0Z"/>
  <path class="cls-1" d="M1269.37,564.37c12.9-8.2,23.36-14.84,36.46-23.15,1.64,15.53,2.98,28.21,4.68,44.29-14.56-7.48-26.49-13.61-41.13-21.13h0Z"/>
  <path class="cls-1" d="M1666.84,174.58c1.58,15.77,2.83,28.22,4.39,43.64-13.45-6.74-24.55-12.13-35.37-18.02-1.04-.56-1.29-5.66-.32-6.31,9.42-6.24,19.19-11.97,31.3-19.32h0Z"/>
  <path class="cls-1" d="M1599.14,308.36c3.47,15.55,6.2,27.71,9.47,42.39-12.63-4.35-22.52-7.42-32.05-11.34-1.53-.63-2.96-6.35-1.95-7.43,7.04-7.48,14.74-14.35,24.53-23.61Z"/>
</svg>